<svg xmlns="http://www.w3.org/2000/svg" width="1085" height="381" fill="none">
    <path fill="#F4F6F8"
          d="M76.384 310.787L122.211 0h55.102l-58.921 381H28.92L-30 0h60.557l45.827 310.787zM341.714 381a170.617 170.617 0 0 0-2.183-7.076c-.727-2.177-1.455-4.898-2.182-8.164-.364-3.266-.727-7.439-1.091-12.519V274.32c0-17.78-3.092-30.299-9.275-37.556-6.183-7.257-16.185-10.885-30.005-10.885h-20.732V381h-60.011V0h90.563c31.278 0 53.828 7.257 67.649 21.771 14.185 14.515 21.277 36.468 21.277 65.859v29.936c0 39.188-13.093 64.951-39.28 77.288 15.275 6.169 25.641 16.329 31.097 30.48 5.819 13.789 8.728 30.662 8.728 50.619v58.783c0 9.434.364 17.78 1.092 25.037.727 6.894 2.546 13.97 5.455 21.227h-61.102zM276.246 54.429V171.45h23.459c11.275 0 20.004-2.903 26.187-8.709 6.547-5.805 9.82-16.328 9.82-31.568V93.617c0-13.788-2.546-23.767-7.637-29.936-4.729-6.168-12.366-9.252-22.914-9.252h-28.915zM578.128 0h51.828L479.382 381h-51.828L578.128 0zM859.56 381h-60.557l-10.365-69.124h-73.651L704.621 381H649.52L710.623 0h87.835l61.102 381zM722.625 260.169h57.829L751.54 67.491 722.625 260.17zM1023.9 381c-.73-2.54-1.46-4.899-2.18-7.076-.73-2.177-1.46-4.898-2.19-8.164-.36-3.266-.72-7.439-1.09-12.519V274.32c0-17.78-3.09-30.299-9.27-37.556-6.19-7.257-16.188-10.885-30.009-10.885H958.43V381h-60.011V0h90.563c31.278 0 53.828 7.257 67.648 21.771 14.19 14.515 21.28 36.468 21.28 65.859v29.936c0 39.188-13.1 64.951-39.28 77.288 15.27 6.169 25.64 16.329 31.09 30.48 5.82 13.789 8.73 30.662 8.73 50.619v58.783c0 9.434.37 17.78 1.09 25.037.73 6.894 2.55 13.97 5.46 21.227h-61.1zM958.43 54.429V171.45h23.459c11.275 0 20.001-2.903 26.191-8.709 6.54-5.805 9.82-16.328 9.82-31.568V93.617c0-13.788-2.55-23.767-7.64-29.936-4.73-6.168-12.368-9.252-22.915-9.252H958.43z"/>
</svg>