<svg xmlns="http://www.w3.org/2000/svg" width="125" height="119" fill="none"><path fill="#EF4C4C" d="M112.633 57.382c-10.967-17.644-29.783-28.177-50.33-28.177-20.546 0-39.362 10.533-50.33 28.175-.389.63-.389 1.429 0 2.058 10.968 17.643 29.784 28.177 50.33 28.177 20.547 0 39.363-10.534 50.33-28.175a1.96 1.96 0 0 0 0-2.058zM62.303 83.72c-18.788 0-36.03-9.44-46.365-25.311C26.27 42.538 43.515 33.099 62.303 33.099c18.789 0 36.031 9.439 46.366 25.31-10.333 15.872-27.577 25.312-46.366 25.312z"/><path fill="#EF4C4C" d="M62.304 36.993c-11.809 0-21.417 9.608-21.417 21.417 0 11.808 9.608 21.416 21.417 21.416 11.808 0 21.416-9.608 21.416-21.416 0-11.809-9.608-21.417-21.416-21.417zm0 38.94c-9.663 0-17.523-7.86-17.523-17.523s7.86-17.523 17.523-17.523c9.662 0 17.522 7.86 17.522 17.523s-7.86 17.523-17.522 17.523z"/><path fill="#EF4C4C" d="M62.304 50.622c-4.296 0-7.788 3.493-7.788 7.788s3.492 7.788 7.788 7.788c4.295 0 7.787-3.493 7.787-7.788s-3.492-7.788-7.787-7.788zm0 11.682a3.898 3.898 0 0 1-3.894-3.894 3.898 3.898 0 0 1 3.894-3.894 3.898 3.898 0 0 1 3.894 3.894 3.898 3.898 0 0 1-3.894 3.894zM122.66 23.364H95.402c-1.077 0-1.947.87-1.947 1.947s.87 1.947 1.947 1.947h27.258c1.077 0 1.947-.87 1.947-1.947s-.87-1.947-1.947-1.947zM103.19 15.576h-7.788c-1.077 0-1.947.87-1.947 1.947s.87 1.947 1.947 1.947h7.788c1.077 0 1.947-.87 1.947-1.947s-.87-1.947-1.947-1.947zM122.66 7.788h-5.841c-1.077 0-1.947.87-1.947 1.947s.87 1.947 1.947 1.947h5.841c1.077 0 1.947-.87 1.947-1.947s-.87-1.947-1.947-1.947zM122.66 15.576h-11.682c-1.076 0-1.947.87-1.947 1.947s.871 1.947 1.947 1.947h11.682c1.077 0 1.947-.87 1.947-1.947s-.87-1.947-1.947-1.947zM103.19 0h-7.788c-1.077 0-1.947.87-1.947 1.947s.87 1.947 1.947 1.947h7.788c1.077 0 1.947-.87 1.947-1.947S104.267 0 103.19 0zM122.66 0h-11.682c-1.076 0-1.947.87-1.947 1.947s.871 1.947 1.947 1.947h11.682c1.077 0 1.947-.87 1.947-1.947S123.737 0 122.66 0zM109.031 7.788H95.402c-1.077 0-1.947.87-1.947 1.947s.87 1.947 1.947 1.947h13.629c1.077 0 1.947-.87 1.947-1.947s-.87-1.947-1.947-1.947z"/><path fill="#EF4C4C" d="M81.773 56.463H68.144c-1.076 0-1.947.87-1.947 1.947 0 1.076.87 1.947 1.947 1.947h13.63c1.076 0 1.946-.87 1.946-1.947s-.87-1.947-1.947-1.947zM62.304 72.039c-1.076 0-1.947.87-1.947 1.947v3.894c0 1.076.87 1.947 1.947 1.947s1.947-.87 1.947-1.947v-3.894c0-1.077-.87-1.947-1.947-1.947zM62.304 36.993c-1.076 0-1.947.87-1.947 1.947v3.894c0 1.076.87 1.947 1.947 1.947s1.947-.87 1.947-1.947V38.94c0-1.077-.87-1.947-1.947-1.947zM77.448 70.8l-2.755-2.755a1.945 1.945 0 0 0-2.753 0 1.945 1.945 0 0 0 0 2.753l2.755 2.755c.38.38.878.57 1.377.57a1.945 1.945 0 0 0 1.376-3.324zM52.669 46.021l-2.753-2.753a1.945 1.945 0 0 0-2.753 0 1.945 1.945 0 0 0 0 2.753l2.753 2.753a1.945 1.945 0 0 0 2.753 0 1.945 1.945 0 0 0 0-2.753zM56.463 56.463H42.836c-1.077 0-1.947.87-1.947 1.947 0 1.076.87 1.947 1.947 1.947h13.627c1.076 0 1.947-.87 1.947-1.947s-.87-1.947-1.947-1.947zM96.779 23.936a1.945 1.945 0 0 0-2.753 0L71.94 46.021a1.945 1.945 0 0 0 1.377 3.323c.498 0 .996-.19 1.376-.57L96.78 26.689a1.945 1.945 0 0 0 0-2.753zM52.668 68.043a1.945 1.945 0 0 0-2.753 0l-22.09 22.089a1.945 1.945 0 0 0 1.376 3.323c.499 0 .997-.19 1.377-.57l22.09-22.089a1.945 1.945 0 0 0 0-2.753z"/><path fill="#EF4C4C" d="M29.2 89.561H1.948C.87 89.561 0 90.431 0 91.508s.87 1.948 1.947 1.948h27.254c1.077 0 1.947-.87 1.947-1.948 0-1.076-.87-1.947-1.947-1.947zM29.205 97.35H1.947C.87 97.35 0 98.22 0 99.296v17.523c0 1.077.87 1.947 1.947 1.947h27.258c1.077 0 1.947-.87 1.947-1.947V99.296c0-1.076-.87-1.947-1.947-1.947zm-1.947 17.522H3.894v-13.629h23.364v13.629z"/><path fill="#EF4C4C" d="M23.364 109.031H7.788a1.946 1.946 0 0 0-1.947 1.947c0 1.077.87 1.947 1.947 1.947h15.576c1.076 0 1.947-.87 1.947-1.947 0-1.076-.87-1.947-1.947-1.947z"/><path fill="#EF4C4C" d="M7.788 109.031a1.946 1.946 0 0 0-1.947 1.947v5.841c0 1.077.87 1.947 1.947 1.947 1.076 0 1.947-.87 1.947-1.947v-5.841c0-1.076-.87-1.947-1.947-1.947zM23.364 109.031a1.946 1.946 0 0 0-1.947 1.947v5.841c0 1.077.87 1.947 1.947 1.947s1.947-.87 1.947-1.947v-5.841c0-1.076-.87-1.947-1.947-1.947zM40.887 1.947H23.364c-1.077 0-1.947.87-1.947 1.947v17.523c0 1.077.87 1.947 1.947 1.947h17.523c1.077 0 1.947-.87 1.947-1.947V3.894c0-1.077-.87-1.947-1.947-1.947zM38.94 19.47H25.31V5.84H38.94V19.47zM17.523 27.258H9.735c-1.077 0-1.947.87-1.947 1.947v7.788c0 1.076.87 1.947 1.947 1.947h7.788c1.077 0 1.947-.87 1.947-1.947v-7.788c0-1.077-.87-1.947-1.947-1.947zm-1.947 7.788h-3.894v-3.894h3.894v3.894zM60.357 9.735h-5.84c-1.077 0-1.948.87-1.948 1.947v5.84c0 1.078.87 1.948 1.947 1.948h5.841c1.077 0 1.947-.87 1.947-1.947v-5.841c0-1.077-.87-1.947-1.947-1.947zm-1.947 5.84h-1.947V13.63h1.947v1.947zM101.244 93.456H83.721c-1.076 0-1.947.87-1.947 1.946v17.523c0 1.077.87 1.947 1.947 1.947h17.523c1.077 0 1.947-.87 1.947-1.947V95.402c0-1.076-.87-1.947-1.947-1.947zm-1.947 17.522H85.668V97.349h13.63v13.629zM114.873 77.88h-7.788c-1.077 0-1.947.87-1.947 1.947v7.788c0 1.076.87 1.947 1.947 1.947h7.788c1.076 0 1.947-.87 1.947-1.947v-7.788a1.946 1.946 0 0 0-1.947-1.947zm-1.947 7.788h-3.894v-3.895h3.894v3.895zM70.092 97.35H64.25c-1.077 0-1.947.87-1.947 1.946v5.841c0 1.077.87 1.947 1.947 1.947h5.84c1.077 0 1.948-.87 1.948-1.947v-5.84c0-1.077-.87-1.947-1.947-1.947zm-1.947 5.84h-1.947v-1.947h1.947v1.947z"/></svg>