<svg xmlns="http://www.w3.org/2000/svg" width="512" height="512">
    <circle cx="213.5" cy="215.47" r="9"/>
    <circle cx="300" cy="215.97" r="9"/>
    <path d="M221.005 161.967h-15.881c-9.922 0-17.995 8.072-17.995 17.995 0 9.923 8.072 17.995 17.995 17.995h15.881c9.922 0 17.995-8.072 17.995-17.995 0-9.923-8.072-17.995-17.995-17.995zm0 20.99h-15.881c-1.651 0-2.995-1.344-2.995-2.995s1.343-2.995 2.995-2.995h15.881a2.998 2.998 0 0 1 2.995 2.995 2.998 2.998 0 0 1-2.995 2.995zM307.876 161.967h-15.881c-9.922 0-17.995 8.072-17.995 17.995 0 9.923 8.072 17.995 17.995 17.995h15.881c9.922 0 17.995-8.072 17.995-17.995 0-9.923-8.072-17.995-17.995-17.995zm0 20.99h-15.881c-1.651 0-2.995-1.343-2.995-2.995s1.343-2.995 2.995-2.995h15.881c1.651 0 2.995 1.343 2.995 2.995s-1.343 2.995-2.995 2.995zM282.5 248.967h-54a7.5 7.5 0 0 0-7.5 7.5v5c0 19.023 15.477 34.5 34.5 34.5s34.5-15.477 34.5-34.5v-5a7.5 7.5 0 0 0-7.5-7.5zm-27 32c-9.906 0-18.11-7.424-19.34-17h38.681c-1.231 9.577-9.435 17-19.341 17z"/>
    <path d="M493.379 90.967H375.54c-3.702-12.98-15.443-22.604-29.475-23.102V15.532a7.498 7.498 0 0 0-9.249-7.293l-44.313 10.625c-.349.083-.69.192-1.023.324a49.39 49.39 0 0 1-18.334 3.513H220.85c-29.163 0-51.765 18.944-55.402 45.15-14.258.279-26.24 9.979-29.987 23.116H18.621C8.354 90.967 0 99.321 0 109.589v340.758c0 10.268 8.354 18.621 18.621 18.621H138v17.989c0 9.38 7.631 17.011 17.011 17.011h200.978c9.38 0 17.011-7.631 17.011-17.011v-17.989h120.379c10.268 0 18.621-8.354 18.621-18.621V109.589c0-10.268-8.354-18.622-18.621-18.622zM368.5 203.514c0 9.306-7.571 16.877-16.877 16.877h-5.558v-33.755h5.558c9.306 0 16.877 7.572 16.877 16.878zM166.078 82.845h6.357a7.5 7.5 0 0 0 7.5-7.5c0-21.813 17.207-37.644 40.915-37.644h52.295a64.322 64.322 0 0 0 23.362-4.372l34.557-8.286v50.302a7.5 7.5 0 0 0 7.5 7.5h6.357c6.092 0 11.423 3.263 14.381 8.122H151.697c2.958-4.859 8.289-8.122 14.381-8.122zm-16.842 23.122h212.526V173.3a31.723 31.723 0 0 0-10.14-1.663h-5.558v-37.018a7.5 7.5 0 0 0-7.474-7.5l-39.375-.138-10.759-14.069a7.502 7.502 0 0 0-12.33.6c-9.893 15.939-27 25.455-45.759 25.455h-57.933a7.5 7.5 0 0 0-7.5 7.5v25.169h-5.558c-3.545 0-6.952.59-10.14 1.663v-67.332zM255.5 317.902c-41.667 0-75.565-33.898-75.565-75.564v-88.371h50.433c20.408 0 39.288-8.81 52.256-23.991l6.918 9.047a7.496 7.496 0 0 0 5.931 2.944l35.591.125v100.246c.001 41.667-33.897 75.564-75.564 75.564zm28.5 10.402v16.663h-57v-16.663c8.966 2.98 18.547 4.599 28.5 4.599s19.534-1.619 28.5-4.599zM159.377 186.636h5.558v33.755h-5.558c-9.306 0-16.877-7.571-16.877-16.877s7.571-16.878 16.877-16.878zM138 423.396v30.571H18.621A3.625 3.625 0 0 1 15 450.346V109.589a3.625 3.625 0 0 1 3.621-3.621h115.616v77.982c-4.216 5.405-6.737 12.194-6.737 19.565 0 17.577 14.3 31.877 31.877 31.877h5.558v6.946c0 34.182 19.038 63.999 47.065 79.412v23.217h-1.5a7.5 7.5 0 0 0-7.5 7.5V370.9h-20.828c-.505 0-1.009.051-1.503.152-24.724 5.06-42.669 27.074-42.669 52.344zm46.473 65.571h-29.462a2.013 2.013 0 0 1-2.011-2.011v-17.989h31.473v20zm129.054 0H199.473v-20h114.054v20zM358 486.956a2.013 2.013 0 0 1-2.011 2.011h-27.462v-20H358v17.989zm0-32.989h-29.473v-17.5a7.5 7.5 0 0 0-15 0v17.5H199.473v-17.5a7.5 7.5 0 0 0-15 0v17.5H153v-30.571c0-17.935 12.559-33.587 29.966-37.496H210.5a7.5 7.5 0 0 0 7.5-7.5v-18.433h76v17.5a7.5 7.5 0 0 0 7.5 7.5h18.071c21.189 0 38.429 17.239 38.429 38.429v30.571zm139-3.621a3.625 3.625 0 0 1-3.621 3.621H373v-30.571c0-29.461-23.968-53.429-53.429-53.429H309v-17.5a7.5 7.5 0 0 0-7.5-7.5H299V321.75c28.027-15.414 47.065-45.23 47.065-79.412v-6.946h5.558c17.577 0 31.877-14.3 31.877-31.877 0-7.371-2.521-14.159-6.737-19.565v-77.982h116.616a3.625 3.625 0 0 1 3.621 3.621v340.757z"/>
    <path d="M466.5 359.967h-64a7.5 7.5 0 0 0-7.5 7.5v64a7.5 7.5 0 0 0 7.5 7.5h64a7.5 7.5 0 0 0 7.5-7.5v-64a7.5 7.5 0 0 0-7.5-7.5zm-7.5 64h-49v-49h49v49zM466.5 228.967h-44a7.5 7.5 0 0 0-7.5 7.5v13.526a7.5 7.5 0 0 0 15 0v-6.026h29v72h-29v-17.173a7.5 7.5 0 0 0-15 0v24.673a7.5 7.5 0 0 0 7.5 7.5h44a7.5 7.5 0 0 0 7.5-7.5v-87a7.5 7.5 0 0 0-7.5-7.5zM441.5 132.967c-20.126 0-36.5 16.374-36.5 36.5s16.374 36.5 36.5 36.5 36.5-16.374 36.5-36.5-16.374-36.5-36.5-36.5zm0 58c-11.855 0-21.5-9.645-21.5-21.5s9.645-21.5 21.5-21.5 21.5 9.645 21.5 21.5-9.645 21.5-21.5 21.5zM112.5 334.427a7.5 7.5 0 0 0 7.5-7.5v-24.46a7.5 7.5 0 0 0-7.5-7.5h-68a7.5 7.5 0 0 0-7.5 7.5v129a7.5 7.5 0 0 0 7.5 7.5h68a7.5 7.5 0 0 0 7.5-7.5v-55.738a7.5 7.5 0 0 0-15 0v48.238H52v-114h53v16.96a7.5 7.5 0 0 0 7.5 7.5zM226.5 393.967c-13.509 0-24.5 10.991-24.5 24.5s10.991 24.5 24.5 24.5 24.5-10.991 24.5-24.5-10.991-24.5-24.5-24.5zm0 34c-5.238 0-9.5-4.262-9.5-9.5s4.262-9.5 9.5-9.5 9.5 4.262 9.5 9.5-4.262 9.5-9.5 9.5zM301.5 396.967h-34a7.5 7.5 0 0 0-7.5 7.5v32a7.5 7.5 0 0 0 7.5 7.5h34a7.5 7.5 0 0 0 7.5-7.5v-32a7.5 7.5 0 0 0-7.5-7.5zm-7.5 32h-19v-17h19v17zM78.5 122.967h-34a7.5 7.5 0 0 0-7.5 7.5v139a7.5 7.5 0 0 0 7.5 7.5h34a7.5 7.5 0 0 0 7.5-7.5v-139a7.5 7.5 0 0 0-7.5-7.5zm-7.5 139H52v-124h19v124z"/>
</svg>