<svg xmlns="http://www.w3.org/2000/svg" width="114" height="131" fill="none"><path fill="#fff" d="M32.144 75.974a2.182 2.182 0 0 0 .629-4.274c-4.51-1.353-9.408-6.305-13.44-13.58a2.183 2.183 0 1 0-3.821 2.116C20.097 68.5 25.926 74.209 31.515 75.88c.203.061.416.093.629.093zM54.692 27.456a24.079 24.079 0 0 1 2.071 9.658 2.183 2.183 0 0 0 4.367 0 28.437 28.437 0 0 0-2.432-11.397 29.56 29.56 0 0 0-9.357-11.963 2.184 2.184 0 0 0-2.62 3.493 25.167 25.167 0 0 1 7.971 10.21zM34.931 13.099a18.11 18.11 0 0 1 5.847.993 2.184 2.184 0 0 0 1.406-4.134 22.485 22.485 0 0 0-7.253-1.225 2.183 2.183 0 0 0 0 4.366zM76.437 89.172c-4.51-1.353-9.408-6.305-13.44-13.58a2.183 2.183 0 1 0-3.821 2.117C63.761 85.97 69.59 91.68 75.179 93.352a2.181 2.181 0 0 0 2.784-2.591 2.181 2.181 0 0 0-1.526-1.588zM93.003 31.22a2.183 2.183 0 0 0-2.62 3.492 25.18 25.18 0 0 1 7.967 10.196 24.062 24.062 0 0 1 2.075 9.672 2.184 2.184 0 0 0 4.367 0 28.427 28.427 0 0 0-2.432-11.397 29.555 29.555 0 0 0-9.357-11.964zM85.846 27.423a22.485 22.485 0 0 0-7.253-1.225 2.183 2.183 0 0 0 0 4.366c1.99.008 3.966.344 5.847.994a2.184 2.184 0 0 0 1.406-4.135z"/><path fill="#fff" d="M78.565 17.465h-.035c-4.404.02-8.754.968-12.766 2.782A35.074 35.074 0 0 0 34.931 0C16.324 0 0 17.343 0 37.114c0 17.101 11.737 40.345 27.157 46.44l-.928 5.598a2.182 2.182 0 0 0 2.152 2.542h3.52L30.52 95.84a15.187 15.187 0 0 0 1.793 13.318l1.621 2.432a10.855 10.855 0 0 1 1.275 9.508l-2.34 7.025a2.187 2.187 0 0 0 4.148 1.38l2.327-7.027a15.184 15.184 0 0 0-1.792-13.318l-1.622-2.431a10.848 10.848 0 0 1-1.277-9.51l1.851-5.524h4.977a2.182 2.182 0 0 0 2.154-2.542l-.929-5.593a28.348 28.348 0 0 0 7.37-4.352c4.586 9.203 11.82 18.307 20.74 21.844l-.922 5.567a2.181 2.181 0 0 0 2.152 2.541h3.52l-1.383 4.148a15.188 15.188 0 0 0 1.793 13.318l1.62 2.427c.174.262.337.533.487.806a2.182 2.182 0 0 0 2.96.869 2.183 2.183 0 0 0 .873-2.961 17.628 17.628 0 0 0-.685-1.133l-1.622-2.432a10.843 10.843 0 0 1-1.278-9.507l1.837-5.535h4.977a2.18 2.18 0 0 0 2.153-2.541l-.917-5.528c6.253-2.44 12.202-7.788 17.248-15.662a61.151 61.151 0 0 0 9.897-30.916c-.045-19.747-16.373-37.047-34.96-37.047zM4.366 37.115c0-17.447 14.283-32.749 30.565-32.749 11.722 0 22.623 7.7 27.777 19.625a32.755 32.755 0 0 1 2.787 13.123 38.07 38.07 0 0 1-.316 4.803 49.131 49.131 0 0 1-1.092 5.661A57.14 57.14 0 0 1 49.321 74.11a24.684 24.684 0 0 1-9.703 5.96 15.803 15.803 0 0 1-7.043.533c-.794-.12-1.578-.3-2.346-.535C15.905 75.757 4.366 53.05 4.366 37.114zm26.592 50.212l.415-2.504c.129.024.255.031.383.052.13.023.32.042.479.063.882.13 1.77.198 2.662.206h.07c.89-.007 1.777-.076 2.659-.203.159-.022.32-.037.48-.063.16-.026.255-.028.384-.053l.415 2.502h-7.947zm51.61 17.466h-7.947l.415-2.504c.246.043.494.065.738.1.206.029.408.059.614.083.732.085 1.469.131 2.206.138h.06c1.17-.004 2.34-.109 3.493-.315l.422 2.498zM99.96 83.07c-4.927 7.68-10.863 12.744-16.794 14.488-.687.204-1.386.363-2.094.475l-.293.042a15.593 15.593 0 0 1-4.388 0c-.183-.026-.36-.07-.541-.103a16.485 16.485 0 0 1-1.771-.401c-8.862-2.538-16.193-12.038-20.622-21.395.13-.131.255-.28.382-.413.273-.287.541-.579.81-.873.319-.353.634-.71.947-1.076.266-.313.526-.63.786-.952.306-.376.607-.758.904-1.148.256-.337.51-.677.76-1.023.291-.396.575-.8.85-1.207.248-.358.49-.718.73-1.091.273-.415.54-.837.804-1.262.233-.376.465-.754.692-1.138.255-.437.504-.873.749-1.31.217-.395.436-.788.655-1.185.237-.437.466-.896.694-1.344.205-.407.408-.81.605-1.219.217-.46.436-.924.642-1.387.185-.412.373-.823.552-1.237.2-.47.39-.944.583-1.417.165-.417.336-.832.495-1.25.18-.48.35-.96.52-1.442.148-.417.298-.834.437-1.253.16-.49.307-.976.456-1.467.126-.413.255-.825.373-1.238.14-.496.262-.991.388-1.49.104-.403.219-.807.306-1.211.119-.509.219-1.01.319-1.515.079-.39.166-.78.236-1.166.093-.528.166-1.048.243-1.57.052-.358.117-.718.16-1.074.073-.576.119-1.144.167-1.71.025-.294.063-.59.083-.875.054-.85.084-1.694.084-2.521 0-1.185-.07-2.369-.185-3.546-.04-.389-.109-.775-.16-1.162a37.74 37.74 0 0 0-.372-2.36c-.09-.453-.204-.903-.31-1.352a39.182 39.182 0 0 0-.573-2.15c-.14-.46-.29-.918-.448-1.375-.11-.325-.196-.654-.316-.975a26.988 26.988 0 0 1 11.028-2.36h.03c16.263 0 30.565 15.267 30.597 32.687a56.58 56.58 0 0 1-9.2 28.55z"/></svg>