<svg xmlns="http://www.w3.org/2000/svg" width="99" height="132" fill="none"><path fill="#fff" d="M.04 86.026a10.755 10.755 0 0 0 4.239 9.519 33.696 33.696 0 0 0 2.673 2.072c-7.17 7.29-7.537 18.866-.846 26.599 6.691 7.731 18.2 9.028 26.444 2.98a37.353 37.353 0 0 0 16.81 3.803 37.228 37.228 0 0 0 16.905-3.855c8.23 6.079 19.752 4.813 26.465-2.909 6.714-7.723 6.366-19.309-.798-26.614a33.938 33.938 0 0 0 2.683-2.076 10.748 10.748 0 0 0 4.244-9.519C97.923 76.767 84.86 67.6 75.66 62.231a34.611 34.611 0 0 0 7.245-32.558A15.282 15.282 0 1 0 64.413 7.842a34.493 34.493 0 0 0-30.105 0 15.282 15.282 0 1 0-18.494 21.831 34.61 34.61 0 0 0 7.299 32.616C13.952 67.666.958 76.844.04 86.026zm20.94 40.607c-4.703 0-8.733-6.001-8.733-10.916a8.732 8.732 0 0 1 8.733-8.732 8.732 8.732 0 0 1 8.732 8.732c0 4.915-4.03 10.916-8.732 10.916zm0-24.014c-7.232.006-13.092 5.867-13.1 13.098.019 1.571.277 3.129.767 4.622-4.625-6.323-3.719-15.119 2.097-20.368 5.816-5.248 14.66-5.248 20.476 0 5.816 5.249 6.722 14.045 2.096 20.368.489-1.493.745-3.051.763-4.622-.008-7.231-5.868-13.092-13.1-13.098zm28.38 24.014A33.64 33.64 0 0 1 36 123.992a19.615 19.615 0 0 0-13.429-32.21c1.727-6.8 4.585-15.996 7.104-23.644a34.714 34.714 0 0 0 16.884 5.958c.922.09 1.854.142 2.802.142a28.9 28.9 0 0 0 2.8-.142 34.719 34.719 0 0 0 16.885-5.958c1.992 6.038 5.175 16.01 7.097 23.654a19.622 19.622 0 0 0-13.306 32.146 33.495 33.495 0 0 1-13.476 2.695zm-21.83-76.41c0-10.836 9.792-19.648 21.83-19.648 12.039 0 21.832 8.812 21.832 19.648 0 10.116-8.54 18.467-19.473 19.528-.783.06-1.562.12-2.358.12-.798 0-1.577-.06-2.358-.12-10.933-1.06-19.474-9.412-19.474-19.528zm50.374 76.41c-4.701 0-8.732-6.001-8.732-10.916a8.732 8.732 0 0 1 8.733-8.732 8.732 8.732 0 0 1 8.732 8.732c0 4.915-4.03 10.916-8.733 10.916zm15.282-15.282c0 3.233-1.032 6.382-2.948 8.988.49-1.493.75-3.051.765-4.622 0-7.234-5.864-13.098-13.099-13.098-7.233 0-13.098 5.864-13.098 13.098.018 1.571.277 3.129.766 4.622a15.284 15.284 0 0 1 17.062-23.557 15.283 15.283 0 0 1 10.552 14.569zm1.329-24.888a6.55 6.55 0 0 1-2.737 5.763 26.001 26.001 0 0 1-3.418 2.518 19.521 19.521 0 0 0-7.69-2.824c-2.036-8.424-5.806-20.117-7.859-26.306 10.355 5.982 21.044 14.3 21.704 20.849zM77.74 4.377a10.915 10.915 0 0 1 3.711 21.176 35.346 35.346 0 0 0-2.042-3.954 6.536 6.536 0 1 0-7.618-9.022 35.129 35.129 0 0 0-3.569-2.62 10.914 10.914 0 0 1 9.518-5.58zm0 13.1a2.183 2.183 0 1 1 0-4.368 2.183 2.183 0 0 1 0 4.367zm-67.677-2.184a10.916 10.916 0 0 1 20.427-5.336 35.142 35.142 0 0 0-3.57 2.62 6.537 6.537 0 0 0-12.49 2.506 6.537 6.537 0 0 0 4.874 6.516 35.34 35.34 0 0 0-2.037 3.954 10.916 10.916 0 0 1-7.204-10.26zm13.099 0a2.183 2.183 0 1 1-4.367 0 2.183 2.183 0 0 1 4.367 0zm-4.366 24.014a30.564 30.564 0 1 1 55.826 17.175c.612-2.03.927-4.139.935-6.259 0-13.24-11.752-24.014-26.197-24.014-14.447 0-26.198 10.774-26.198 24.014.007 2.12.323 4.229.934 6.259a30.386 30.386 0 0 1-5.3-17.175zm7.075 26.416c-1.851 5.567-5.726 17.525-7.844 26.222a19.485 19.485 0 0 0-7.497 2.792 25.944 25.944 0 0 1-3.412-2.513 6.55 6.55 0 0 1-2.731-5.761c.552-5.54 8.547-13.225 21.484-20.74z"/><path fill="#fff" d="M64.714 86.245a9.529 9.529 0 0 0-2.967-7.072 8.63 8.63 0 0 0-7.493-1.73 11.032 11.032 0 0 0-4.893 2.182 11.051 11.051 0 0 0-4.893-2.183 8.657 8.657 0 0 0-7.495 1.731 9.91 9.91 0 0 0-.071 14.073l10.915 10.916a2.184 2.184 0 0 0 3.087 0l10.843-10.846a9.528 9.528 0 0 0 2.967-7.071zm-5.981 3.914l-9.372 9.372-9.445-9.442a5.561 5.561 0 0 1 0-7.689 3.707 3.707 0 0 1 2.5-.786c.42 0 .84.04 1.253.12a5.45 5.45 0 0 1 3.738 2.183 2.184 2.184 0 0 0 3.905 0 5.459 5.459 0 0 1 3.74-2.183 4.478 4.478 0 0 1 3.752.655 5.162 5.162 0 0 1 1.544 3.844 5.217 5.217 0 0 1-1.615 3.926zM42.568 58.956a9.939 9.939 0 0 0 6.792-3.2 9.939 9.939 0 0 0 6.791 3.2c3.03 0 5.762-1.795 8.124-5.339l-3.633-2.423c-1.498 2.248-3.004 3.395-4.48 3.395h-.01a7.013 7.013 0 0 1-4.61-2.908v-3.86c3.801-.712 6.55-3.224 6.55-6.33 0-3.675-3.835-6.55-8.732-6.55-4.897 0-8.733 2.875-8.733 6.55 0 3.102 2.748 5.614 6.55 6.33v3.865a7.017 7.017 0 0 1-4.609 2.904c-1.476 0-2.982-1.148-4.48-3.396l-3.633 2.423c2.352 3.544 5.08 5.339 8.113 5.339zm2.425-17.465c0-.892 1.7-2.184 4.367-2.184 2.665 0 4.366 1.292 4.366 2.184 0 .89-1.701 2.183-4.366 2.183-2.666 0-4.367-1.293-4.367-2.183zM40.627 17.476h4.366v4.366h-4.366v-4.366zM53.727 17.476h4.366v4.366h-4.366v-4.366z"/></svg>