<svg xmlns="http://www.w3.org/2000/svg" viewBox="-47 0 479 479.96">
    <path d="M70.137 117.617l10.343-10.344v12.688h16v-12.688l10.344 10.344 11.313-11.312L96.48 84.648V59.61l32 12.352v48a8.005 8.005 0 0 0 4.422 7.16c.25.117 1.54.758 3.578 1.695v15.145a54.899 54.899 0 0 0 24 45.8v12.087l-46.77 12.718c-24.3 6.73-41.155 28.817-41.23 54.036v43.359a8 8 0 0 0 8 8h224a8 8 0 0 0 8-8V268.6c-.078-25.226-16.94-47.316-41.257-54.042l-46.743-12.711v-12.114a55.996 55.996 0 0 0 24-45.773v-15.145c2.04-.937 3.329-1.601 3.575-1.695a8.001 8.001 0 0 0 4.425-7.16v-48l42.872-16.488c3.097-1.184 5.14-4.157 5.14-7.473s-2.043-6.29-5.14-7.473l-104-40a8.08 8.08 0 0 0-5.743 0l-104 40a8.005 8.005 0 0 0-5.129 7.434v36.687l-21.656 21.657zm141.136 96.285L192.48 229.56l-18.792-15.645a7.924 7.924 0 0 0 2.792-5.953v-10.402a54.356 54.356 0 0 0 32 0v10.402a7.887 7.887 0 0 0 2.793 5.941zm85.207 54.7v35.359h-24v-48h-16v48h-128v-48h-16v48h-24V268.6c.06-18.015 12.102-33.792 29.465-38.601l37.735-10.266 31.68 26.403a8.008 8.008 0 0 0 10.242 0l31.68-26.403 37.71 10.258c17.371 4.805 29.422 20.586 29.488 38.61zm-64-124.641a40 40 0 1 1-60.063 34.55 37.782 37.782 0 0 1-8.226-6.312 39.43 39.43 0 0 1-11.71-28.238v-8.586a124.75 124.75 0 0 0 40 8.586 124.75 124.75 0 0 0 40-8.586zm8-29.09a137.273 137.273 0 0 1-48 13.09 137.62 137.62 0 0 1-48-13.098v-36.8l45.13 17.363a8.08 8.08 0 0 0 5.742 0L240.48 78.07zm-48-98.344l81.711 31.434-81.71 31.43-81.711-31.43zm0 0M372.145 415.07a7.995 7.995 0 0 0 4.109-8.996 7.998 7.998 0 0 0-7.774-6.113h-29.648a28.213 28.213 0 0 1-10.352-24 27.203 27.203 0 0 1 11.665-24.89 7.995 7.995 0 0 0 4.109-8.997 7.998 7.998 0 0 0-7.774-6.113h-288c-22.09 0-40 17.906-40 40 0 22.09 17.91 40 40 40h.207a39.579 39.579 0 0 0-8.207 24c.028 22.078 17.918 39.973 40 40h288a7.999 7.999 0 0 0 7.704-6.074 8.093 8.093 0 0 0-4-9.032 27.15 27.15 0 0 1-11.704-24.894 27.203 27.203 0 0 1 11.665-24.89zm-59.083-47.11H104.48v16h208.582a46.684 46.684 0 0 0 5.176 16H88.48v-48h229.758a46.63 46.63 0 0 0-5.176 16zm-240.582 32h-8v-48h8zm32 16v48h-8v-48zm-80-40c0-13.253 10.747-24 24-24v48c-13.253 0-24-10.745-24-24zm32 64c0-13.253 10.747-24 24-24v48c-13.253 0-24-10.745-24-24zm64 24v-48h229.758a46.63 46.63 0 0 0-5.175 16H136.48v16h208.583a46.684 46.684 0 0 0 5.175 16zm0 0M.48 231.96h32v16h-32zm0 0M4.945 281.93l30.918-8.285 4.14 15.457-30.917 8.285zm0 0M344.957 289.09l4.137-15.453 30.918 8.281-4.137 15.457zm0 0M352.48 231.96h32v16h-32zm0 0M345.031 190.734l30.918-8.289 4.145 15.457-30.918 8.29zm0 0M327.04 153.031l27.714-16.004 8 13.86-27.715 16zm0 0"/>
    <path d="M299.973 121.168l22.625-22.629 11.312 11.313-22.625 22.628zm0 0M22.203 150.883l8-13.856 27.715 16-8 13.86zm0 0M4.984 198.04l4.141-15.458 30.922 8.29-4.145 15.456zm0 0"/>
</svg>