<svg xmlns="http://www.w3.org/2000/svg" width="103" height="103" fill="none"><path fill="#EF4C4C" d="M96.133 0H51.5v3.433h44.633a3.434 3.434 0 0 1 3.434 3.434v89.266a3.434 3.434 0 0 1-3.434 3.434H61.8V103h34.333A6.867 6.867 0 0 0 103 96.133V6.867A6.867 6.867 0 0 0 96.133 0z"/><path fill="#EF4C4C" d="M72.1 10.3a15.461 15.461 0 0 0-11.587 5.23l2.575 2.274a12.017 12.017 0 1 1 3.004 18.356l-1.717 2.971A15.45 15.45 0 1 0 72.1 10.3z"/><path fill="#EF4C4C" d="M72.1 34.333a8.584 8.584 0 1 0-8.583-8.583 8.593 8.593 0 0 0 8.583 8.583zm0-13.733a5.15 5.15 0 1 1 0 10.3 5.15 5.15 0 0 1 0-10.3zM72.1 46.35a23.934 23.934 0 0 0-23.39 18.488l3.34.79a20.601 20.601 0 0 1 38.775-3.815 20.599 20.599 0 0 1-4.535 23.5 20.599 20.599 0 0 1-23.698 3.351l-1.585 3.044A24.033 24.033 0 1 0 72.1 46.35z"/><path fill="#EF4C4C" d="M72.1 84.117a13.707 13.707 0 0 1-9.156-3.497l-2.29 2.558a17.167 17.167 0 1 0-5.296-16.608l3.348.76c1.598-7.007 8.327-11.597 15.433-10.527 7.107 1.07 12.186 7.437 11.652 14.603-.536 7.167-6.506 12.709-13.692 12.71zM92.7 6.867h3.433V10.3H92.7V6.867zM48.066 92.7H51.5v3.433h-3.434V92.7zM92.7 92.7h3.433v3.433H92.7V92.7z"/><path fill="#EF4C4C" d="M5.15 103h48.067a5.15 5.15 0 0 0 5.15-5.15V73.817a5.15 5.15 0 0 0-5.15-5.15H42.362l-3-7.506a1.717 1.717 0 0 0-1.595-1.078H20.6c-.702 0-1.334.427-1.595 1.078l-3 7.506H5.15A5.15 5.15 0 0 0 0 73.817V97.85A5.15 5.15 0 0 0 5.15 103zM3.433 73.817c0-.948.769-1.717 1.717-1.717h12.017c.702 0 1.333-.427 1.595-1.078l3-7.505h14.843l3 7.505A1.717 1.717 0 0 0 41.2 72.1h12.017c.948 0 1.716.769 1.716 1.717V97.85c0 .948-.768 1.717-1.716 1.717H5.15a1.717 1.717 0 0 1-1.717-1.717V73.817z"/><path fill="#EF4C4C" d="M29.184 96.133c6.637 0 12.016-5.38 12.016-12.016 0-6.637-5.38-12.017-12.016-12.017-6.637 0-12.017 5.38-12.017 12.017.007 6.633 5.383 12.009 12.017 12.016zm0-20.6a8.584 8.584 0 1 1-8.584 8.584 8.593 8.593 0 0 1 8.584-8.584zM8.583 75.533h3.433v3.434H8.583v-3.434zM44.634 75.533H51.5v3.434h-6.867v-3.434zM1.717 41.2h5.287a12.017 12.017 0 0 0 10.163 10.162v.138a5.15 5.15 0 0 0 10.3 0V27.467a5.15 5.15 0 0 0-10.3 0v.137c-2.61.375-5.024 1.6-6.867 3.485V30.9c0-11.377 9.223-20.6 20.6-20.6s20.6 9.223 20.6 20.6v.189a11.985 11.985 0 0 0-6.867-3.485v-.137a5.15 5.15 0 0 0-10.3 0V51.5a5.15 5.15 0 0 0 10.3 0v-.138A12.017 12.017 0 0 0 54.796 41.2h5.287c.948 0 1.717-.769 1.717-1.717V30.9C61.8 13.835 47.965 0 30.9 0 13.835 0 0 13.835 0 30.9v8.583c0 .948.769 1.717 1.717 1.717zM20.6 49.783V27.467a1.717 1.717 0 0 1 3.433 0V51.5a1.717 1.717 0 0 1-3.433 0v-1.717zm20.6-20.6V51.5a1.717 1.717 0 0 1-3.433 0V27.467a1.717 1.717 0 1 1 3.433 0v1.716zm3.433 18.712V31.072a8.583 8.583 0 0 1 0 16.823zM17.167 31.072v16.823a8.582 8.582 0 0 1 0-16.823zM3.433 30.9c0-15.17 12.298-27.467 27.467-27.467 15.17 0 27.467 12.298 27.467 27.467v6.867h-3.434V30.9c0-13.273-10.76-24.033-24.033-24.033-13.273 0-24.033 10.76-24.033 24.033v6.867H3.433V30.9z"/></svg>