<svg xmlns="http://www.w3.org/2000/svg" width="101" height="100" fill="none"><path fill="#EF4C4C" d="M74.21 74.1h-.258l-5.679-3.18 12.587-8.877 6.981 15.832 2.178-4.39a4.74 4.74 0 0 1 2.094-2.11 4.675 4.675 0 0 1 2.093-.496h4.407l-9.757-18.023a5.544 5.544 0 0 0-4.877-2.919 5.52 5.52 0 0 0-4.97 3.097l-.218.438-19.577 7.046-.888-4.023a14.585 14.585 0 0 0-3.89-7.144 14.476 14.476 0 0 0-2.36-1.902c2.295-1.23 3.878-3.633 3.878-6.428 0-1.95-.755-3.787-2.125-5.166L36.357 18.248c-.55-.554-1.186-.978-1.86-1.322a4.79 4.79 0 0 0 .674-2.428c0-2.664-2.152-4.833-4.796-4.833s-4.796 2.169-4.796 4.833c0 .095.022.184.027.279l-2.486-4.51c-1.021-1.853-2.615-3.351-4.495-4.299L17.258 0H7.582l1.37 5.986C5.496 7.761 3.198 11.391 3.198 15.4c0 1.791.457 3.567 1.32 5.132l1.998 3.622a4.26 4.26 0 0 0-1.719 3.43v.35c0 2.362 1.907 4.284 4.25 4.284.576 0 1.14-.116 1.676-.347l.782-.336a10.398 10.398 0 0 0 4.551 2.095 17.085 17.085 0 0 0 4.923 10.727l2.34 2.359-4.933 4.97-3.997-4.026-8.655 8.721 3.197 3.222-4.796 4.833 8.655 8.72 4.796-4.832 3.198 3.222 8.655-8.721-3.997-4.028 4.894-4.93L50.189 75.3a12.95 12.95 0 0 0 6.946 3.903l12.924 2.603-3.525 17.759 3.976-2.003c2.364-1.192 5.293-1.192 7.656 0l3.367 1.697V81.48c0-.794-.127-1.578-.376-2.334a7.32 7.32 0 0 0-6.948-5.045zm9.769-20.94c.865 0 1.658.475 2.07 1.238l7.208 13.319a7.841 7.841 0 0 0-5.142 2.846l-5.092-11.542-1.366-4.127.208-.42a2.35 2.35 0 0 1 2.114-1.315zm-5.044 3.68l.705 2.131-14.473 10.21-4.61-2.58-.643-2.915 19.02-6.846zM52.756 41.021c0 2.25-1.819 4.084-4.054 4.084h-1.678L32.635 30.607l5.733-5.777 13.2 13.303a4.075 4.075 0 0 1 1.188 2.888zm-21.524-21.69c1.084 0 2.1.425 2.866 1.195l2.01 2.026-5.733 5.777-.429-.432-.434-.512h-.072l-1.075-1.082a4.075 4.075 0 0 1-1.188-2.889c0-2.25 1.82-4.083 4.055-4.083zm-.857-6.444c.88 0 1.599.722 1.599 1.611 0 .89-.718 1.61-1.6 1.61-.88 0-1.598-.72-1.598-1.61 0-.89.718-1.61 1.599-1.61zM9.704 9.264l2.818 12.306-3.088 1.245-2.122-3.847a7.401 7.401 0 0 1-.917-3.568c0-2.51 1.298-4.8 3.309-6.136zm-1.71 18.67v-.35c0-.437.26-.824.663-.985l7.597-3.062L11.6 3.222h3.115l4.403 19.23c.043.189.065.382.065.576a2.55 2.55 0 0 1-1.536 2.348l-8.18 3.533c-.679.284-1.475-.245-1.475-.975zm10.912.403a5.771 5.771 0 0 0 3.476-5.31c0-.436-.05-.873-.148-1.3L19.78 11.007c.196.264.387.534.547.824l4.332 7.858c.062.113.121.227.177.343l.01-.005c-.534 1.019-.865 2.16-.865 3.388 0 1.146.288 2.236.78 3.233a7.267 7.267 0 0 1-6.471 3.96h-.27a7.224 7.224 0 0 1-2.911-.63l3.798-1.64zm4.332 13.741a13.874 13.874 0 0 1-3.963-8.317 10.377 10.377 0 0 0 3.142-.785 5.218 5.218 0 0 0 1.095 2.839l4.722 5.947-2.655 2.676-2.34-2.36zm-3.53 12.83l12.81-12.906-6.51-8.2a1.975 1.975 0 0 1-.43-1.228c0-1.084.877-1.967 1.953-1.967h.51l8.13 9.559a2.513 2.513 0 0 1-.127 3.394l-13.8 13.905c-.339.34-.788.527-1.268.527-.988 0-1.792-.81-1.792-1.806 0-.475.192-.94.524-1.277zM12.79 68.602l-4.134-4.165 2.536-2.555 4.134 4.165-2.536 2.555zm7.994-1.61l-10.53-10.61 4.135-4.166 1.998 2.014a5.092 5.092 0 0 0-.4 1.957c0 2.773 2.239 5.028 4.99 5.028a4.94 4.94 0 0 0 1.946-.4l1.995 2.01-4.134 4.166zm17.521-21.155c.908-.915 1.446-2.09 1.596-3.354l4.201 4.234-8.284 8.347-3.22-3.476 5.707-5.75zm17 29.359a9.751 9.751 0 0 1-2.778-2.093L38.001 57.42l8.792-8.86.979.329a11.302 11.302 0 0 1 7.434 8.304l2.54 11.521 13.856 7.755-.733 2.216-13.105-2.642a9.654 9.654 0 0 1-2.46-.848zm23.031 18.942a11.801 11.801 0 0 0-7.424-.19l2.577-12.99 1.19-3.597a4.122 4.122 0 0 1 3.445 2.803c.142.427.212.87.212 1.317v12.657z"/><path fill="#EF4C4C" d="M41.483 86.517a7.967 7.967 0 0 0-6.016-2.75h-.296V81.54l3.744-1.887a4.809 4.809 0 0 0 2.65-4.322V70.88h-3.197v4.453c0 .613-.339 1.166-.884 1.441l-2.313 1.165v-10.28h-3.197v8.67L29.66 75.16a1.604 1.604 0 0 1-.884-1.44v-2.842H25.58v2.842a4.812 4.812 0 0 0 2.65 4.323l3.745 1.885v3.837H4.796C2.152 83.766 0 85.934 0 88.6v11.276h63.947v-3.222H50.285l-8.802-10.136zM27.178 96.653v-3.222H23.98v3.222H3.197V88.6c0-.89.718-1.611 1.599-1.611h11.19v3.222h3.198v-3.222h16.283c1.383 0 2.698.6 3.61 1.65l6.959 8.015H27.178zM92.724 96.653v-2.226l3.744-1.886a4.81 4.81 0 0 0 2.65-4.322v-4.453h-3.197v4.453c0 .613-.339 1.166-.884 1.441l-2.313 1.165v-10.28h-3.198v16.108h-4.795v3.222h15.986v-3.222h-7.993z"/><path fill="#EF4C4C" d="M9.592 90.21H6.395v3.222h3.197V90.21zM35.171 90.21h-3.197v3.222h3.197V90.21zM71.94 49.938c2.645 0 4.797-2.169 4.797-4.833 0-2.665-2.152-4.833-4.796-4.833-2.645 0-4.797 2.168-4.797 4.833 0 2.664 2.152 4.833 4.797 4.833zm0-6.444c.882 0 1.6.722 1.6 1.61 0 .89-.719 1.612-1.6 1.612-.88 0-1.598-.722-1.598-1.611 0-.89.718-1.611 1.599-1.611zM73.54 33.829h-3.198v3.221h3.197V33.83zM73.54 27.385h-3.198v3.222h3.197v-3.222zM49.559 22.552c2.644 0 4.796-2.168 4.796-4.832 0-2.665-2.152-4.833-4.796-4.833-2.645 0-4.796 2.168-4.796 4.833 0 2.664 2.151 4.832 4.796 4.832zm0-6.443c.88 0 1.598.721 1.598 1.61 0 .89-.717 1.612-1.598 1.612-.881 0-1.599-.722-1.599-1.611 0-.89.718-1.611 1.599-1.611zM51.158 6.444h-3.197v3.221h3.197V6.444zM51.158 0h-3.197v3.222h3.197V0zM94.322 22.552c2.645 0 4.796-2.168 4.796-4.832 0-2.665-2.151-4.833-4.796-4.833-2.644 0-4.796 2.168-4.796 4.833 0 2.664 2.152 4.832 4.796 4.832zm0-6.443c.881 0 1.6.721 1.6 1.61 0 .89-.719 1.612-1.6 1.612-.88 0-1.598-.722-1.598-1.611 0-.89.718-1.611 1.598-1.611zM95.921 6.444h-3.197v3.221h3.197V6.444zM95.921 0h-3.197v3.222h3.197V0z"/></svg>