<svg xmlns="http://www.w3.org/2000/svg" viewBox="0 0 512 512.009">
    <path d="M153.61 469.336c.464 24.004 20.28 43.094 44.285 42.668H314.12c24.004.426 43.82-18.664 44.285-42.668v-16.648c102.188-52.989 146.707-175.454 102.403-281.696l9.445-9.18a25.046 25.046 0 0 0-13.91-42.746l-39.055-5.664a8.017 8.017 0 0 1-6.05-4.379l-17.485-35.328a24.964 24.964 0 0 0-22.547-13.96 25.236 25.236 0 0 0-8.898 1.706c-66.207-36.351-146.395-36.351-212.602 0a25.236 25.236 0 0 0-8.898-1.707 24.957 24.957 0 0 0-22.512 13.961l-17.484 35.32a8.01 8.01 0 0 1-6.051 4.387l-39.11 5.664a25.05 25.05 0 0 0-20.261 17.051 25.043 25.043 0 0 0 6.363 25.703l9.453 9.172C6.902 277.234 51.422 399.7 153.609 452.688zm44.285-153.602h15.445v17.067a8.612 8.612 0 0 1-8.653 8.535h-25.789a8.54 8.54 0 0 1-7.68-4.957c2.938-12.297 14.04-20.887 26.677-20.645zm41.046 0h42.668v17.067a8.536 8.536 0 0 1-8.535 8.535h-34.133a8.534 8.534 0 0 1-8.535-8.535v-17.067zm68.387 0h6.824c12.645-.25 23.758 8.34 26.696 20.645a8.541 8.541 0 0 1-7.684 4.957h-25.836c-4.742.023-8.613-3.793-8.652-8.535v-17.067zm-55.281 111.43a82.3 82.3 0 0 0-38.707-9.027c-15-.34-29.79 3.57-42.664 11.273v-72.406a25.512 25.512 0 0 0 8.222 1.398h25.79a25.601 25.601 0 0 0 17.187-6.672 25.405 25.405 0 0 0 17.066 6.672h34.133a25.405 25.405 0 0 0 17.067-6.672 25.601 25.601 0 0 0 17.187 6.672h25.785c2.801-.011 5.582-.484 8.227-1.398v66.703a68.402 68.402 0 0 0-42.664-14.105 67.474 67.474 0 0 0-46.63 17.562zm89.293 42.172c-.465 14.578-12.64 26.031-27.219 25.601H197.895c-14.579.43-26.758-11.023-27.22-25.601v-12.8a9.627 9.627 0 0 1 1.141-4.368c3.977-8.434 19.536-16.965 41.524-16.965a61.704 61.704 0 0 1 34.414 9.266c.285.265.586.515.898.742a15.516 15.516 0 0 1 7.356 11.324 8.533 8.533 0 1 0 17.066 0 28.556 28.556 0 0 0-7.398-18.715 51.087 51.087 0 0 1 33-11.152c20.113 0 37.699 10.07 41.812 23.824.563 1.965.852 4 .852 6.043zm37.086-388.07l17.484 35.328a25.117 25.117 0 0 0 18.895 13.703l39.097 5.66a7.977 7.977 0 0 1 4.473 13.652l-28.29 27.47a25.05 25.05 0 0 0-7.218 22.187l6.676 38.832a7.76 7.76 0 0 1-3.168 7.785 7.904 7.904 0 0 1-8.531.629l-34.989-18.336a25.191 25.191 0 0 0-23.347 0l-34.985 18.336a7.957 7.957 0 0 1-8.535-.63 7.76 7.76 0 0 1-3.164-7.792l6.672-38.824a25.052 25.052 0 0 0-7.226-22.188l-28.29-27.488a7.978 7.978 0 0 1 4.461-13.653l39.102-5.656a25.116 25.116 0 0 0 18.918-13.687l17.484-35.328a8.32 8.32 0 0 1 14.48 0zM51.602 141.41a7.885 7.885 0 0 1 6.5-5.453l39.101-5.66a25.11 25.11 0 0 0 18.89-13.703l17.485-35.328a8.32 8.32 0 0 1 7.223-4.184 8.319 8.319 0 0 1 7.219 4.184l17.484 35.328a25.117 25.117 0 0 0 18.89 13.703l39.102 5.66a7.982 7.982 0 0 1 6.52 5.422 7.99 7.99 0 0 1-2.047 8.23l-28.282 27.47a25.05 25.05 0 0 0-7.218 22.187l6.672 38.832a7.75 7.75 0 0 1-3.164 7.785 7.91 7.91 0 0 1-8.536.629l-34.984-18.336a25.191 25.191 0 0 0-23.348 0l-34.988 18.336a7.95 7.95 0 0 1-8.531-.63 7.754 7.754 0 0 1-3.168-7.792l6.672-38.824a25.042 25.042 0 0 0-7.227-22.188l-28.219-27.496a7.83 7.83 0 0 1-2.039-8.172zm-.395 114.594a202.676 202.676 0 0 1 13.191-72.176l5.641 5.485a7.992 7.992 0 0 1 2.313 7.058L65.715 235.2a25.094 25.094 0 0 0 9.976 24.551 25.098 25.098 0 0 0 26.434 1.902l34.988-18.332a8.035 8.035 0 0 1 7.5 0l34.989 18.332a25.088 25.088 0 0 0 36.41-26.453l-6.68-38.828a8.024 8.024 0 0 1 2.3-7.059l28.305-27.5a25.038 25.038 0 0 0 6.352-25.703 25.042 25.042 0 0 0-20.258-17.043l-39.144-5.664a8.023 8.023 0 0 1-6.051-4.379l-17.484-35.328-.102-.18c58.285-29.75 127.3-29.75 185.582 0l-.102.18-17.484 35.32a8.01 8.01 0 0 1-6.05 4.387l-39.11 5.664a25.05 25.05 0 0 0-20.262 17.051 25.043 25.043 0 0 0 6.363 25.703l28.29 27.493a8.003 8.003 0 0 1 2.312 7.058l-6.684 38.828a25.088 25.088 0 0 0 36.41 26.453l34.989-18.332a8.035 8.035 0 0 1 7.5 0l34.988 18.332a25.098 25.098 0 0 0 26.434-1.902 25.094 25.094 0 0 0 9.976-24.55l-6.68-38.829a8.016 8.016 0 0 1 2.305-7.059l5.649-5.484c35.41 93.813-2.387 199.465-89.27 249.531v-92.023c0-.965-.23-1.867-.297-2.824 0-.121.086-.23.11-.352a8.285 8.285 0 0 0-.692-5.187c-4.289-18.93-20.547-32.762-39.918-33.961a7.924 7.924 0 0 0-1.707-.344H196.094a7.972 7.972 0 0 0-1.707.344c-19.371 1.199-35.637 15.031-39.926 33.96a8.285 8.285 0 0 0-.691 5.188c0 .121.078.23.109.352-.067.957-.297 1.86-.297 2.824v92.023C89.996 397.004 50.887 329.25 51.207 256.004zm0 0"/>
    <path d="M511.309 37.79a13.28 13.28 0 0 0-10.598-8.927l-19.328-2.96-8.52-18.22a13.3 13.3 0 0 0-24.113 0l-8.535 18.22-19.317 2.96a13.337 13.337 0 0 0-7.535 22.477l14.422 14.828-3.414 20.754a13.314 13.314 0 0 0 5.48 13.058 13.32 13.32 0 0 0 14.145.743l16.813-9.32 16.785 9.292a13.31 13.31 0 0 0 19.625-13.805l-3.371-20.745 14.422-14.832a13.315 13.315 0 0 0 3.039-13.524zm-31.047 17.843a13.411 13.411 0 0 0-3.59 11.433l2.441 14.977-11.847-6.57a13.21 13.21 0 0 0-12.91 0l-11.852 6.578 2.441-14.969a13.395 13.395 0 0 0-3.601-11.441L430.66 44.633l14.149-2.168a13.297 13.297 0 0 0 10.027-7.528l5.973-12.75 5.972 12.727a13.323 13.323 0 0 0 10.051 7.543l14.148 2.168zm0 0M20.316 99.969a13.22 13.22 0 0 0 14.106.754l16.785-9.32 16.785 9.292a13.314 13.314 0 0 0 19.63-13.804l-3.407-20.723L98.637 51.34a13.338 13.338 0 0 0-7.528-22.477l-19.328-2.96-8.515-18.22a13.306 13.306 0 0 0-24.117 0l-8.532 18.22-19.32 2.96a13.33 13.33 0 0 0-10.602 8.95A13.325 13.325 0 0 0 3.781 51.34L18.2 66.168l-3.41 20.754a13.25 13.25 0 0 0 5.527 13.047zm14.891-57.504a13.29 13.29 0 0 0 10.027-7.528l5.973-12.75 5.973 12.727a13.322 13.322 0 0 0 10.054 7.543l14.149 2.168-10.719 11.008a13.402 13.402 0 0 0-3.594 11.433l2.442 14.977-11.844-6.57a13.21 13.21 0 0 0-12.91 0L32.902 82.05l2.442-14.977a13.383 13.383 0 0 0-3.602-11.441l-10.683-11zm0 0"/>
</svg>