<svg xmlns="http://www.w3.org/2000/svg" width="103" height="102" fill="none"><path fill="#EF4C4C" d="M68.502 93.412a50.51 50.51 0 0 1-15.53-2.435c3.166-4.718 4.416-10.557 3.43-16.153a2.006 2.006 0 0 0-2.322-1.62 1.992 1.992 0 0 0-1.632 2.306 18.23 18.23 0 0 1-3.194 13.8l-.17.236a50.88 50.88 0 0 1-2.663-1.202l2.784-8.77c.858-2.7-.11-5.663-2.406-7.375-6.417-4.782-10.93-11.32-13.082-18.694a1.941 1.941 0 0 0-.103-.358 35.864 35.864 0 0 1-1.329-9.565c-.034-8.892-7.26-16.14-16.111-16.157h-.032a16.098 16.098 0 0 0-11.403 4.681C1.683 35.134 0 39.16 0 43.445c0 9.175 1.811 18.08 5.384 26.47a67.93 67.93 0 0 0 2.747 5.697 67.767 67.767 0 0 0 11.924 15.91c.025.025.05.05.077.072l2.539 2.266a8.989 8.989 0 0 0 5.986 2.275c.959 0 1.925-.154 2.86-.467l12.286-4.124c.787.398 1.583.777 2.387 1.136a22.795 22.795 0 0 1-10.812 5.069l-1.707.295a1.994 1.994 0 0 0-1.632 2.306 2.004 2.004 0 0 0 2.322 1.619l1.708-.296a26.811 26.811 0 0 0 14.243-7.353A54.858 54.858 0 0 0 68.5 97.397a2 2 0 0 0 2.008-1.992 2 2 0 0 0-2.007-1.993zM44.387 75.385c.938.7 1.336 1.901.99 2.992l-2.552 8.034A50.51 50.51 0 0 1 24.45 67.623a28.828 28.828 0 0 0 7.092-8.412c.357.818.74 1.629 1.154 2.43a40.464 40.464 0 0 0 11.691 13.744zM7.575 34.927a12.09 12.09 0 0 1 8.567-3.517h.024c6.65.012 12.079 5.48 12.104 12.187.013 3.494.473 6.9 1.365 10.196a24.794 24.794 0 0 1-7.041 10.173 49.358 49.358 0 0 1-4.444-20.521 2 2 0 0 0-2.008-1.992 2 2 0 0 0-2.007 1.992c0 2.217.135 4.412.398 6.579A26.7 26.7 0 0 1 4.13 47.239a64.868 64.868 0 0 1-.115-3.794c0-3.22 1.264-6.244 3.56-8.518zM4.561 51.81a30.821 30.821 0 0 0 10.614 2.23 53.15 53.15 0 0 0 9.387 21.21 64.462 64.462 0 0 1-13.303-2.297A63.095 63.095 0 0 1 4.56 51.81zm25.67 40.084a4.965 4.965 0 0 1-4.876-.997l-2.5-2.23a64.084 64.084 0 0 1-8.809-10.904 68.574 68.574 0 0 0 13.88 1.608 54.634 54.634 0 0 0 11.235 9.524l-8.93 3zM88.83 24.378a2 2 0 0 0 1.684.912c.371 0 .747-.102 1.083-.316a1.988 1.988 0 0 0 .61-2.752l-.012-.019a2.012 2.012 0 0 0-2.767-.596 1.988 1.988 0 0 0-.597 2.771z"/><path fill="#EF4C4C" d="M97.4 32.083a67.267 67.267 0 0 0-1.199-2.655 2.015 2.015 0 0 0-2.673-.948 1.986 1.986 0 0 0-.955 2.654 63.237 63.237 0 0 1 4.816 14.189 29.472 29.472 0 0 0-11.83-4.792c-2.664-7.491-7-14.356-12.824-20.136a54.674 54.674 0 0 0-9.112-7.292l8.93-2.998a4.962 4.962 0 0 1 4.876.996l2.5 2.23a65.09 65.09 0 0 1 4.328 4.75 2.019 2.019 0 0 0 2.825.282 1.983 1.983 0 0 0 .283-2.804 69.134 69.134 0 0 0-4.636-5.082 1.645 1.645 0 0 0-.077-.073L80.113 8.14a9.004 9.004 0 0 0-8.846-1.808l-12.285 4.124a54.285 54.285 0 0 0-2.387-1.136A22.784 22.784 0 0 1 67.406 4.25l1.708-.297a1.995 1.995 0 0 0 1.632-2.305A2.007 2.007 0 0 0 68.423.03l-1.709.296a26.818 26.818 0 0 0-14.242 7.352 54.878 54.878 0 0 0-18.19-3.075 2 2 0 0 0-2.007 1.992 2 2 0 0 0 2.008 1.992c5.486 0 10.77.879 15.717 2.496a27.93 27.93 0 0 0-3.643 15.885 2 2 0 0 0 2.14 1.852 1.997 1.997 0 0 0 1.865-2.124A24.017 24.017 0 0 1 53.816 12.5a50.32 50.32 0 0 1 2.547 1.155l-2.394 7.54c-1.06 3.342.082 7.055 2.846 9.241 5.792 4.58 9.939 10.665 12.063 17.466a35.697 35.697 0 0 1 1.62 10.515c.035 8.891 7.263 16.14 16.112 16.157h.032a16.1 16.1 0 0 0 11.404-4.682c3.056-3.026 4.739-7.053 4.739-11.338 0-9.175-1.812-18.081-5.385-26.472zm-38.083-4.762a4.559 4.559 0 0 1-1.519-4.927l2.161-6.805c8.018 4.736 14.604 11.617 18.948 19.842a21.779 21.779 0 0 0-7.792 7.046c-2.59-5.837-6.596-11.043-11.798-15.156zM95.21 67.073a12.096 12.096 0 0 1-8.568 3.516h-.024c-6.65-.012-12.079-5.48-12.104-12.188a39.687 39.687 0 0 0-1.573-10.932c1.54-3.573 4.28-6.558 7.693-8.43a49.359 49.359 0 0 1 4 19.515 2 2 0 0 0 2.008 1.992 2 2 0 0 0 2.008-1.992c0-4.678-.599-9.264-1.753-13.674a25.349 25.349 0 0 1 11.457 6.387c.274 2.405.416 4.835.416 7.287 0 3.22-1.265 6.245-3.56 8.519z"/></svg>