<svg xmlns="http://www.w3.org/2000/svg" width="139" height="153" fill="none"><path fill="#EF4C4C" d="M69.34 116.162a2.893 2.893 0 0 0 3.847-1.392l28.327-60.46 1.575.732a2.57 2.57 0 0 0 3.641-2.614l-5.013-45.175a2.57 2.57 0 0 0-3.975-1.86L59.777 30.552a2.572 2.572 0 0 0 .335 4.474l1.566.729-28.241 60.274a2.893 2.893 0 0 0 1.386 3.843l9.163 4.324-18.685 39.666a2.57 2.57 0 0 0 1.232 3.421l11.631 5.473a2.57 2.57 0 0 0 3.42-1.232l18.676-39.647 9.08 4.286zm.148-5.616l-20.33-9.595 25.623-1.703-5.293 11.298zm-11.9-53.944l38.419-2.655-4.558 9.727-38.494 2.813 4.632-9.885zm-7.136 15.223l38.495-2.813-4.54 9.696-38.477 2.775 4.522-9.658zm46.62-59.82l4.043 36.446-34.671-16.15L97.07 12.006zm-6.582 37.17l-30.408 2.1 6.256-13.35 24.152 11.25zM43.429 86.818l38.476-2.776-4.632 9.886-37.686 2.507-.544-.257 4.386-9.36zm-5.403 60.19l-6.978-3.284 17.587-37.334 6.973 3.292-17.582 37.326zM58.92 6.694l2.772 1.71-1.71 2.774a2.572 2.572 0 0 0 2.103 3.957 2.573 2.573 0 0 0 2.27-1.258l1.712-2.772 2.773 1.711a2.57 2.57 0 0 0 2.699-4.376l-2.772-1.71 1.71-2.774a2.57 2.57 0 1 0-4.375-2.699L64.391 4.03l-2.773-1.71a2.57 2.57 0 0 0-2.699 4.375zM127.085 82.334l-3.249.245-.245-3.249a2.57 2.57 0 0 0-5.128.387l.245 3.249-3.247.244a2.57 2.57 0 1 0 .386 5.127l3.249-.245.245 3.249a2.571 2.571 0 0 0 5.128-.387l-.246-3.248 3.248-.246a2.57 2.57 0 0 0 1.954-4.022 2.572 2.572 0 0 0-2.339-1.105l-.001.001zM35.82 18.84l3.253.163-.163 3.254a2.572 2.572 0 0 0 5.135.259l.163-3.254 3.254.163a2.572 2.572 0 0 0 2.703-2.503 2.571 2.571 0 0 0-2.442-2.631l-3.254-.164.163-3.254a2.571 2.571 0 0 0-5.135-.257l-.164 3.253-3.254-.163a2.571 2.571 0 0 0-.259 5.135zM17.17 84.374a2.571 2.571 0 0 0 3.596-.536l1.938-2.62 2.619 1.94a2.572 2.572 0 0 0 3.059-4.133l-2.619-1.938 1.94-2.618a2.572 2.572 0 0 0-4.133-3.06l-1.94 2.618-2.616-1.939a2.571 2.571 0 0 0-3.06 4.133l2.618 1.938-1.939 2.619a2.571 2.571 0 0 0 .536 3.596zM107.887 119.247a2.567 2.567 0 0 0 1.023-2.513l-.977-5.698 4.139-4.035a2.57 2.57 0 0 0-1.425-4.385l-5.72-.831-2.558-5.183a2.57 2.57 0 0 0-4.611 0l-2.558 5.184-5.72.831a2.572 2.572 0 0 0-1.425 4.385l4.14 4.036-.978 5.697a2.572 2.572 0 0 0 3.73 2.709l5.117-2.69 5.116 2.69a2.567 2.567 0 0 0 2.707-.197zm-4.51-10.95a2.571 2.571 0 0 0-.74 2.276l.325 1.896-1.703-.895a2.575 2.575 0 0 0-2.393 0l-1.703.895.326-1.896a2.574 2.574 0 0 0-.74-2.276l-1.376-1.343 1.903-.276a2.575 2.575 0 0 0 1.936-1.406l.851-1.725.851 1.725a2.572 2.572 0 0 0 1.935 1.406l1.903.276-1.375 1.343zM7.1 42.38l-1.492 8.704a2.571 2.571 0 0 0 3.73 2.71l7.816-4.11 7.816 4.11a2.571 2.571 0 0 0 3.73-2.71l-1.492-8.703 6.323-6.165a2.57 2.57 0 0 0-1.425-4.385l-8.74-1.269-3.907-7.92a2.572 2.572 0 0 0-4.611 0l-3.908 7.919-8.739 1.27a2.57 2.57 0 0 0-1.425 4.385L7.1 42.379zm5.917-6.925a2.57 2.57 0 0 0 1.935-1.407l2.202-4.459 2.2 4.46a2.57 2.57 0 0 0 1.936 1.406l4.92.715-3.56 3.47a2.574 2.574 0 0 0-.738 2.276l.84 4.902-4.403-2.315a2.575 2.575 0 0 0-2.393 0l-4.402 2.315.84-4.902a2.574 2.574 0 0 0-.738-2.276l-3.561-3.47 4.922-.715zM135.89 42.25l-7.128-1.035-3.187-6.46a2.57 2.57 0 0 0-4.611 0l-3.187 6.46-7.129 1.035a2.571 2.571 0 0 0-1.425 4.385l5.158 5.027-1.217 7.1a2.571 2.571 0 0 0 3.731 2.71l6.374-3.352 6.376 3.351a2.57 2.57 0 0 0 3.73-2.71l-1.217-7.099 5.156-5.027a2.57 2.57 0 0 0-1.424-4.385zm-8.289 6.673a2.57 2.57 0 0 0-.739 2.276l.564 3.298-2.96-1.558a2.574 2.574 0 0 0-2.392 0l-2.961 1.558.566-3.298a2.576 2.576 0 0 0-.74-2.276l-2.395-2.334 3.309-.483a2.574 2.574 0 0 0 1.937-1.406l1.48-3 1.48 3a2.574 2.574 0 0 0 1.936 1.406l3.31.483-2.395 2.334zM22.79 123.461l4.8-4.677a2.57 2.57 0 0 0-1.425-4.385l-6.632-.964-2.966-6.01a2.573 2.573 0 0 0-4.61 0l-2.967 6.01-6.632.964a2.572 2.572 0 0 0-1.423 4.385l4.797 4.677-1.132 6.606a2.57 2.57 0 0 0 3.73 2.71l5.932-3.117 5.931 3.117a2.572 2.572 0 0 0 3.73-2.71l-1.132-6.606zm-4.556-2.737a2.568 2.568 0 0 0-.74 2.275l.483 2.802-2.517-1.323a2.575 2.575 0 0 0-2.393 0l-2.517 1.323.482-2.802a2.572 2.572 0 0 0-.74-2.275l-2.036-1.986 2.815-.408a2.568 2.568 0 0 0 1.935-1.408l1.259-2.549 1.259 2.549a2.57 2.57 0 0 0 1.935 1.408l2.815.408-2.04 1.986zM119.662 17.172l3.141.869-.868 3.14a2.571 2.571 0 1 0 4.958 1.368l.867-3.141 3.141.867a2.569 2.569 0 0 0 3.179-3.126 2.567 2.567 0 0 0-1.812-1.83l-3.141-.869.867-3.14a2.57 2.57 0 1 0-4.955-1.367l-.869 3.14-3.141-.868a2.572 2.572 0 1 0-1.367 4.956zM126.393 135.715l-5.72-.831-2.558-5.183a2.571 2.571 0 0 0-4.611 0l-2.558 5.185-5.721.831a2.57 2.57 0 0 0-1.424 4.384l4.14 4.036-.978 5.698a2.57 2.57 0 0 0 3.73 2.709l5.117-2.69 5.117 2.69a2.57 2.57 0 0 0 3.729-2.709l-.977-5.698 4.14-4.036a2.57 2.57 0 0 0-1.426-4.384v-.002zm-7.27 5.682a2.57 2.57 0 0 0-.74 2.276l.325 1.895-1.703-.895a2.576 2.576 0 0 0-2.393 0l-1.703.895.326-1.895a2.57 2.57 0 0 0-.739-2.276l-1.377-1.343 1.903-.276a2.577 2.577 0 0 0 1.936-1.406l.851-1.725.851 1.725a2.572 2.572 0 0 0 1.936 1.406l1.903.276-1.376 1.343zM77.433 135.193a2.569 2.569 0 0 0-3.622-.307l-2.49 2.1-2.101-2.491a2.575 2.575 0 0 0-2.421-.881 2.572 2.572 0 0 0-1.509 4.196l2.1 2.491-2.49 2.1a2.572 2.572 0 1 0 3.315 3.93l2.49-2.1 2.1 2.491a2.574 2.574 0 0 0 2.421.881 2.57 2.57 0 1 0 1.509-4.196l-2.097-2.49 2.49-2.101a2.57 2.57 0 0 0 .305-3.623z"/></svg>