<svg xmlns="http://www.w3.org/2000/svg" width="107" height="107" fill="none"><path fill="#EF4C4C" d="M2.603 66.06c.581.403 1.194.758 1.834 1.06.765.391 2.044 1.045 2.134 1.504.112.603.04 1.226-.207 1.788-.263.565-.54 1.051-.777 1.471-.649 1.142-1.73 3.055-.097 4.39.381.354 1.04.865 1.643 1.326a4.452 4.452 0 0 0-.576 2.55 2.55 2.55 0 0 0 1.037 1.73c.397.283.823.53 1.236.769 1.04.592 1.445.867 1.59 1.413.095.719.029 1.45-.194 2.14-.104.459-.205.917-.27 1.387-.175 1.61.03 3.24.597 4.759a6.62 6.62 0 0 0 6.26 4.823 7.186 7.186 0 0 0 1.443-.152 133.943 133.943 0 0 0 14.895-4.457c3.978 2.335 6.494 9.437 7.15 12.103.196.788.903 1.34 1.715 1.339l44.343-.123a1.768 1.768 0 0 0 1.682-2.297 13.655 13.655 0 0 0-1.79-3.357 16.377 16.377 0 0 1-1.144-1.908 33.638 33.638 0 0 1-1.995-5.03 59.542 59.542 0 0 1-2.09-10.451 29.909 29.909 0 0 1 2.322-15.513 39.485 39.485 0 0 1 4.798-7.585c1.06-1.43 2.16-2.913 3.148-4.47a27.327 27.327 0 0 0 3.64-8.603 1.767 1.767 0 0 0-3.442-.799 23.85 23.85 0 0 1-3.18 7.509c-.917 1.45-1.977 2.878-3.003 4.26a42.695 42.695 0 0 0-5.2 8.276 33.422 33.422 0 0 0-2.59 17.349 62.696 62.696 0 0 0 2.228 11.082c.58 1.9 1.314 3.751 2.193 5.534.402.796.86 1.563 1.369 2.296l.118.177-40.072.12a28.173 28.173 0 0 0-6.22-11.282l1.59-.553c1.187-.415 2.083-.728 2.546-.883 7.565-2.412 11.349-5.857 11.245-10.247a1.735 1.735 0 0 0-1.804-1.715 1.767 1.767 0 0 0-1.724 1.807c.042 1.807-1.447 4.454-8.791 6.793-.481.153-1.414.477-2.635.906-1.312.458-2.977 1.04-4.814 1.664h-.012a137.583 137.583 0 0 1-15.183 4.594 3.146 3.146 0 0 1-3.64-2.352 7.066 7.066 0 0 1-.436-3.13c.051-.354.134-.725.216-1.085a7.71 7.71 0 0 0 .176-3.804 5.854 5.854 0 0 0-3.26-3.606l-.38-.217c.19-.387.418-.754.681-1.095a1.767 1.767 0 0 0-.34-2.516 88.596 88.596 0 0 1-2.156-1.65c.085-.154.177-.323.267-.475.277-.488.595-1.06.902-1.709a6.595 6.595 0 0 0 .47-3.952c-.422-2.155-2.487-3.212-3.994-3.982a10.218 10.218 0 0 1-1.456-.846 7.524 7.524 0 0 1-1.06-.859c0-.268.288-.917 1.633-2.554a71.28 71.28 0 0 0 8.082-13.136c.415-.73.65-1.549.682-2.388a6.183 6.183 0 0 0-2.592-4.417c-.715-.657-1.392-1.275-1.468-1.797a3.47 3.47 0 0 1 .287-1.256c.287-.756.621-1.498.954-2.242a25.935 25.935 0 0 0 1.766-4.789c.405-1.98.936-3.932 1.59-5.844a30.29 30.29 0 0 1 6.339-10.355c3.378-3.577 8.696-6.107 15.833-7.524 5.46-1.199 11-1.997 16.575-2.389a38.671 38.671 0 0 1 5.627.12A1.77 1.77 0 0 0 59.175.18a42.975 42.975 0 0 0-6.14-.122A117.923 117.923 0 0 0 35.947 2.51c-7.966 1.59-13.755 4.383-17.706 8.56a33.79 33.79 0 0 0-7.087 11.558 51.639 51.639 0 0 0-1.74 6.385 22.882 22.882 0 0 1-1.516 4.028c-.354.804-.718 1.608-1.036 2.444a6.173 6.173 0 0 0-.48 2.966 6.793 6.793 0 0 0 2.584 3.932c.866.794 1.437 1.352 1.444 1.84a2.996 2.996 0 0 1-.3.766 68.197 68.197 0 0 1-7.732 12.563C1.1 59.112-.243 60.93.038 62.75a5.413 5.413 0 0 0 2.565 3.31z"/><path fill="#EF4C4C" d="M21.097 26.308a23.274 23.274 0 0 1 4.847-7.95c2.355-2.493 6.427-4.329 12.106-5.458a1.767 1.767 0 1 0-.688-3.466c-6.41 1.276-11.116 3.46-13.985 6.491a26.783 26.783 0 0 0-5.596 9.166 44.938 44.938 0 0 0-1.45 5.39l3.45.765a42.22 42.22 0 0 1 1.316-4.938zM58.057 9.897l-1.06 5.286a21.034 21.034 0 0 0-2.975 1.237l-4.486-3.004a3.533 3.533 0 0 0-4.438.461l-2.933 2.931a3.534 3.534 0 0 0-.466 4.479l2.99 4.464a21.034 21.034 0 0 0-1.237 2.976l-5.28 1.06a3.533 3.533 0 0 0-2.833 3.466v4.17a3.533 3.533 0 0 0 2.827 3.463l5.286 1.06a21.034 21.034 0 0 0 1.236 2.976l-3.003 4.485a3.533 3.533 0 0 0 .46 4.438l2.934 2.933a3.544 3.544 0 0 0 4.476.465l4.465-2.99c.958.488 1.953.901 2.975 1.237l1.06 5.279a3.533 3.533 0 0 0 3.466 2.835h4.17a3.533 3.533 0 0 0 3.464-2.826l1.06-5.286a21.034 21.034 0 0 0 2.975-1.237l4.486 3.003a3.534 3.534 0 0 0 4.438-.46l2.93-2.932a3.533 3.533 0 0 0 .467-4.478l-2.99-4.465c.488-.958.902-1.953 1.237-2.975l5.28-1.06a3.519 3.519 0 0 0 2.432-1.84l2.662 1.784a3.226 3.226 0 0 0 1.716.496 3.18 3.18 0 0 0 2.256-.938l2.349-2.35a3.207 3.207 0 0 0 .412-4.017l-2.279-3.41c.33-.664.616-1.35.855-2.053l3.998-.796a3.18 3.18 0 0 0 2.567-3.133V21.31a3.18 3.18 0 0 0-2.553-3.129l-4.016-.8a16.34 16.34 0 0 0-.851-2.053l2.314-3.45a3.192 3.192 0 0 0-.441-3.972l-2.35-2.35a3.206 3.206 0 0 0-4.017-.411l-3.41 2.279c-.665-.33-1.35-.616-2.053-.855L87.83 2.57A3.18 3.18 0 0 0 84.7.004h-3.322a3.18 3.18 0 0 0-3.128 2.553l-.8 4.015c-.704.239-1.39.525-2.053.857l-3.45-2.314a3.196 3.196 0 0 0-3.972.441l-1.59 1.59a3.619 3.619 0 0 0-.695-.075h-4.169a3.533 3.533 0 0 0-3.464 2.826zm27.009 6.926l-.825-.825a7.03 7.03 0 0 1 2.196 13.262l-2.682-.53a21.034 21.034 0 0 0-1.237-2.975l3.003-4.486a3.533 3.533 0 0 0-.455-4.441v-.005zm-14.788-8.58l4.04 2.714c.566.38 1.3.4 1.886.051a12.924 12.924 0 0 1 3.233-1.351 1.767 1.767 0 0 0 1.272-1.36l.949-4.76h2.763l.948 4.77a1.767 1.767 0 0 0 1.272 1.36c1.134.302 2.222.757 3.233 1.352a1.767 1.767 0 0 0 1.887-.062l4.039-2.71 1.961 1.961-2.708 4.04c-.38.567-.4 1.301-.052 1.887a12.923 12.923 0 0 1 1.352 3.233c.175.648.702 1.141 1.36 1.272l4.77.95v2.762l-4.76.949a1.766 1.766 0 0 0-1.361 1.272 12.93 12.93 0 0 1-1.352 3.233 1.767 1.767 0 0 0 .051 1.887l2.71 4.038-1.96 1.961-3.938-2.634v-1.805a3.544 3.544 0 0 0-1.237-2.69 10.575 10.575 0 0 0-7.367-18.192c-1.068.006-2.129.18-3.143.515a3.583 3.583 0 0 0-2.473.545l-4.461 2.989a21.038 21.038 0 0 0-2.975-1.237l-1.06-5.279a3.248 3.248 0 0 0-.122-.417l1.243-1.243zm-10.029 8.68l1.272-6.32h4.17l1.27 6.326a1.767 1.767 0 0 0 1.27 1.356c1.46.394 2.862.976 4.171 1.732a1.767 1.767 0 0 0 1.87-.06l5.345-3.576 2.961 2.945-3.586 5.351a1.767 1.767 0 0 0-.06 1.87 17.404 17.404 0 0 1 1.731 4.17c.175.647.7 1.139 1.357 1.27l6.32 1.264v4.171l-6.326 1.27a1.767 1.767 0 0 0-1.356 1.27 17.406 17.406 0 0 1-1.732 4.172 1.767 1.767 0 0 0 .06 1.869l3.576 5.346-2.945 2.96-5.351-3.586a1.767 1.767 0 0 0-1.87-.06 17.399 17.399 0 0 1-4.17 1.732c-.647.175-1.139.7-1.27 1.356l-1.266 6.32h-4.169l-1.27-6.325a1.767 1.767 0 0 0-1.27-1.357 17.401 17.401 0 0 1-4.172-1.731 1.767 1.767 0 0 0-1.869.06l-5.346 3.576-2.96-2.945 3.586-5.351c.375-.561.398-1.286.06-1.87a17.406 17.406 0 0 1-1.732-4.17 1.767 1.767 0 0 0-1.356-1.271l-6.32-1.265v-4.17l6.325-1.27a1.767 1.767 0 0 0 1.357-1.27c.393-1.46.975-2.862 1.731-4.17a1.767 1.767 0 0 0-.06-1.87l-3.576-5.346 2.945-2.961 5.352 3.586c.56.375 1.285.399 1.869.06a17.405 17.405 0 0 1 4.17-1.73 1.767 1.767 0 0 0 1.264-1.358z"/><path fill="#EF4C4C" d="M63.606 47.704c6.83 0 12.367-5.537 12.367-12.367 0-6.83-5.537-12.366-12.367-12.366-6.83 0-12.367 5.536-12.367 12.366.008 6.827 5.54 12.36 12.367 12.367zm0-21.2a8.833 8.833 0 1 1-8.833 8.833 8.844 8.844 0 0 1 8.833-8.833z"/><path fill="#EF4C4C" d="M63.606 37.104a1.767 1.767 0 1 0 0-3.533 1.767 1.767 0 0 0 0 3.533zM15.905 38.87a1.767 1.767 0 1 0 0-3.532 1.767 1.767 0 0 0 0 3.533z"/></svg>