<svg xmlns="http://www.w3.org/2000/svg" viewBox="0 -32 480 480">
    <path d="M416 376h16v16h-16zm0 0M392 376h16v16h-16zm0 0M416 352h16v16h-16zm0 0"/>
    <path d="M476.441 249.344L456 235.719V232a39.764 39.764 0 0 0-11.273-27.71A85.314 85.314 0 0 0 464 152a81.347 81.347 0 0 0-13.91-44.52A36.564 36.564 0 0 0 456 88c0-25.328-27.695-45.406-80.055-58.129C349.273 10.328 293.434 0 240 0S130.727 10.328 104.055 29.871C51.695 42.594 24 62.671 24 88a36.522 36.522 0 0 0 5.902 19.457A81.383 81.383 0 0 0 16 152a85.338 85.338 0 0 0 19.273 52.29A39.764 39.764 0 0 0 24 232v3.719L3.559 249.32A8 8 0 0 0 0 256v96a8.003 8.003 0 0 0 3.559 6.656L24 372.281V376c.027 22.082 17.918 39.973 40 40h120c3.672 0 6.871-2.5 7.762-6.063 3.793-15.253 17.496-25.953 33.215-25.937h30.046c15.72-.016 29.426 10.688 33.215 25.945A8.005 8.005 0 0 0 296 416h120c22.082-.027 39.973-17.918 40-40v-3.719l20.441-13.601A8 8 0 0 0 480 352v-96a8.003 8.003 0 0 0-3.559-6.656zm-61.976-112.985a61.505 61.505 0 0 1 10.398 15.418 67.879 67.879 0 0 1 4.098 42.575A39.653 39.653 0 0 0 416 192H304v-27.426a336.399 336.399 0 0 0 110.465-28.215zm31.472 31a74.784 74.784 0 0 0-17.433-39.199 94.822 94.822 0 0 0 10.527-7.922A63.993 63.993 0 0 1 448 152a60.88 60.88 0 0 1-2.063 15.36zM240 16c84.258 0 136 23.297 136 40s-51.742 40-136 40-136-23.297-136-40 51.742-40 136-40zM88.602 50.809A24.696 24.696 0 0 0 88 56c0 36.375 78.313 56 152 56s152-19.625 152-56a24.696 24.696 0 0 0-.602-5.191C422.528 60.87 440 74.03 440 88c0 22.977-50.742 52.305-144.8 61.398a8.005 8.005 0 0 0-7.2 8v41.41c-4.05 14.876-17.559 25.196-32.977 25.192h-30.046c-15.43 0-28.942-10.34-32.977-25.23v-41.41a8.002 8.002 0 0 0-7.2-8C90.743 140.304 40 110.976 40 88c0-13.969 17.473-27.129 48.602-37.191zM51 194.352a67.81 67.81 0 0 1 4.09-42.543 61.499 61.499 0 0 1 10.445-15.45A336.399 336.399 0 0 0 176 164.574V192H64c-4.434.05-8.828.848-13 2.352zm-10.031-74.086a96.205 96.205 0 0 0 10.527 7.925 74.811 74.811 0 0 0-17.434 39.16A60.642 60.642 0 0 1 32 152a64.187 64.187 0 0 1 8.969-31.734zM16 347.719V260.28l8-5.328v98.094zM440 376c0 13.254-10.746 24-24 24H301.832c-7.5-19.309-26.094-32.02-46.809-32h-30.046c-20.715-.023-39.313 12.691-46.809 32H64c-13.254 0-24-10.746-24-24V232c0-13.254 10.746-24 24-24h114.168c7.496 19.313 26.094 32.027 46.809 32h30.046c20.715.023 39.313-12.691 46.809-32H416c13.254 0 24 10.746 24 24zm24-28.281l-8 5.328v-98.094l8 5.328zm0 0"/>
    <path d="M240 184c17.672 0 32-14.328 32-32s-14.328-32-32-32-32 14.328-32 32 14.328 32 32 32zm0-48c8.836 0 16 7.164 16 16s-7.164 16-16 16-16-7.164-16-16 7.164-16 16-16zm0 0"/>
</svg>