<svg xmlns="http://www.w3.org/2000/svg" width="131" height="126" fill="none">
    <path fill="#EF4C4C"
          d="M117.076 100.362l.055.001a1.918 1.918 0 0 0 1.917-1.865l.003-.101a1.919 1.919 0 0 0-1.864-1.973 1.91 1.91 0 0 0-1.972 1.864l-.003.102a1.918 1.918 0 0 0 1.864 1.972zM117.206 102.913a1.913 1.913 0 0 0-1.972 1.864l-.003.102a1.918 1.918 0 0 0 1.864 1.972l.055.001a1.92 1.92 0 0 0 1.917-1.865l.003-.101a1.92 1.92 0 0 0-1.864-1.973zM120.488 99.711l-.102-.003a1.922 1.922 0 0 0-1.97 1.867 1.92 1.92 0 0 0 1.867 1.97l.102.003h.053a1.919 1.919 0 0 0 .05-3.837zM115.865 101.7a1.92 1.92 0 0 0-1.866-1.97l-.102-.003a1.92 1.92 0 0 0-.104 3.837l.102.003h.053a1.918 1.918 0 0 0 1.917-1.867zM100.175 3.939h.055a1.92 1.92 0 0 0 1.917-1.864l.003-.102a1.919 1.919 0 0 0-3.836-.108l-.003.102a1.92 1.92 0 0 0 1.864 1.972zM100.305 6.49a1.915 1.915 0 0 0-1.972 1.864l-.003.101a1.92 1.92 0 0 0 1.864 1.973h.055a1.919 1.919 0 0 0 1.918-1.864l.002-.102a1.919 1.919 0 0 0-1.864-1.972zM101.516 5.151a1.919 1.919 0 0 0 1.866 1.97l.101.003a1.92 1.92 0 0 0 .104-3.836l-.101-.003a1.915 1.915 0 0 0-1.97 1.866zM96.888 7.14l.102.004h.058a1.919 1.919 0 0 0 .055-3.837L97 3.304a1.919 1.919 0 1 0-.113 3.837zM24.195 12.886h.055a1.92 1.92 0 0 0 1.916-1.864l.003-.102a1.919 1.919 0 1 0-3.836-.108l-.002.1a1.92 1.92 0 0 0 1.864 1.974zM24.325 15.437a1.919 1.919 0 0 0-1.973 1.864l-.002.101a1.92 1.92 0 0 0 1.864 1.973l.055.001a1.92 1.92 0 0 0 1.917-1.865l.003-.102a1.918 1.918 0 0 0-1.864-1.972zM25.535 14.094a1.919 1.919 0 0 0 1.862 1.974l.102.004h.057a1.918 1.918 0 0 0 .056-3.837l-.102-.003a1.92 1.92 0 0 0-1.975 1.862zM20.907 16.087l.101.003.058.001a1.919 1.919 0 0 0 .056-3.837l-.102-.003a1.919 1.919 0 1 0-.113 3.836zM19.61 61.874c1.374.33 2.814.65 4.278.95a1.92 1.92 0 0 0 .768-3.76c-1.422-.291-2.816-.601-4.147-.921a1.917 1.917 0 0 0-2.315 1.415 1.918 1.918 0 0 0 1.415 2.316zM19.61 79.6c1.374.33 2.814.65 4.278.95a1.92 1.92 0 0 0 .768-3.76c-1.422-.291-2.816-.601-4.147-.92a1.917 1.917 0 0 0-2.315 1.414 1.918 1.918 0 0 0 1.415 2.316zM19.61 74.182c1.374.332 2.814.65 4.278.95a1.92 1.92 0 0 0 .768-3.76c-1.422-.291-2.816-.6-4.147-.921a1.918 1.918 0 1 0-.9 3.73zM107.925 60.69a1.919 1.919 0 0 0 2.302 1.437c5.075-1.176 9.487-2.554 13.116-4.096a1.92 1.92 0 1 0-1.501-3.532c-3.424 1.455-7.623 2.763-12.48 3.889a1.918 1.918 0 0 0-1.437 2.302zM121.842 60.46a56.673 56.673 0 0 1-3.536 1.358 1.918 1.918 0 1 0 1.258 3.625 59.99 59.99 0 0 0 3.779-1.45 1.918 1.918 0 1 0-1.501-3.532zM74.95 76.283a6.201 6.201 0 0 0-6.194 6.194 6.201 6.201 0 0 0 6.195 6.195 6.202 6.202 0 0 0 6.195-6.195 6.202 6.202 0 0 0-6.195-6.194zm0 8.551a2.36 2.36 0 0 1-2.356-2.357 2.36 2.36 0 0 1 2.357-2.356 2.36 2.36 0 0 1 2.357 2.356 2.36 2.36 0 0 1-2.357 2.357zM91.487 47.367h-52.07a5.66 5.66 0 0 0-5.654 5.653 5.66 5.66 0 0 0 5.654 5.653h52.07a5.66 5.66 0 0 0 5.653-5.653 5.659 5.659 0 0 0-5.653-5.653zm0 7.469h-52.07a1.818 1.818 0 0 1-1.816-1.816c0-1.002.815-1.816 1.816-1.816h52.07a1.817 1.817 0 0 1 0 3.632z"/>
    <path fill="#EF4C4C"
          d="M130.989 41.83c-.02-3.602-3.123-6.807-9.22-9.524-5.159-2.299-12.497-4.247-21.239-5.646a30.528 30.528 0 0 0-18.264-16.226 4.52 4.52 0 0 0 .024-.468v-.18a6.498 6.498 0 0 0-6.49-6.491H55.103a6.499 6.499 0 0 0-6.49 6.49v.181c0 .148.007.295.022.44a30.48 30.48 0 0 0-12.744 8.003 30.5 30.5 0 0 0-5.619 8.28C18.946 28.515.051 32.902.001 41.831L0 73.312a6.523 6.523 0 0 0 .074.946c.418 2.656 2.575 5.103 6.411 7.272a1.919 1.919 0 1 0 1.888-3.341c-2.678-1.515-4.277-3.118-4.505-4.515a2.69 2.69 0 0 1-.03-.362V48.644c4.185 3.255 11.108 5.525 17.274 7.017 2.233.538 4.62 1.038 7.098 1.483.31.056.534.321.534.63v25.93a.633.633 0 0 1-.232.493.618.618 0 0 1-.514.135c-4.146-.776-7.904-1.682-11.17-2.69a1.919 1.919 0 1 0-1.132 3.667c3.405 1.051 7.305 1.992 11.595 2.795 2.712.508 5.291-1.647 5.291-4.4V72.826a10.36 10.36 0 0 0 3.564.634c.842 0 1.682-.106 2.497-.307l.254 4.485c.536 9.486 7.512 17.163 16.533 18.884v1.795c-2.421.298-4.376.762-5.924 1.4h-17.42c-5.972 0-10.832 4.86-10.832 10.833v12.796a1.92 1.92 0 0 0 3.838 0V110.55a7.001 7.001 0 0 1 6.993-6.994h13.068a6.608 6.608 0 0 0-.559 2.705c0 3.471 2.335 7.469 6.246 10.693 4.206 3.467 9.395 5.377 14.612 5.377 5.217 0 10.406-1.91 14.612-5.377 3.91-3.224 6.245-7.222 6.245-10.693 0-.807-.132-1.753-.558-2.705h13.067a7.002 7.002 0 0 1 6.994 6.994v12.796a1.918 1.918 0 1 0 3.838 0V110.55c0-5.973-4.86-10.832-10.832-10.832H81.404c-1.552-.646-3.48-1.103-5.93-1.401v-1.81c8.978-1.755 15.91-9.413 16.445-18.87l.254-4.483c.815.201 1.653.306 2.497.306 1.286 0 2.56-.244 3.749-.703v10.949c0 2.762 2.593 4.908 5.309 4.397 20.67-3.878 26.146-9.398 27.1-13.346a6.19 6.19 0 0 0 .173-1.445l-.011-31.481zM92.154 21.067a26.61 26.61 0 0 1 6.132 10.425 11.12 11.12 0 0 0-.485-.012H75.675a7.586 7.586 0 0 1-3.949-6.665V14.442h6.09c.844 0 1.632-.24 2.308-.649a26.624 26.624 0 0 1 12.03 7.273zm-29.139-6.624h4.874v10.372c0 2.443.772 4.758 2.14 6.665h-9.155a11.42 11.42 0 0 0 2.141-6.665V14.442zM52.45 9.785a2.656 2.656 0 0 1 2.653-2.652H75.8a2.656 2.656 0 0 1 2.653 2.652v.181c0 .351-.286.638-.638.638H53.088a.64.64 0 0 1-.638-.638v-.18zM8.162 46.943c-2.788-1.614-4.324-3.304-4.324-4.76 0-.056-.004-.11-.008-.164.005-.055.009-.111.009-.167.019-3.358 7.74-7.983 24.874-11.008a30.564 30.564 0 0 0-.465 1.797c-3.5 1.778-5.907 5.412-5.907 9.6v9.766c-.11-.025-.22-.05-.328-.077-5.88-1.422-10.67-3.147-13.85-4.987zm27.984 22.68a6.512 6.512 0 0 1-3.564-1.06v-.753c.173.01.347.014.52.014h5.239l.079 1.394a6.511 6.511 0 0 1-2.274.404zm29.306 48.87c-9.231 0-17.02-7.512-17.02-12.232 0-.883.002-3.133 7.08-4.084.619 4.936 4.839 8.768 9.94 8.768 5.1 0 9.32-3.832 9.94-8.768 7.077.951 7.08 3.201 7.08 4.084-.001 4.72-7.79 12.232-17.02 12.232zm6.183-17.57a6.191 6.191 0 0 1-6.183 6.184 6.19 6.19 0 0 1-6.184-6.184v-4.037H71.55l.085-.002v4.039zm-.085-7.875H59.264c-8.776 0-16.04-6.864-16.536-15.627l-.543-9.597h17.889l-.51 3.523a4.357 4.357 0 0 0 4.31 4.98h3.066a4.356 4.356 0 0 0 4.312-4.98l-.511-3.523h17.89l-.545 9.597c-.495 8.763-7.76 15.627-16.535 15.627zm-4.687-25.224l.59 4.073a.506.506 0 0 1-.121.414.505.505 0 0 1-.39.179h-3.067a.508.508 0 0 1-.392-.18.505.505 0 0 1-.12-.413l.589-4.073h2.911zm27.806 1.798c-.779 0-1.55-.142-2.274-.408l.079-1.39h5.327c.206 0 .41-.008.617-.02v.634a6.475 6.475 0 0 1-3.75 1.184zm3.749-11.846v6.182c-.205.019-.411.028-.617.028h-64.7c-.173 0-.346-.008-.519-.02v-6.192a4.476 4.476 0 0 0-3.69-4.406c-.92-.166-1.825-.339-2.713-.518V42.24a6.931 6.931 0 0 1 6.923-6.924h8.25a1.919 1.919 0 1 0 0-3.838h-8.25c-.193 0-.384.006-.575.016a26.622 26.622 0 0 1 6.144-10.44 26.62 26.62 0 0 1 12.081-7.279c.68.419 1.48.666 2.336.666h6.088v10.372a7.586 7.586 0 0 1-3.949 6.665h-5.049a1.918 1.918 0 1 0 0 3.838h47.623c3.817 0 6.923 3.106 6.923 6.924V52.87c-.854.172-1.726.34-2.616.5a4.476 4.476 0 0 0-3.69 4.406zm21.297-7.146a1.92 1.92 0 0 0 2.551.926c1.959-.914 3.593-1.88 4.896-2.895v24.652c0 .18-.022.358-.066.544-.244 1.007-1.436 3.056-6.688 5.461-4.238 1.94-10.251 3.674-17.388 5.013a.646.646 0 0 1-.536-.137.63.63 0 0 1-.228-.487V57.776c0-.309.224-.573.533-.629 2.133-.385 4.182-.804 6.091-1.247a98.467 98.467 0 0 0 4.579-1.172 1.919 1.919 0 1 0-1.044-3.693 94.726 94.726 0 0 1-3.852.996v-9.79c0-4.228-2.453-7.893-6.009-9.651a29.652 29.652 0 0 0-.461-1.776c7.452 1.308 13.678 3.021 18.114 4.998 4.402 1.962 6.934 4.164 6.944 6.04.001.077.007.153.016.228-.002.034-.005.069-.005.104 0 1.812-2.377 3.96-6.521 5.895a1.918 1.918 0 0 0-.926 2.55z"/>
</svg>