<svg xmlns="http://www.w3.org/2000/svg" width="152" height="127" fill="none"><path fill="#FCF6F6" d="M147.077 49.924a2.445 2.445 0 0 0 3.961-1.921V34.954c0-.75-.343-1.458-.932-1.922L110.275 1.651a7.644 7.644 0 0 0-9.489 0L85.795 13.462V8.857a2.447 2.447 0 0 0-2.447-2.447H72.91a2.447 2.447 0 0 0-2.446 2.447v16.685l-9.507 7.49a2.446 2.446 0 0 0-.932 1.922v13.049a2.447 2.447 0 0 0 3.96 1.922l1.26-.992v23.842l-22.822-17.98a7.643 7.643 0 0 0-9.488 0L.931 80.007A2.446 2.446 0 0 0 0 81.93v13.049A2.447 2.447 0 0 0 3.96 96.9l1.26-.992v25.33H2.446a2.447 2.447 0 0 0 0 4.893H148.59a2.446 2.446 0 1 0 0-4.893h-2.772V48.933l1.258.991zm-71.721-38.62h5.546v6.014l-5.546 4.37V11.302zM64.917 36.14l38.898-30.647a2.765 2.765 0 0 1 3.432 0l38.898 30.647v6.819l-39.1-30.806a2.441 2.441 0 0 0-3.028 0l-39.1 30.806v-6.819zM4.893 83.116l31.07-24.478a2.765 2.765 0 0 1 3.431 0l25.85 20.366v6.82L39.191 65.297c-.888-.7-2.14-.7-3.028 0L4.894 89.935v-6.819zm5.22 8.937l27.565-21.718 27.565 21.718v29.185H54.478v-28.87a2.447 2.447 0 0 0-2.447-2.446H23.325a2.447 2.447 0 0 0-2.446 2.446v28.87H10.113V92.053zm15.658 13.201h23.814v5.545H25.77v-5.545zm23.814-4.894H25.77v-5.545h23.814v5.545zM25.77 115.692h23.814v5.546H25.77v-5.546zm70.789-12.714c-.054-.003-.109-.008-.163-.008a2.455 2.455 0 0 0-2.447 2.447c0 .642.261 1.275.718 1.729a2.458 2.458 0 0 0 1.729.717c.054 0 .109-.004.163-.008v13.383H85.795V89.595H96.56v13.383zm44.365 18.26h-39.472v-34.09a2.446 2.446 0 0 0-2.446-2.446H83.348a2.447 2.447 0 0 0-2.446 2.447v34.089H70.136v-76.16l35.395-27.887 35.394 27.887v76.16z"/><path fill="#FCF6F6" d="M112.055 110.473h15.658a2.446 2.446 0 0 0 2.447-2.447V87.149a2.446 2.446 0 0 0-2.447-2.447h-15.658a2.447 2.447 0 0 0-2.447 2.447v20.877a2.447 2.447 0 0 0 2.447 2.447zm2.447-4.893v-8.156h10.765v8.156h-10.765zm10.765-15.985v2.936h-10.765v-2.936h10.765zM112.055 73.937h15.658a2.446 2.446 0 0 0 2.447-2.447V50.612a2.446 2.446 0 0 0-2.447-2.446h-15.658a2.447 2.447 0 0 0-2.447 2.446V71.49a2.447 2.447 0 0 0 2.447 2.447zm2.447-4.893v-8.156h10.765v8.156h-10.765zm10.765-15.985v2.936h-10.765v-2.936h10.765zM99.006 48.166H83.348a2.447 2.447 0 0 0-2.447 2.446V71.49a2.447 2.447 0 0 0 2.447 2.447h15.658a2.446 2.446 0 0 0 2.447-2.447V50.612a2.446 2.446 0 0 0-2.447-2.446zm-2.446 4.893v2.936H85.795v-2.936H96.56zM85.795 69.044v-8.156H96.56v8.156H85.795z"/></svg>