<svg xmlns="http://www.w3.org/2000/svg" width="126" height="126" fill="none"><g fill="#FBFBFB" clip-path="url(#clip0)"><path d="M3.091 78.521c.69.48 1.42.902 2.182 1.26.907.464 2.428 1.241 2.535 1.785a3.648 3.648 0 0 1-.248 2.127c-.313.672-.64 1.25-.924 1.748-.769 1.358-2.056 3.635-.115 5.22.453.42 1.236 1.027 1.95 1.575a5.29 5.29 0 0 0-.682 3.03 3.024 3.024 0 0 0 1.245 2.065c.466.33.964.615 1.455.894 1.242.708 1.727 1.038 1.89 1.695a5.785 5.785 0 0 1-.21 2.52 19.225 19.225 0 0 0-.315 1.68c-.208 1.914.028 3.85.691 5.657a7.867 7.867 0 0 0 7.428 5.723 8.445 8.445 0 0 0 1.722-.183c6-1.422 11.911-3.191 17.705-5.298 4.732 2.776 7.72 11.218 8.499 14.387A2.1 2.1 0 0 0 49.938 126l52.71-.147a2.097 2.097 0 0 0 1.999-2.73 16.199 16.199 0 0 0-2.127-3.99 19.54 19.54 0 0 1-1.359-2.272 39.739 39.739 0 0 1-2.37-5.973 70.848 70.848 0 0 1-2.466-12.285 2.1 2.1 0 1 0-4.166.513 74.895 74.895 0 0 0 2.618 13.02 44.042 44.042 0 0 0 2.606 6.573c.48.951 1.023 1.868 1.628 2.744l.14.21-47.625.137a33.456 33.456 0 0 0-7.392-13.411l1.89-.661c1.407-.492 2.467-.861 3.011-1.035 8.996-2.846 13.495-6.943 13.373-12.18a2.046 2.046 0 0 0-2.138-2.05 2.1 2.1 0 0 0-2.05 2.148c.05 2.161-1.72 5.313-10.45 8.075-.568.182-1.665.565-3.12 1.073a642.14 642.14 0 0 1-5.733 1.982h-.014a163.121 163.121 0 0 1-18.06 5.46 3.717 3.717 0 0 1-4.322-2.799 8.35 8.35 0 0 1-.494-3.746c.055-.441.156-.878.252-1.317a9.2 9.2 0 0 0 .183-4.471 6.978 6.978 0 0 0-3.887-4.292l-.437-.25c.227-.458.498-.893.809-1.298a2.1 2.1 0 0 0-.402-2.99 82.853 82.853 0 0 1-2.562-1.962c.101-.183.21-.384.315-.567.33-.578.706-1.25 1.073-2.026a7.872 7.872 0 0 0 .561-4.7c-.504-2.562-2.957-3.818-4.748-4.734-.602-.285-1.18-.62-1.726-1.001a8.92 8.92 0 0 1-1.26-1.025c0-.317.34-1.086 1.94-3.037a84.47 84.47 0 0 0 9.612-15.611 6.203 6.203 0 0 0 .813-2.842 7.35 7.35 0 0 0-3.068-5.25c-.85-.779-1.651-1.514-1.743-2.192.014-.498.125-.988.327-1.443.342-.9.737-1.783 1.134-2.667a30.679 30.679 0 0 0 2.054-5.537l.21-.895c.445-2.1 1.019-4.17 1.718-6.2a36.013 36.013 0 0 1 7.535-12.307c4.017-4.25 10.34-7.258 18.824-8.944a136.501 136.501 0 0 1 19.702-2.84c3.306-.178 6.62.01 9.885.561a2.1 2.1 0 0 0 .718-4.137A48.772 48.772 0 0 0 63.038.065 140.162 140.162 0 0 0 42.725 2.98c-9.47 1.89-16.351 5.21-21.049 10.174a40.237 40.237 0 0 0-8.423 13.74 56.964 56.964 0 0 0-1.86 6.706l-.21.886a27.404 27.404 0 0 1-1.796 4.784c-.42.957-.857 1.915-1.233 2.906a7.033 7.033 0 0 0-.556 3.514 8.018 8.018 0 0 0 3.062 4.689c1.027.943 1.7 1.606 1.709 2.184-.076.32-.197.627-.36.913a81.017 81.017 0 0 1-9.197 14.946c-1.518 1.85-3.108 4.007-2.77 6.164a6.411 6.411 0 0 0 3.05 3.935z"/><path d="M23.45 37.365l.21-.934c.368-1.746.836-3.47 1.4-5.162a27.667 27.667 0 0 1 5.763-9.45 21.987 21.987 0 0 1 9.68-5.315 2.1 2.1 0 1 0-1.223-4.017 26.006 26.006 0 0 0-11.51 6.449 31.879 31.879 0 0 0-6.642 10.884 50.033 50.033 0 0 0-1.556 5.689l-.21.91a2.1 2.1 0 0 0 2.045 2.574 2.1 2.1 0 0 0 2.043-1.628zM18.9 46.2a2.1 2.1 0 1 0 0-4.2 2.1 2.1 0 0 0 0 4.2zM56.7 42.441a28.783 28.783 0 0 0 7.096 19.509 36.096 36.096 0 0 0 4.83 4.2c3.072 2.375 5.983 4.645 6.756 7.804A6.3 6.3 0 0 0 71.4 79.8V84a6.3 6.3 0 0 0 4.2 5.914v.386a8.4 8.4 0 0 0 16.8 0v-.386A6.3 6.3 0 0 0 96.6 84v-4.2a6.3 6.3 0 0 0-3.99-5.846c.77-3.15 3.683-5.429 6.756-7.804a36.207 36.207 0 0 0 4.83-4.2 28.8 28.8 0 0 0 7.104-19.509C111.242 27.315 99.123 15.001 84 14.7 68.877 15 56.76 27.316 56.7 42.441zm21 3.759h-2.1a2.1 2.1 0 1 1 2.1-2.1v2.1zm8.4 27.3h-4.2V50.4h4.2v23.1zm-2.1 21a4.2 4.2 0 0 1-4.2-4.2h8.4a4.2 4.2 0 0 1-4.2 4.2zM92.4 84a2.1 2.1 0 0 1-2.1 2.1H77.7a2.1 2.1 0 0 1-2.1-2.1v-4.2c0-1.16.94-2.1 2.1-2.1h12.6c1.16 0 2.1.94 2.1 2.1V84zm14.7-41.494a24.553 24.553 0 0 1-6.012 16.63 32.841 32.841 0 0 1-4.278 3.69 29.402 29.402 0 0 0-6.51 6.214V50.4h2.1a6.3 6.3 0 1 0-6.3-6.3v2.1h-4.2v-2.1a6.3 6.3 0 1 0-6.3 6.3h2.1v18.64a29.36 29.36 0 0 0-6.5-6.212 32.881 32.881 0 0 1-4.28-3.692 24.543 24.543 0 0 1-6.02-16.63C61.11 29.71 71.677 18.9 84 18.9c12.323 0 22.901 10.809 23.1 23.606zM90.3 46.2v-2.1a2.1 2.1 0 1 1 2.1 2.1h-2.1zM117.6 44.1h6.3a2.1 2.1 0 1 0 0-4.2h-6.3a2.1 2.1 0 1 0 0 4.2zM107.758 20.343a2.1 2.1 0 0 0 1.487-.616l4.454-4.456a2.1 2.1 0 1 0-2.97-2.97l-4.456 4.455a2.1 2.1 0 0 0 1.485 3.587zM84 10.5a2.1 2.1 0 0 0 2.1-2.1V2.1a2.1 2.1 0 0 0-4.2 0v6.3c0 1.16.94 2.1 2.1 2.1zM61.728 19.727a2.1 2.1 0 0 0 0-2.971l-4.456-4.454a2.1 2.1 0 1 0-2.97 2.97l4.454 4.455a2.1 2.1 0 0 0 2.972 0zM44.1 39.9a2.1 2.1 0 1 0 0 4.2h6.3a2.1 2.1 0 1 0 0-4.2h-6.3z"/></g><defs><clipPath id="clip0"><path fill="#fff" d="M0 0h126v126H0z"/></clipPath></defs></svg>