<svg xmlns="http://www.w3.org/2000/svg" width="102" height="105" fill="none"><path fill="#EF4C4C" d="M50.77 61.314c-3.322 0-6.024-2.745-6.024-6.116v-6.116c0-3.373 2.702-6.116 6.024-6.116h4.302c.95 0 1.721.782 1.721 1.746v10.486c0 3.371-2.703 6.116-6.023 6.116zm0-14.854c-1.425 0-2.582 1.176-2.582 2.622v6.116c0 1.445 1.157 2.62 2.582 2.62 1.423 0 2.58-1.175 2.58-2.62V46.46h-2.58z"/><path fill="#EF4C4C" d="M46.465 49.082h8.605v3.495h-8.605v-3.495zM58.512 94.515H43.023a1.732 1.732 0 0 1-1.717-1.638l-1.72-27.96c-.03-.48.137-.953.462-1.305.325-.351.78-.551 1.255-.551h18.93c.476 0 .93.2 1.254.551.326.352.494.824.464 1.306l-1.721 27.96a1.732 1.732 0 0 1-1.718 1.637zm-13.871-3.494h12.255l1.505-24.465H43.135l1.507 24.465z"/><path fill="#EF4C4C" d="M60.822 75.188l-1.177-3.284 17.566-6.487-1.077-6.018-.421 3.855a1.739 1.739 0 0 1-1.498 1.541l-13.768 1.747-.427-3.467 12.42-1.577 1.571-14.356a1.733 1.733 0 0 1 1.653-1.554c.898-.064 1.599.582 1.751 1.434l3.442 19.222a1.749 1.749 0 0 1-1.104 1.954l-18.93 6.99zM24.094 82.283c-.41 0-.813-.148-1.132-.432a1.763 1.763 0 0 1-.538-1.738l5.163-20.97c.217-.878 1.063-1.45 1.939-1.301a1.74 1.74 0 0 1 1.448 1.844l-.64 9.426 10.121-5.824 1.698 3.042-12.907 7.426c-.533.306-1.18.301-1.707-.005l-.96 3.892 14.086-5.72 1.279 3.246-17.21 6.99a1.71 1.71 0 0 1-.64.124zM58.512 105H43.023c-.95 0-1.72-.781-1.72-1.748V92.768c0-.966.77-1.748 1.72-1.748h15.49c.95 0 1.72.782 1.72 1.748v10.484c0 .967-.77 1.748-1.72 1.748zm-13.767-3.495H56.79v-6.99H44.745v6.99z"/><path fill="#EF4C4C" d="M74.178 46.555l3.442-6.99 3.078 1.564-3.44 6.99-3.08-1.564zM24.271 53.356l3.08-1.563 3.441 6.99-3.079 1.563-3.442-6.99z"/><path fill="#EF4C4C" d="M27.535 70.05c-8.54 0-15.488-7.054-15.488-15.725 0-8.672 6.948-15.728 15.488-15.728s15.489 7.056 15.489 15.727c0 8.672-6.949 15.727-15.49 15.727zm0-27.958c-6.643 0-12.046 5.487-12.046 12.232 0 6.744 5.403 12.232 12.046 12.232s12.047-5.488 12.047-12.232c0-6.745-5.404-12.232-12.047-12.232z"/><path fill="#EF4C4C" d="M27.535 63.061c-4.744 0-8.604-3.92-8.604-8.736 0-4.818 3.86-8.738 8.604-8.738s8.605 3.92 8.605 8.737-3.86 8.737-8.605 8.737zm0-13.98c-2.846 0-5.163 2.352-5.163 5.243 0 2.89 2.317 5.242 5.163 5.242 2.847 0 5.163-2.351 5.163-5.242 0-2.89-2.316-5.242-5.163-5.242zM79.164 54.325c-8.541 0-15.488-7.056-15.488-15.728 0-8.671 6.947-15.727 15.488-15.727 8.54 0 15.489 7.056 15.489 15.727 0 8.672-6.948 15.727-15.49 15.727zm0-27.96c-6.642 0-12.046 5.487-12.046 12.232 0 6.744 5.405 12.232 12.046 12.232 6.642 0 12.047-5.488 12.047-12.232 0-6.745-5.405-12.232-12.047-12.232z"/><path fill="#EF4C4C" d="M79.164 47.334c-4.744 0-8.604-3.92-8.604-8.737s3.86-8.737 8.604-8.737 8.605 3.92 8.605 8.737-3.86 8.737-8.605 8.737zm0-13.98c-2.847 0-5.163 2.352-5.163 5.243 0 2.89 2.316 5.242 5.163 5.242 2.847 0 5.163-2.352 5.163-5.242s-2.316-5.242-5.163-5.242zM5.163 17.627h13.768v3.495H5.163v-3.495zM22.373 17.627h3.442v3.495h-3.442v-3.495zM27.535 26.365h15.49v3.495h-15.49v-3.495zM46.465 26.365h3.442v3.495h-3.442v-3.495zM61.955 12.386h13.768v3.495H61.955v-3.495zM79.164 12.386h3.442v3.495h-3.442v-3.495zM20.651 26.365h3.442v3.495h-3.442v-3.495zM35.28 12.386c-3.322 0-6.024-2.745-6.024-6.117S31.958.153 35.279.153c3.32 0 6.024 2.744 6.024 6.116H37.86c0-1.445-1.158-2.621-2.582-2.621-1.423 0-2.581 1.176-2.581 2.621s1.158 2.622 2.581 2.622v3.495zM96.374 12.386c-2.847 0-5.163-2.352-5.163-5.243 0-2.891 2.316-5.243 5.163-5.243 2.847 0 5.163 2.352 5.163 5.243 0 2.891-2.316 5.243-5.163 5.243zm0-6.99c-.95 0-1.721.784-1.721 1.747 0 .964.771 1.748 1.721 1.748.95 0 1.72-.784 1.72-1.748 0-.963-.77-1.747-1.72-1.747zM5.163 43.839C2.316 43.839 0 41.487 0 38.597s2.316-5.242 5.163-5.242c2.847 0 5.163 2.351 5.163 5.242 0 2.89-2.316 5.242-5.163 5.242zm0-6.99c-.949 0-1.721.785-1.721 1.748s.772 1.748 1.721 1.748c.948 0 1.72-.784 1.72-1.748s-.772-1.748-1.72-1.748zM56.793 1.901h3.442v6.99h-3.442V1.9z"/><path fill="#EF4C4C" d="M55.071 3.648h6.884v3.495h-6.884V3.648z"/></svg>