<svg xmlns="http://www.w3.org/2000/svg" width="125" height="125" fill="none"><path fill="#EF4C4C" d="M116.789 45.293l-2.087-8.404a6.26 6.26 0 0 0-4.315-4.494 30.788 30.788 0 0 0-17.265 0 6.26 6.26 0 0 0-4.315 4.498l-2.029 8.17a23.014 23.014 0 0 0-4.153 4.776H68.529v-6.23c0-1.147-.93-2.077-2.077-2.077h-2.077v-2.076c-.007-6.879-5.58-12.453-12.46-12.46H49.84a8.307 8.307 0 0 1 0-16.613h26.996C82.566 10.376 87.211 5.732 87.218 0h-4.153a6.23 6.23 0 0 1-6.23 6.23H49.84c-6.882 0-12.46 5.579-12.46 12.46 0 6.88 5.578 12.46 12.46 12.46h2.077a8.307 8.307 0 0 1 8.306 8.306v2.076h-2.077c-1.146 0-2.076.93-2.076 2.077v6.23H41.964a22.83 22.83 0 0 0-4.127-4.702L35.79 36.89a6.26 6.26 0 0 0-4.315-4.494 30.787 30.787 0 0 0-17.265 0 6.26 6.26 0 0 0-4.315 4.498l-2.04 8.216A22.773 22.773 0 0 0 0 62.299v50.63a11.675 11.675 0 0 0 21.181 6.78l14.022-19.631a16.564 16.564 0 0 0 24.853-4.553h4.502a16.526 16.526 0 0 0 11.362 8.037 16.517 16.517 0 0 0 13.472-3.496l14.023 19.643a11.676 11.676 0 0 0 21.182-6.787v-49.9a23.912 23.912 0 0 0-7.808-17.729zm-23.951-7.407c.181-.726.735-1.3 1.453-1.51a26.648 26.648 0 0 1 14.94 0 2.102 2.102 0 0 1 1.453 1.512l.961 3.875a21.951 21.951 0 0 0-8.223-2.25 22.79 22.79 0 0 0-11.517 2.188l.933-3.815zm-32.616 7.8h4.153v4.153h-4.153v-4.153zm-46.296-7.8c.181-.726.735-1.3 1.453-1.51a26.647 26.647 0 0 1 14.94 0 2.102 2.102 0 0 1 1.453 1.512l.964 3.884a22.394 22.394 0 0 0-19.751-.042l.941-3.844zm106.518 75.036a7.521 7.521 0 0 1-13.641 4.362l-15.42-21.575a2.078 2.078 0 0 0-1.571-.868h-.119a2.08 2.08 0 0 0-1.543.688 12.396 12.396 0 0 1-11.037 4.022 12.396 12.396 0 0 1-9.436-6.998 2.078 2.078 0 0 0-1.869-1.18h-7.005a2.076 2.076 0 0 0-1.868 1.184 12.423 12.423 0 0 1-20.493 2.986 2.025 2.025 0 0 0-1.66-.684 2.076 2.076 0 0 0-1.573.868L17.8 117.296a7.523 7.523 0 0 1-13.647-4.367v-50.63a18.676 18.676 0 0 1 34.854-9.345 2.078 2.078 0 0 0 1.796 1.038H83.79a2.076 2.076 0 0 0 1.796-1.038 18.608 18.608 0 0 1 17.524-9.3c9.949.939 17.5 9.376 17.334 19.368v49.9z"/><path fill="#EF4C4C" d="M37.377 58.145c0-1.146-.93-2.076-2.076-2.076h-6.23v-6.23c0-1.147-.93-2.077-2.077-2.077h-8.306c-1.147 0-2.077.93-2.077 2.077v6.23h-6.23c-1.146 0-2.076.93-2.076 2.076v8.307c0 1.147.93 2.077 2.076 2.077h6.23v6.23c0 1.146.93 2.076 2.077 2.076h8.306c1.147 0 2.077-.93 2.077-2.077v-6.23h6.23c1.147 0 2.076-.93 2.076-2.076v-8.307zm-4.153 6.23h-6.23c-1.146 0-2.076.93-2.076 2.077v6.23h-4.154v-6.23c0-1.147-.93-2.077-2.076-2.077h-6.23v-4.153h6.23c1.147 0 2.076-.93 2.076-2.077v-6.23h4.154v6.23c0 1.147.93 2.077 2.076 2.077h6.23v4.153zM101.753 58.145a6.23 6.23 0 1 0 0-12.46 6.23 6.23 0 0 0 0 12.46zm0-8.306a2.077 2.077 0 1 1 0 4.154 2.077 2.077 0 0 1 0-4.154zM97.6 62.299a6.23 6.23 0 1 0-12.46 0 6.23 6.23 0 0 0 12.46 0zm-6.23 2.076a2.077 2.077 0 1 1 0-4.153 2.077 2.077 0 0 1 0 4.153zM101.753 66.452a6.23 6.23 0 1 0 .001 12.46 6.23 6.23 0 0 0-.001-12.46zm0 8.306a2.076 2.076 0 1 1 0-4.152 2.076 2.076 0 0 1 0 4.153zM105.906 62.299a6.23 6.23 0 1 0 12.461-.002 6.23 6.23 0 0 0-12.461.002zm8.307 0a2.077 2.077 0 1 1-4.154 0 2.077 2.077 0 0 1 4.154 0zM45.684 78.912a8.307 8.307 0 1 0 .001 16.614 8.307 8.307 0 0 0 0-16.614zm0 12.46a4.153 4.153 0 1 1 .001-8.307 4.153 4.153 0 0 1 0 8.306zM78.91 78.912a8.307 8.307 0 1 0 0 16.614 8.307 8.307 0 0 0 0-16.614zm0 12.46a4.153 4.153 0 1 1 0-8.307 4.153 4.153 0 0 1 0 8.306zM72.68 66.452h8.307v4.153h-8.306v-4.153zM43.607 66.452h8.307v4.153h-8.307v-4.153zM58.145 76.835h8.306v4.153h-8.306v-4.153z"/></svg>