<svg xmlns="http://www.w3.org/2000/svg" width="164" height="164">
    <path d="M129.488 72.037a1.927 1.927 0 0 0-.011 2.725c.75.75 1.97.745 2.725-.01 2.269-2.263 5.925-2.277 8.176-.031.75.75 1.97.745 2.726-.01.755-.756.76-1.976.01-2.726-2.246-2.25-2.232-5.908.031-8.176.756-.755.76-1.975.011-2.725a1.928 1.928 0 0 0-2.726.01c-2.268 2.263-5.924 2.277-8.175.032a1.928 1.928 0 0 0-2.726.01 1.927 1.927 0 0 0-.01 2.725c2.245 2.251 2.231 5.908-.031 8.176zm8.238-5.524a9.686 9.686 0 0 0-.01 2.81 9.696 9.696 0 0 0-2.809.01 9.722 9.722 0 0 0 .01-2.809c.931.133 1.878.13 2.809-.01zM39.428 105.085c-2.246-2.251-2.232-5.908.031-8.176.756-.755.76-1.976.01-2.725a1.927 1.927 0 0 0-2.725.01c-2.268 2.263-5.924 2.277-8.175.032a1.927 1.927 0 0 0-2.726.01 1.927 1.927 0 0 0-.01 2.725c2.245 2.251 2.231 5.908-.031 8.176a1.927 1.927 0 0 0-.01 2.725c.749.75 1.969.745 2.724-.01 2.269-2.263 5.925-2.277 8.176-.031.75.749 1.97.745 2.725-.011.756-.755.76-1.975.01-2.725zm-8.207-2.652c.14-.931.143-1.879.01-2.809.93.133 1.878.13 2.81-.01a9.694 9.694 0 0 0-.011 2.808 9.722 9.722 0 0 0-2.81.011z"/>
    <path d="M129.373 102.015L95.999 68.642l11.7-.045a1.944 1.944 0 0 0 1.934-1.934l.013-3.524 4.868 4.868c.36.36.85.56 1.361.559l5.45-.021a1.944 1.944 0 0 0 1.934-1.934l.073-19.077a1.835 1.835 0 0 0-.578-1.38 1.912 1.912 0 0 0-1.396-.538l-42.853 1.388 11.607-11.607c.758-.758 7.406-7.581 7.43-13.654.024-6.178-5.723-11.996-5.968-12.241a1.924 1.924 0 0 0-2.298-.314l-12.29 6.86c-.156.088-.3.198-.427.325L60.006 32.925c-3.812-2.504-8.877-1.972-12.13 1.272l-13.68 13.678c-3.77 3.78-3.794 9.875-.052 13.627l34.731 34.73-11.7.045a1.942 1.942 0 0 0-1.364.57L39.397 113.26a1.935 1.935 0 0 0-.426 2.101 1.909 1.909 0 0 0 1.776 1.183l44.403-.17-2.17 2.169a1.928 1.928 0 0 0-.01 2.726l4.59 4.59-4.093 1.379-3.233-3.234a1.927 1.927 0 0 0-2.725.011l-5.472 5.471a1.928 1.928 0 0 0-.01 2.726l4.59 4.59-4.093 1.378-3.233-3.233a1.927 1.927 0 0 0-2.725.011l-5.472 5.471a1.927 1.927 0 0 0-.01 2.725l13.574 13.575c.75.749 1.97.745 2.725-.011l5.472-5.471c.755-.756.76-1.976.01-2.725l-.518-.519 5.224-1.759c.025-.009.046-.024.07-.034.042-.015.079-.039.121-.059.185-.083.355-.198.504-.336.019-.017.042-.022.06-.04l5.472-5.471c.755-.755.76-1.976.01-2.725l-.518-.519 5.224-1.759c.025-.009.046-.024.07-.033.042-.016.079-.04.12-.059a1.94 1.94 0 0 0 .505-.336c.019-.018.042-.022.06-.041l4.242-4.241c3.812 2.503 8.877 1.972 12.131-1.272l13.678-13.678c3.771-3.781 3.795-9.875.053-13.627zm-9.902-52.484l-.058 15.167-2.725.01-7.583-7.581a1.92 1.92 0 0 0-2.098-.41 1.945 1.945 0 0 0-1.196 1.785l-.024 6.249-13.627.052-7.02-7.02 14.425-.056a1.945 1.945 0 0 0 1.922-1.934 1.91 1.91 0 0 0-1.908-1.92l-18.278.07-3.076-3.075 41.246-1.337zM79.081 19.28l10.714-5.98c1.594 1.912 3.904 5.361 3.893 8.458-.015 3.804-4.547 9.176-6.291 10.925l-13.679 13.68-5.43-5.43 15.047-15.047c.756-.756.76-1.976.01-2.725a1.927 1.927 0 0 0-2.725.01L65.574 38.217l-2.715-2.715 16.223-16.223zm-33.667 93.395l12.545-12.546 14.755-.057 4.306 4.306-11.7.045a1.943 1.943 0 0 0-1.682.966 1.925 1.925 0 0 0-.008 1.934c.345.597.984.961 1.675.953l15.554-.059 4.305 4.305-39.75.153zm44.385 4.482l10.859 10.859-2.736 2.736-10.86-10.86 2.737-2.735zm-10.943 10.943l10.86 10.859-2.737 2.736-10.859-10.86 2.736-2.735zm-2.82 24.538l-10.859-10.86 2.736-2.736 10.86 10.86-2.736 2.736zm-.476-11.42l4.093-1.378 3.751 3.751-4.093 1.379-3.751-3.752zm10.943-10.943l4.093-1.378 3.751 3.751-4.093 1.379-3.751-3.752zm26.424-3.669c-2.268 2.263-5.925 2.277-8.176.032l-67.87-67.871c-2.246-2.251-2.232-5.908.03-8.176l13.68-13.679c2.267-2.263 5.924-2.276 8.175-.031l67.871 67.871c2.245 2.251 2.231 5.908-.031 8.176l-13.679 13.678z"/>
    <path d="M123.901 107.487a1.927 1.927 0 0 0-2.725.01l-12.311 12.311-12.217-12.217a1.927 1.927 0 0 0-2.725.011 1.927 1.927 0 0 0-.01 2.725l13.574 13.574c.749.75 1.97.745 2.725-.01l13.679-13.679c.755-.755.76-1.976.01-2.725zM62.817 46.403c-4.498-4.498-11.82-4.47-16.352.062-4.532 4.533-4.56 11.854-.062 16.352 4.498 4.498 11.82 4.47 16.352-.063 4.525-4.535 4.553-11.85.062-16.351zM49.14 60.08c-2.999-2.998-2.98-7.88.041-10.9 3.022-3.022 7.903-3.041 10.901-.043 2.999 2.999 2.98 7.88-.041 10.901-3.024 3.017-7.9 3.036-10.901.042z"/>
    <path d="M58.714 50.507a1.927 1.927 0 0 0-2.725.01 1.927 1.927 0 0 0-.01 2.725c.749.75.744 1.97-.011 2.726a1.927 1.927 0 0 1-2.726.01 1.927 1.927 0 0 0-2.725.01 1.927 1.927 0 0 0-.01 2.726c2.249 2.249 5.91 2.235 8.175-.032 2.267-2.266 2.28-5.927.032-8.175zM91.219 102.161l-5.43-5.43a1.927 1.927 0 0 0-2.725.011 1.927 1.927 0 0 0-.01 2.725l5.429 5.43c.75.75 1.97.745 2.725-.01.756-.756.76-1.976.01-2.726z"/>
</svg>