<svg xmlns="http://www.w3.org/2000/svg" width="70" height="86" fill="none"><path fill="#EF4C4C" d="M51.767 17.899c-4.434-4.455-10.349-6.953-16.654-7.034-6.395-.083-12.441 2.34-17.028 6.819-4.584 4.477-7.12 10.435-7.139 16.776a23.593 23.593 0 0 0 8.171 17.907c3.774 3.27 5.939 7.92 5.939 12.757v11.94c0 4.566 3.742 8.28 8.342 8.28h2.8c4.6 0 8.342-3.715 8.342-8.28V65.277c0-4.975 2.123-9.645 5.826-12.813 5.264-4.504 8.284-11.04 8.284-17.932 0-6.268-2.445-12.175-6.883-16.633zM34.777 46.53h-1.114a1.101 1.101 0 0 1-1.104-1.097c0-.604.495-1.095 1.104-1.095.614 0 1.114.496 1.114 1.105v1.087zm.02 9.907c.927 0 1.68.747 1.68 1.667v5.667h-3.359v-5.667c0-.92.753-1.667 1.68-1.667zm6.384 10.668v2.451H28.415v-2.451h12.766zM28.415 72.89h12.766v2.451H28.415v-2.451zm7.782 9.119h-2.799a4.988 4.988 0 0 1-4.71-3.334h12.22a4.988 4.988 0 0 1-4.71 3.334zm11.975-32.07c-4.066 3.479-6.545 8.455-6.937 13.832h-1.398v-5.667c0-1.489-.66-2.826-1.702-3.743l.001-.022V48.86a5.347 5.347 0 0 0 2.26-4.36V41.92c0-3.552-2.91-6.441-6.49-6.441H30.88c-.928 0-1.68.746-1.68 1.667 0 .92.752 1.667 1.68 1.667h3.027c1.727 0 3.131 1.394 3.131 3.107v.613a4.478 4.478 0 0 0-3.374-1.528c-2.461 0-4.464 1.987-4.464 4.43 0 2.442 2.003 4.43 4.464 4.43h1.114v3.24c-2.769.01-5.018 2.25-5.018 5v5.667h-1.39C28 58.466 25.48 53.454 21.327 49.856a20.266 20.266 0 0 1-7.021-15.386c.016-5.444 2.195-10.562 6.136-14.41 3.942-3.851 9.133-5.933 14.628-5.862 11.15.144 20.22 9.266 20.22 20.334 0 5.921-2.594 11.537-7.118 15.408z"/><path fill="#EF4C4C" d="M35.137 18.972h-.026a1.67 1.67 0 0 0-1.691 1.648 1.68 1.68 0 0 0 1.669 1.686h.045c.918 0 1.66-.733 1.671-1.647.011-.921-.74-1.676-1.668-1.687zM42.525 20.928a1.687 1.687 0 0 0-2.285.646 1.66 1.66 0 0 0 .65 2.267c3.91 2.16 6.337 6.256 6.337 10.691 0 .92.752 1.667 1.68 1.667.928 0 1.68-.746 1.68-1.667 0-5.643-3.09-10.855-8.062-13.604zM34.798 7.834c.927 0 1.68-.746 1.68-1.667v-4.5c0-.92-.753-1.667-1.68-1.667-.928 0-1.68.746-1.68 1.667v4.5c0 .921.752 1.667 1.68 1.667zM67.916 32.865H63.38c-.928 0-1.68.746-1.68 1.667 0 .92.752 1.667 1.68 1.667h4.535c.928 0 1.68-.746 1.68-1.667 0-.92-.752-1.667-1.68-1.667zM6.215 32.865H1.68c-.928 0-1.68.746-1.68 1.667 0 .92.752 1.667 1.68 1.667h4.535c.928 0 1.68-.746 1.68-1.667 0-.92-.752-1.667-1.68-1.667zM56.197 53.41a1.69 1.69 0 0 0-2.376 0 1.659 1.659 0 0 0 0 2.358l3.207 3.182a1.684 1.684 0 0 0 2.375 0 1.658 1.658 0 0 0 0-2.357l-3.206-3.182zM13.399 15.653a1.68 1.68 0 0 0 1.188.489c.43 0 .86-.163 1.187-.489a1.657 1.657 0 0 0 0-2.357l-3.206-3.182a1.69 1.69 0 0 0-2.376 0 1.659 1.659 0 0 0 0 2.357l3.207 3.182zM57.028 10.114l-3.207 3.182a1.658 1.658 0 0 0 0 2.358 1.68 1.68 0 0 0 1.188.489c.43 0 .86-.163 1.188-.489l3.206-3.182a1.658 1.658 0 0 0 0-2.358 1.688 1.688 0 0 0-2.375 0zM13.399 53.41l-3.206 3.183a1.658 1.658 0 0 0 0 2.357 1.684 1.684 0 0 0 2.375 0l3.206-3.182a1.657 1.657 0 0 0 0-2.357 1.688 1.688 0 0 0-2.375 0z"/></svg>