<svg xmlns="http://www.w3.org/2000/svg" width="64" height="91" fill="none"><path fill="#EF4C4C" d="M31.992 0C14.352 0 0 14.352 0 31.992c0 5.96 1.651 11.777 4.776 16.823L30.17 89.74A2.666 2.666 0 0 0 32.436 91h.022a2.666 2.666 0 0 0 2.266-1.296l24.748-41.321a31.955 31.955 0 0 0 4.512-16.39C63.984 14.351 49.633 0 31.992 0zm22.904 45.645l-22.5 37.568L9.307 46.006c-2.6-4.2-4.01-9.046-4.01-14.014 0-14.7 11.995-26.696 26.695-26.696 14.7 0 26.678 11.996 26.678 26.696 0 4.82-1.317 9.542-3.774 13.653z"/><path fill="#EF4C4C" d="M31.992 15.996c-8.82 0-15.996 7.176-15.996 15.996 0 8.764 7.06 15.996 15.996 15.996 9.047 0 15.996-7.328 15.996-15.996 0-8.82-7.176-15.996-15.996-15.996zm0 26.696c-5.91 0-10.7-4.805-10.7-10.7 0-5.88 4.82-10.7 10.7-10.7 5.88 0 10.682 4.82 10.682 10.7 0 5.81-4.677 10.7-10.682 10.7z"/></svg>