<svg xmlns="http://www.w3.org/2000/svg" width="125" height="125">
    <path d="M62.5 76.613c5.558 0 10.08-4.523 10.08-10.08h-4.032A6.056 6.056 0 0 1 62.5 72.58a6.056 6.056 0 0 1-6.049-6.049H52.42c0 5.558 4.523 10.08 10.08 10.08zM52.42 54.435h20.16a6.056 6.056 0 0 0 6.05-6.048 6.056 6.056 0 0 0-6.05-6.048h-2.015v4.032h2.016c1.112 0 2.016.904 2.016 2.016a2.017 2.017 0 0 1-2.016 2.016H52.419a2.017 2.017 0 0 1-2.016-2.016c0-1.112.904-2.016 2.017-2.016h14.112v-4.032H52.42a6.056 6.056 0 0 0-6.049 6.048 6.056 6.056 0 0 0 6.048 6.048zM120.968 42.339H125v4.032h-4.032v-4.032zM120.968 50.403H125v4.032h-4.032v-4.032zM90.726 66.532H125v4.032H90.726v-4.032zM90.726 74.597H125v4.032H90.726v-4.032zM120.968 82.661H125v4.033h-4.032V82.66zM112.903 82.661h4.033v4.033h-4.033V82.66zM104.839 82.661h4.032v4.033h-4.032V82.66z"/>
    <path d="M120.968 18.145V0h-4.033v18.145h-4.032V6.048h-4.032v12.097h-4.032v-8.064h-4.033v8.064h-3.024l-3.957 5.279C91.143 13.62 82.863 5.966 72.58 4.365v-.333A4.036 4.036 0 0 0 68.548 0H56.452a4.036 4.036 0 0 0-4.033 4.032v.333a25.85 25.85 0 0 0-8.268 2.782C39.278 2.545 32.976 0 26.21 0 11.758 0 0 11.758 0 26.21 0 40.66 11.758 52.42 26.21 52.42v4.032a6.056 6.056 0 0 0 6.048 6.048h2.016v-4.032h-2.016a2.017 2.017 0 0 1-2.016-2.016v-16.13c0-1.112.904-2.016 2.016-2.016h6.048V59.96l-9.251 16.653h-4.861v-6.049H20.16v6.049H16.13V64.516h-4.032v12.097H8.065V56.452H4.032v20.16H0v4.033h31.43l7.725-13.907a24.233 24.233 0 0 0 9.232 13.357v6.907l-24.496 4.08a14.072 14.072 0 0 0-11.794 13.924V125h100.806v-19.994c0-6.93-4.959-12.782-11.794-13.92l-24.496-4.084v-6.907c5.579-4.026 9.377-10.357 9.978-17.595h6.15a6.056 6.056 0 0 0 6.05-6.048v-6.049h-4.033v6.049a2.018 2.018 0 0 1-2.016 2.016h-6.048V38.306h6.048c1.112 0 2.016.904 2.016 2.017v6.048h6.818l4.033 8.064h11.326v-4.032h-8.834l-2.016-4.032h10.85v-4.032H98.79v-2.016c0-2.625-1.69-4.843-4.032-5.678v-4.403c0-.425-.04-.843-.06-1.264l5.1-6.8H125v-4.033h-4.032zm-38.307 16.13H42.34v-4.033H82.66v4.032zm-8.064-8.065H50.403v-4.033h24.194v4.033zM68.548 4.032v14.113H56.452V4.032h12.096zM4.032 26.21c0-12.228 9.95-22.178 22.178-22.178 5.385 0 10.43 1.885 14.445 5.349a26.537 26.537 0 0 0-3.038 2.728A17.99 17.99 0 0 0 26.21 8.065c-4.057 0-7.9 1.32-11.118 3.822l2.474 3.186a13.96 13.96 0 0 1 8.644-2.976c3.266 0 6.346 1.104 8.845 3.126a26.374 26.374 0 0 0-2.11 3.523c-1.824-1.641-4.213-2.617-6.735-2.617-5.559 0-10.081 4.522-10.081 10.08 0 5.559 4.522 10.081 10.08 10.081.578 0 1.146-.062 1.707-.16a6.012 6.012 0 0 0-1.706 4.193c-7.78 0-14.113-6.333-14.113-14.113a13.96 13.96 0 0 1 2.976-8.644l-3.186-2.474c-2.502 3.219-3.822 7.06-3.822 11.118 0 10.005 8.139 18.145 18.145 18.145v4.032c-12.228 0-22.178-9.95-22.178-22.177zm26.21 4.032v.43c-1.107.997-2.528 1.586-4.032 1.586a6.056 6.056 0 0 1-6.049-6.048 6.056 6.056 0 0 1 6.049-6.049 5.995 5.995 0 0 1 5.084 2.782 25.866 25.866 0 0 0-1.052 7.299zm4.032 4.032v-4.032c0-10.716 7.809-19.89 18.145-21.804v9.707h-6.048v8.065h-8.065v8.064h-4.032zm15.438 56.594l9.68 9.681-9.638 6.885-3.208-16.039 3.166-.526zm43.03 30.1H68.548v-13.363l9.432 6.736 4.456-22.282 13.613 2.268a58.115 58.115 0 0 0-3.307 19.35v7.291zm-28.226-16.244v16.244h-4.032v-16.244l2.016-1.44 2.016 1.44zm-8.064 16.244H32.258v-7.289a58.066 58.066 0 0 0-3.307-19.35l13.613-2.268 4.456 22.281 9.432-6.737v13.363zm-40.323-15.962c0-4.948 3.542-9.13 8.424-9.946l.348-.058a54.094 54.094 0 0 1 3.325 18.677v7.289H16.129v-15.962zm92.742 0v15.962H96.774v-7.289a54.065 54.065 0 0 1 3.325-18.675l.348.058a10.049 10.049 0 0 1 8.424 9.944zm-30.415-13.61l-3.207 16.038-9.638-6.885 9.68-9.68 3.165.526zm-5.875-3.521L62.5 97.955l-10.08-10.08V82.45a24.016 24.016 0 0 0 10.08 2.227c3.601 0 7.008-.812 10.08-2.227v5.425zM62.5 80.645c-10.435 0-19.044-7.972-20.059-18.145h40.12C81.544 72.673 72.935 80.645 62.5 80.645zm20.161-22.177H42.34V38.306H82.66v20.162zM78.63 26.21v-8.065h-6.048v-9.71c10.334 1.913 18.145 11.093 18.145 21.807v4.032h-4.032V26.21h-8.065z"/>
</svg>