<svg xmlns="http://www.w3.org/2000/svg" width="124" height="125" fill="none"><path fill="#EF4C4C" d="M61.567 70.722a6.224 6.224 0 0 0-6.217 6.217v.976a6.225 6.225 0 0 0 6.217 6.217 6.224 6.224 0 0 0 6.217-6.217v-.976a6.224 6.224 0 0 0-6.217-6.217zm2.56 7.193a2.563 2.563 0 0 1-2.56 2.56 2.563 2.563 0 0 1-2.56-2.56v-.976a2.563 2.563 0 0 1 2.56-2.56 2.563 2.563 0 0 1 2.56 2.56v.976z"/><path fill="#EF4C4C" d="M83.404 67.886v-1.694h2.574c4.286 0 7.773-3.486 7.773-7.772a7.724 7.724 0 0 0-2.804-5.977v-6.905c0-.315-.021-.625-.058-.93V33.103c0-4.187-3.332-7.611-7.485-7.758v-.713c0-5.64-4.587-10.246-10.226-10.27l-5.437-.022a3.902 3.902 0 0 0-3.856-3.356H58.76a3.902 3.902 0 0 0-3.856 3.349H52.63c-3.656 0-7.02 1.26-9.473 3.55-2.095 1.955-3.409 4.557-3.796 7.459-4.208.085-7.606 3.534-7.606 7.762v19.29a7.71 7.71 0 0 0-2.861 6.026c0 4.286 3.486 7.772 7.772 7.772h2.574v1.694c0 8.335 4.642 15.605 11.476 19.363v4.913h-7.273c-.123 0-.246.013-.366.037-6.029 1.234-10.404 6.601-10.404 12.763v15.497a4.153 4.153 0 0 0 4.148 4.148h49.004a4.152 4.152 0 0 0 4.147-4.148v-15.497c0-7.184-5.844-13.028-13.027-13.028h-5.016V87.25c6.833-3.758 11.475-11.028 11.475-19.363zm6.372-11.055a4.119 4.119 0 0 1-3.798 5.704h-2.574v-2.06a7.733 7.733 0 0 0 6.372-3.644zM67.783 17.997l5.38.023c3.63.015 6.584 2.981 6.584 6.612v2.537c0 1.01.818 1.828 1.828 1.828h1.55a4.11 4.11 0 0 1 4.107 4.106v5.83a7.686 7.686 0 0 0-4.018-1.128h-15.43V17.997zM35.412 33.104a4.106 4.106 0 0 1 4.106-4.107h1.55c1.018 0 1.827-.832 1.829-1.85.01-5.307 4.1-9.157 9.732-9.157h2.231v3.676a1.829 1.829 0 1 0 3.658 0v-6.783c0-.133.108-.242.241-.242h5.125c.133 0 .242.109.242.242v22.922h-5.608v-4.24a1.829 1.829 0 1 0-3.658 0v4.24H39.917c-1.68 0-3.236.54-4.505 1.454v-6.155zm3.828 29.431h-2.575a4.12 4.12 0 0 1-3.572-6.165 7.742 7.742 0 0 0 6.147 4.08v2.085zm-3.398-9.787v-7.21a4.08 4.08 0 0 1 4.075-4.076h43.297a4.079 4.079 0 0 1 4.018 3.42v8.254c0 .067.004.133.01.197a4.078 4.078 0 0 1-4.028 3.49H39.918a4.08 4.08 0 0 1-4.075-4.075zm41.102 42.844c5.167 0 9.37 4.203 9.37 9.37v15.498c0 .27-.22.49-.49.49h-6.696v-12.801a1.828 1.828 0 1 0-3.658 0v12.801H47.66v-12.801a1.828 1.828 0 0 0-3.656 0v12.801H36.82a.49.49 0 0 1-.49-.49v-15.498c0-4.373 3.062-8.19 7.306-9.142h7.659c1.138 2.727 3.832 4.649 6.967 4.649h6.12c3.221 0 5.976-2.03 7.057-4.877h5.505zm-22.571-2.67v-4.075a21.992 21.992 0 0 0 6.949 1.121c2.426 0 4.763-.394 6.949-1.121v4.075a3.894 3.894 0 0 1-3.89 3.89h-6.12a3.894 3.894 0 0 1-3.888-3.89zm6.949-6.611c-10.16 0-18.425-8.266-18.425-18.425v-7.405h36.85v7.405c0 10.16-8.266 18.425-18.425 18.425z"/><path fill="#EF4C4C" d="M79.732 44.144H43.527c-2.773 0-5.137 2.152-5.242 4.923a5.126 5.126 0 0 0 5.117 5.318h18.333c1.03 0 1.855-.87 1.785-1.898l-.005-.08a1.788 1.788 0 0 0-1.785-1.68H43.452c-.743 0-1.407-.532-1.501-1.27a1.465 1.465 0 0 1 1.45-1.655h36.28c.743 0 1.407.533 1.501 1.27a1.465 1.465 0 0 1-1.45 1.656h-6.658c-.973 0-1.761.778-1.788 1.75l-.002.047a1.794 1.794 0 0 0 1.788 1.86h6.534c2.773 0 5.137-2.152 5.242-4.923a5.125 5.125 0 0 0-5.116-5.318zM123.619 12.752l-3.596-6.23a1.83 1.83 0 0 0-1.584-.914h-6.679L109.05.914A1.829 1.829 0 0 0 107.467 0h-7.193c-.654 0-1.257.349-1.584.914l-3.596 6.23a1.828 1.828 0 0 0 0 1.828l2.92 5.06-2.92 5.06a1.828 1.828 0 0 0 0 1.828l3.596 6.23c.327.565.93.914 1.584.914h7.193c.653 0 1.257-.349 1.583-.915l3.132-5.425h6.257a1.83 1.83 0 0 0 1.584-.914l3.596-6.23a1.828 1.828 0 0 0 0-1.828zm-22.29-9.095h5.082l2.453 4.249-2.334 4.042h-5.495l-2.246-3.89 2.54-4.4zm5.082 20.749h-5.082l-2.54-4.4 2.246-3.89h5.671l2.245 3.89-2.54 4.4zm10.972-6.34h-5.081l-2.453-4.247 2.628-4.554h4.906l2.54 4.401-2.54 4.4zM38.233 18.59l-6.096-6.095a1.828 1.828 0 0 0-1.293-.536h-10.24c-.216 0-.42.04-.612.107-1.011-4.52-5.053-7.91-9.873-7.91C4.539 4.157 0 8.697 0 14.277c0 5.58 4.54 10.118 10.119 10.118 5.144 0 9.401-3.86 10.035-8.835.144.036.294.058.45.058h9.483l5.56 5.56c.357.357.825.535 1.293.535a1.829 1.829 0 0 0 1.293-3.122zm-28.114 2.147a6.469 6.469 0 0 1-6.462-6.461 6.469 6.469 0 0 1 6.462-6.462 6.469 6.469 0 0 1 6.461 6.462 6.469 6.469 0 0 1-6.461 6.46zM27.674 70.722H3.536a1.829 1.829 0 1 0 0 3.657h24.138a1.829 1.829 0 1 0 0-3.657zM16.946 78.768H3.536a1.829 1.829 0 1 0 0 3.657h13.41a1.829 1.829 0 1 0 0-3.657zM27.675 78.768H23.53a1.829 1.829 0 1 0 0 3.657h4.145a1.829 1.829 0 1 0 0-3.657zM27.674 86.814H15.726a1.829 1.829 0 1 0 0 3.658h11.948a1.829 1.829 0 1 0 0-3.658zM7.925 86.814h-4.39a1.829 1.829 0 1 0 0 3.658h4.39a1.829 1.829 0 1 0 0-3.658zM15.97 94.86H3.537a1.829 1.829 0 1 0 0 3.658H15.97a1.829 1.829 0 1 0 0-3.657zM27.186 94.86h-4.389a1.829 1.829 0 1 0 0 3.658h4.39a1.829 1.829 0 1 0 0-3.657zM115.462 72.672H99.839a5.24 5.24 0 0 0-5.233 5.234V91.82a5.24 5.24 0 0 0 5.233 5.234h15.623a5.24 5.24 0 0 0 5.233-5.234V77.906a5.24 5.24 0 0 0-5.233-5.234zm0 20.726H99.839a1.578 1.578 0 0 1-1.576-1.576v-8.244h18.774v8.244c0 .869-.706 1.576-1.575 1.576zm1.575-13.477H98.263v-2.015c0-.87.707-1.576 1.576-1.576h15.623c.868 0 1.575.707 1.575 1.576v2.015z"/></svg>