<svg xmlns="http://www.w3.org/2000/svg" width="125" height="125" fill="none"><path fill="#EF4C4C" d="M79.47 38.104a2.464 2.464 0 0 0-.667-1.246 2.471 2.471 0 0 0-1.244-.664 2.407 2.407 0 0 0-1.407.139 2.381 2.381 0 0 0-.79.525 2.412 2.412 0 0 0-.664 1.246 2.378 2.378 0 0 0-.05.475 2.451 2.451 0 0 0 1.084 2.025 2.456 2.456 0 0 0 1.35.409c.643 0 1.268-.26 1.72-.713a2.452 2.452 0 0 0 .668-2.196z"/><path fill="#EF4C4C" d="M111.084 53.511a2.435 2.435 0 0 0-3.319 2.267v19.098c-2.908 1.041-6.322 2.015-10.198 2.871-1.643-6.681-7.679-11.588-14.795-11.588H71.556l-.628-2.171A22.545 22.545 0 0 0 84.27 48.08h3.212a2.434 2.434 0 0 0 2.434-2.434V31.512c0-.227-.033-.445-.091-.654.759-3.75.937-7.579.525-11.399-.651-6.04-2.09-13.452-7.481-17.188C79.386-.142 74.727-.635 69.016.807c-1.124.169-10.407 1.53-19.212 1.882-.173.007-.349.017-.527.029-4.856.329-9.199 3.428-12.227 8.726-3.256 5.696-4.014 12.466-2.171 18.862a2.42 2.42 0 0 0-.323 1.207v14.134a2.434 2.434 0 0 0 2.434 2.434h3.212a22.545 22.545 0 0 0 13.341 15.907l-.627 2.171H41.7c-7.117 0-13.153 4.907-14.796 11.589-3.876-.857-7.29-1.83-10.197-2.871V55.779a2.435 2.435 0 0 0-3.32-2.267C4.506 56.98 0 61.245 0 66.186v38.565c0 5.916 6.663 10.984 19.27 14.656 11.51 3.353 26.769 5.2 42.967 5.2 16.197 0 31.457-1.847 42.967-5.2 12.606-3.672 19.269-8.74 19.269-14.656V66.185c0-4.94-4.505-9.205-13.389-12.674zM85.048 43.212H51.845v-2.199h17.161a2.434 2.434 0 0 0 0-4.868H51.845v-2.199h33.204v9.267zM79.945 29.08H44.527v-1.66h18.877c.566 0 1.114-.197 1.55-.558l4.925-4.07 5.56 4.146c.421.313.931.482 1.456.482h3.05v1.66zm-38.669-15.22c1.27-2.223 4.042-5.995 8.33-6.285.132-.01.264-.016.393-.021C59.626 7.167 69.456 5.664 69.87 5.6c.08-.012.157-.028.235-.048 4.396-1.128 7.664-.892 9.991.72 2.902 2.011 4.623 6.368 5.415 13.71a32.363 32.363 0 0 1-.301 9.097h-.397v-4.094a2.434 2.434 0 0 0-2.434-2.434h-4.677l-6.446-4.804a2.435 2.435 0 0 0-3.005.075l-5.722 4.73H42.094a2.434 2.434 0 0 0-2.434 2.434v4.093h-.068c-1.523-5.172-.934-10.64 1.684-15.22zm-1.852 29.354v-9.267h7.553v9.267h-7.552zm5.798 4.867h34.029a17.688 17.688 0 0 1-11.985 12.05 2.434 2.434 0 0 0-1.648 3.01l1.77 6.126v.002l.382 1.322-5.534 3.353-5.533-3.353.382-1.322v-.002l1.77-6.127a2.434 2.434 0 0 0-1.648-3.01A17.687 17.687 0 0 1 45.222 48.08zm-3.521 22.946h9.809l-.001.003a2.434 2.434 0 0 0 1.077 2.757l8.389 5.085a2.433 2.433 0 0 0 2.523 0l8.389-5.085c.94-.57 1.382-1.7 1.077-2.757l-.001-.003h9.809c4.766 0 8.822 3.233 10.015 7.669-8.035 1.42-17.08 2.253-26.49 2.439h-.015c-.598.012-1.198.02-1.798.027l-.321.003a202.35 202.35 0 0 1-3.853 0c-.108 0-.214-.002-.321-.003-.6-.007-1.2-.015-1.798-.027h-.016c-9.41-.186-18.454-1.018-26.49-2.44a10.381 10.381 0 0 1 10.016-7.668zm37.63 39.419l-.079.007c-.636.059-1.275.115-1.917.167l-.32.025a177.042 177.042 0 0 1-7.9.453l-.701.024c-.53.017-1.061.032-1.594.044-.174.005-.349.008-.523.012-.592.012-1.185.023-1.78.03l-.28.002a189.985 189.985 0 0 1-4.501-.005l-.03-.001c-5.852-.078-11.673-.425-17.144-1.02l1.563-1.932 3.876-4.79 4.447 2.391c.097.052.198.096.3.134.034.013.07.022.104.033.068.022.136.044.206.059.041.01.083.016.125.024a2.53 2.53 0 0 0 .324.035c.031.001.062.005.093.005.051 0 .102-.003.152-.006l.027-.001c.1-.007.2-.022.299-.042l.048-.009a2.557 2.557 0 0 0 .61-.223l.033-.019c.094-.052.186-.108.274-.173l2.151-1.582 2.152-1.582 4.303 3.165a2.432 2.432 0 0 0 2.883 0l4.507-3.314 3.095 1.664 5.198 6.425zm-2.533-10.87l6.236-6.18 14.329 14.2-.445.106c-2.399.562-6.389 1.26-11.867 2.074l-8.253-10.2zm-39.911 9.881c-.377-.056-.751-.112-1.123-.171l-.03-.004c-.36-.057-.716-.114-1.07-.173l-.061-.01a129.26 129.26 0 0 1-1.026-.175l-.08-.014c-.34-.059-.677-.12-1.012-.182l-.065-.011c-.714-.132-1.417-.269-2.107-.41l-.032-.007c-.319-.065-.633-.131-.946-.198l-.362-.08a83.986 83.986 0 0 1-.604-.133l-.104-.024 13.174-11.31 3.474 2.983-8.026 9.919zm28.202-8.769l-4.303-3.164a2.432 2.432 0 0 0-2.884 0l-4.505 3.313-2.281-1.226 9.724-12.018 8.228 10.17-3.979 2.925zM11.84 59.498V72.85c-1.296-.633-2.421-1.277-3.365-1.923-1.914-1.324-3.122-2.673-3.489-3.94l-.002-.008a3.134 3.134 0 0 1-.116-.793c0-2.101 2.548-4.508 6.972-6.688zm107.765 45.254c0 6.258-21.825 14.987-57.369 14.987s-57.369-8.73-57.369-14.988V74.343c1.4 1.064 3.103 2.077 5.103 3.038l.102.049c.205.098.414.195.625.291.096.045.192.09.29.133l.214.095a51.107 51.107 0 0 0 2.19.911 70.151 70.151 0 0 0 5.877 1.982c9.869 2.875 22.494 4.64 36.103 5.087l.237.007.301.01-7.933 9.804-4.952-4.251a2.434 2.434 0 0 0-3.171 0l-17.31 14.862a67.803 67.803 0 0 1-1.33-.421 2.434 2.434 0 1 0-1.525 4.623c.88.29 1.806.573 2.767.846l.004.001.044.012c.283.081.569.16.859.239l.114.031c.276.075.555.149.837.222l.15.039c.27.07.545.139.822.207l.17.043a99.843 99.843 0 0 0 2.145.501l.34.074c.298.065.599.129.902.193l.32.067c.4.082.803.164 1.21.243l.152.029c.36.069.723.138 1.088.205l.364.066c.33.06.661.119.995.176l.291.051c.423.072.848.142 1.276.211l.279.044 1.043.161.39.058c.374.055.752.109 1.13.162l.162.024.033.004.064.009c.403.055.809.109 1.216.162l.098.013.016.002v.001h.002l.344.042c.313.04.627.079.943.117l.387.046c5.794.683 11.983 1.09 18.3 1.196l.272.004a158.138 158.138 0 0 0 1.559.018 202.66 202.66 0 0 0 4.163-.013l.352-.006c.774-.012 1.545-.028 2.315-.049l.556-.016a167.24 167.24 0 0 0 3.007-.114c.665-.031 1.329-.064 1.989-.101l.802-.047a183.428 183.428 0 0 0 7.552-.616l.345-.036c.788-.084 1.57-.172 2.344-.265l.126-.014h.001l.017-.003c4.909-.595 9.526-1.387 13.683-2.362.391-.091.77-.183 1.143-.275l.232-.058a76.859 76.859 0 0 0 1.095-.281c8.465-2.231 12.091-4.565 13.308-5.52a2.434 2.434 0 0 0-3.007-3.829c-.458.36-2.617 1.891-8.03 3.623L84.746 88.24a2.434 2.434 0 0 0-3.427 0l-7.6 7.532-7.898-9.762c1.019-.017 2.033-.041 3.042-.073l.237-.008c13.609-.445 26.235-2.212 36.103-5.087a69.913 69.913 0 0 0 5.877-1.981h.003l.019-.009a51.985 51.985 0 0 0 2.168-.903l.215-.094.289-.133c.211-.097.42-.194.625-.291l.102-.05c2-.96 3.702-1.973 5.103-3.038v30.409h.001zm-.014-38.312l-.01.09c-.006.053-.016.107-.025.161a3.055 3.055 0 0 1-.067.288l-.002.008c-.367 1.267-1.575 2.616-3.489 3.94-.944.645-2.069 1.29-3.365 1.923V59.499c4.423 2.18 6.972 4.586 6.972 6.687 0 .084-.006.169-.014.254z"/><path fill="#EF4C4C" d="M13.727 102.52l-.054-.043a2.434 2.434 0 0 0-3.007 3.828l.054.043c.446.351.976.52 1.502.52a2.43 2.43 0 0 0 2.435-2.433c0-.721-.319-1.435-.93-1.915z"/></svg>