<svg xmlns="http://www.w3.org/2000/svg" width="153" height="149" fill="none"><path fill="#EF4C4C" d="M63.8 64.678a2.69 2.69 0 1 0 0-5.38 2.69 2.69 0 0 0 0 5.38zM89.648 64.827a2.69 2.69 0 1 0 0-5.379 2.69 2.69 0 0 0 0 5.379zM66.043 46h-4.746a5.384 5.384 0 0 0-5.377 5.377 5.383 5.383 0 0 0 5.377 5.378h4.746a5.384 5.384 0 0 0 5.377-5.378A5.383 5.383 0 0 0 66.043 46zm0 6.272h-4.746a.896.896 0 0 1 0-1.79h4.746a.896.896 0 0 1 0 1.79zM92.002 46h-4.746a5.384 5.384 0 0 0-5.377 5.377 5.383 5.383 0 0 0 5.377 5.378h4.746a5.384 5.384 0 0 0 5.377-5.378A5.383 5.383 0 0 0 92.002 46zm0 6.272h-4.746a.896.896 0 0 1 0-1.79h4.746a.896.896 0 0 1 0 1.79zM84.419 71.998H68.282a2.241 2.241 0 0 0-2.241 2.241v1.494c0 5.685 4.625 10.31 10.31 10.31 5.684 0 10.31-4.625 10.31-10.31V74.24a2.241 2.241 0 0 0-2.242-2.241zm-8.068 9.563a5.836 5.836 0 0 1-5.78-5.08h11.56a5.836 5.836 0 0 1-5.78 5.08z"/><path fill="#EF4C4C" d="M147.435 24.783h-35.213c-1.106-3.879-4.615-6.755-8.808-6.903V2.24a2.24 2.24 0 0 0-2.764-2.18L87.408 3.238a2.226 2.226 0 0 0-.306.097 14.759 14.759 0 0 1-5.478 1.05H65.996c-8.715 0-15.469 5.66-16.555 13.491-4.261.084-7.842 2.983-8.962 6.908H5.565A5.571 5.571 0 0 0 0 30.348v101.828a5.57 5.57 0 0 0 5.564 5.564h35.674v5.376a5.089 5.089 0 0 0 5.084 5.083h60.057a5.09 5.09 0 0 0 5.084-5.083v-5.376h35.972a5.57 5.57 0 0 0 5.565-5.564V30.348a5.57 5.57 0 0 0-5.565-5.565zm-37.317 33.632a5.049 5.049 0 0 1-5.043 5.044h-1.661V53.372h1.661a5.049 5.049 0 0 1 5.043 5.043zm-60.49-36.059h1.9a2.241 2.241 0 0 0 2.242-2.241c0-6.518 5.142-11.25 12.226-11.25h15.627c2.4 0 4.747-.439 6.982-1.306L98.93 5.083v15.032a2.241 2.241 0 0 0 2.241 2.241h1.9c1.821 0 3.414.975 4.297 2.427H45.331a5.03 5.03 0 0 1 4.298-2.427zm-5.032 6.91h63.509v20.12a9.48 9.48 0 0 0-3.03-.496h-1.661V37.828a2.242 2.242 0 0 0-2.234-2.242l-11.766-.04-3.215-4.205a2.242 2.242 0 0 0-3.685.18 15.996 15.996 0 0 1-13.674 7.606H51.528a2.241 2.241 0 0 0-2.241 2.241v7.521h-1.661c-1.06 0-2.077.177-3.03.497v-20.12zM76.35 92.598c-12.452 0-22.581-10.13-22.581-22.58V43.608h15.07c6.099 0 11.74-2.632 15.616-7.169l2.067 2.704a2.24 2.24 0 0 0 1.773.88l10.635.037v29.956c0 12.451-10.13 22.58-22.58 22.58zm8.516 3.108v4.979H67.834v-4.979c2.68.89 5.542 1.374 8.517 1.374 2.974 0 5.837-.483 8.516-1.374zm-37.24-42.334h1.66v10.087h-1.66a5.049 5.049 0 0 1-5.044-5.044 5.05 5.05 0 0 1 5.043-5.043zm-6.389 70.75v9.136H5.564a1.084 1.084 0 0 1-1.082-1.082V30.348c0-.597.486-1.082 1.082-1.082h34.55v23.303a9.475 9.475 0 0 0-2.013 5.847c0 5.252 4.273 9.525 9.525 9.525h1.661v2.076c0 10.215 5.69 19.125 14.065 23.73v6.938h-.449a2.242 2.242 0 0 0-2.24 2.242v5.508h-6.225c-.15 0-.301.015-.449.045-7.388 1.512-12.75 8.091-12.75 15.642zm13.888 19.595h-8.804c-.332 0-.601-.27-.601-.601v-5.376h9.405v5.977zm38.565 0H59.608v-5.977h34.083v5.977zm13.289-.601a.602.602 0 0 1-.601.601h-8.206v-5.977h8.807v5.376zm0-9.858h-8.807v-5.23a2.24 2.24 0 1 0-4.482 0v5.23H59.608v-5.23a2.24 2.24 0 1 0-4.482 0v5.23H45.72v-9.136c0-5.359 3.753-10.036 8.954-11.205h8.228a2.24 2.24 0 0 0 2.241-2.241v-5.508h22.711v5.229a2.242 2.242 0 0 0 2.242 2.242h5.4c6.332 0 11.483 5.151 11.483 11.483v9.136zm41.538-1.082c0 .596-.486 1.082-1.083 1.082h-35.972v-9.136c0-8.804-7.162-15.966-15.966-15.966h-3.16v-5.229a2.242 2.242 0 0 0-2.24-2.242h-.747v-6.937c8.375-4.607 14.064-13.516 14.064-23.73V67.94h1.661c5.252 0 9.526-4.273 9.526-9.525a9.476 9.476 0 0 0-2.014-5.847V29.266h34.848c.597 0 1.083.486 1.083 1.082v101.828z"/><path fill="#EF4C4C" d="M139.403 105.168h-19.125a2.241 2.241 0 0 0-2.241 2.241v19.125a2.241 2.241 0 0 0 2.241 2.241h19.125a2.241 2.241 0 0 0 2.242-2.241v-19.125a2.241 2.241 0 0 0-2.242-2.241zm-2.241 19.125H122.52V109.65h14.642v14.643zM139.403 66.021h-13.148a2.24 2.24 0 0 0-2.241 2.242v4.042a2.24 2.24 0 1 0 4.482 0v-1.801h8.666v21.515h-8.666v-5.131a2.24 2.24 0 1 0-4.482 0v7.373a2.24 2.24 0 0 0 2.241 2.24h13.148a2.242 2.242 0 0 0 2.242-2.24V68.263a2.242 2.242 0 0 0-2.242-2.242zM131.933 37.334c-6.015 0-10.908 4.893-10.908 10.907s4.893 10.907 10.908 10.907c6.014 0 10.907-4.893 10.907-10.907s-4.893-10.907-10.907-10.907zm0 17.332a6.432 6.432 0 0 1-6.425-6.425 6.432 6.432 0 0 1 6.425-6.425 6.432 6.432 0 0 1 6.424 6.425 6.432 6.432 0 0 1-6.424 6.425zM33.618 97.536a2.241 2.241 0 0 0 2.241-2.241v-7.31a2.241 2.241 0 0 0-2.24-2.24H13.297a2.241 2.241 0 0 0-2.241 2.24v38.549a2.241 2.241 0 0 0 2.24 2.241h20.321a2.24 2.24 0 0 0 2.241-2.241v-16.656a2.24 2.24 0 1 0-4.482 0v14.415H15.539V90.226h15.838v5.069a2.241 2.241 0 0 0 2.241 2.24zM67.685 115.328c-4.037 0-7.322 3.284-7.322 7.321s3.285 7.322 7.322 7.322c4.036 0 7.32-3.285 7.32-7.322s-3.284-7.321-7.32-7.321zm0 10.16a2.842 2.842 0 0 1-2.84-2.839 2.842 2.842 0 0 1 2.84-2.839 2.842 2.842 0 0 1 2.838 2.839 2.842 2.842 0 0 1-2.838 2.839zM90.097 116.225h-10.16a2.24 2.24 0 0 0-2.242 2.241v9.562a2.24 2.24 0 0 0 2.242 2.241h10.16a2.24 2.24 0 0 0 2.24-2.241v-9.562a2.24 2.24 0 0 0-2.24-2.241zm-2.241 9.562h-5.678v-5.08h5.678v5.08zM23.458 34.346h-10.16a2.241 2.241 0 0 0-2.241 2.24v41.538a2.241 2.241 0 0 0 2.24 2.241h10.161a2.241 2.241 0 0 0 2.241-2.241V36.587a2.241 2.241 0 0 0-2.241-2.241zm-2.241 41.537h-5.678V38.828h5.678v37.055z"/></svg>