<svg xmlns="http://www.w3.org/2000/svg" width="153" height="153" fill="none"><path fill="#EF4C4C" d="M133.33 80.73L72.263 19.665c-3.961-3.961-10.407-3.962-14.369 0-2.905 2.905-3.676 7.146-2.32 10.764L43.05 53.683a2.989 2.989 0 0 0 5.262 2.834l11.223-20.842 57.777 57.777-75.533 40.472-22.847-22.847 18.084-33.584a2.989 2.989 0 0 0-5.262-2.834l-19.093 35.458-8.676 8.676c-5.315 5.315-5.315 13.964 0 19.279l10.935 10.935a13.59 13.59 0 0 0 9.64 3.987 13.59 13.59 0 0 0 9.64-3.987l7.105-7.105 7.469 7.469a11.656 11.656 0 0 0 8.244 3.396c1.932 0 3.875-.477 5.637-1.457l31.346-17.443a9.957 9.957 0 0 0 5.06-7.383 9.954 9.954 0 0 0-2.843-8.485l-4.209-4.209 30.552-16.37a10.21 10.21 0 0 0 3.583.65c2.602 0 5.204-.99 7.185-2.97a10.093 10.093 0 0 0 2.975-7.184c0-2.715-1.056-5.266-2.975-7.185zM29.975 144.781c-2.985 2.985-7.842 2.985-10.827 0L8.213 133.846c-2.985-2.985-2.985-7.842 0-10.827l7.105-7.105 7.025 7.025 14.737 14.737-7.105 7.105zm62.018-22.556a4.027 4.027 0 0 1 1.15 3.432 4.029 4.029 0 0 1-2.047 2.987l-31.347 17.443a5.677 5.677 0 0 1-6.748-.942l-6.806-6.806 40.312-21.6 5.486 5.486zm37.111-31.352a4.189 4.189 0 0 1-5.917 0L62.12 29.806a4.189 4.189 0 0 1 0-5.916 4.171 4.171 0 0 1 2.958-1.224 4.17 4.17 0 0 1 2.959 1.224l61.067 61.067c.79.79 1.225 1.84 1.225 2.958a4.158 4.158 0 0 1-1.225 2.958zM129.315 26.65a2.98 2.98 0 0 0 2.113-.876L152.1 5.1a2.989 2.989 0 0 0-4.226-4.226l-20.673 20.673a2.989 2.989 0 0 0 2.114 5.101zM120.863 35.1c.786 0 1.557-.32 2.113-.875a3.01 3.01 0 0 0 .876-2.113 3.01 3.01 0 0 0-.876-2.113 3.013 3.013 0 0 0-2.113-.875 3.02 3.02 0 0 0-2.115.875 3.008 3.008 0 0 0-.873 2.113c0 .786.317 1.557.873 2.113a3.015 3.015 0 0 0 2.115.875zM104.117 30.63a2.988 2.988 0 0 0 2.988-2.988V2.988a2.988 2.988 0 0 0-5.976 0v24.654a2.988 2.988 0 0 0 2.988 2.988zM149.987 45.87h-24.653a2.988 2.988 0 0 0 0 5.977h24.653a2.99 2.99 0 0 0 0-5.977zM137.661 123.117a2.988 2.988 0 0 0-2.988 2.988v4.308a2.988 2.988 0 0 0 5.976 0v-4.308a2.988 2.988 0 0 0-2.988-2.988zM137.661 142.716a2.988 2.988 0 0 0-2.988 2.988v4.308a2.988 2.988 0 0 0 5.976 0v-4.308a2.988 2.988 0 0 0-2.988-2.988zM149.614 135.07h-4.307a2.99 2.99 0 0 0 0 5.977h4.307a2.988 2.988 0 0 0 0-5.977zM130.015 135.07h-4.307a2.989 2.989 0 0 0 0 5.977h4.307a2.99 2.99 0 0 0 0-5.977zM19.1 14.467a2.989 2.989 0 0 0 2.989-2.988V7.172a2.989 2.989 0 0 0-5.977 0v4.307a2.988 2.988 0 0 0 2.989 2.989zM19.1 34.066a2.989 2.989 0 0 0 2.989-2.988v-4.307a2.989 2.989 0 0 0-5.977 0v4.307a2.989 2.989 0 0 0 2.989 2.988zM26.746 22.113h4.308a2.989 2.989 0 0 0 0-5.976h-4.308a2.989 2.989 0 0 0 0 5.976zM7.147 22.113h4.308a2.989 2.989 0 0 0 0-5.976H7.147a2.989 2.989 0 0 0 0 5.976z"/><path fill="#EF4C4C" d="M42.538 92.123a2.988 2.988 0 0 0 2.064 2.386l10.79 3.354 3.353 10.788a2.988 2.988 0 0 0 5.293.838l6.523-9.224 11.298.144a2.969 2.969 0 0 0 2.7-1.63 2.988 2.988 0 0 0-.267-3.145l-6.758-9.055 3.63-10.7a2.989 2.989 0 0 0-3.79-3.79l-10.7 3.63-9.055-6.758a2.99 2.99 0 0 0-4.775 2.433l.144 11.298-9.225 6.523a2.99 2.99 0 0 0-1.225 2.908zm15.184-5.458a2.989 2.989 0 0 0 1.263-2.478l-.087-6.814 5.46 4.075a2.987 2.987 0 0 0 2.747.436l6.454-2.189-2.188 6.454a2.988 2.988 0 0 0 .435 2.746l4.075 5.461-6.813-.087h-.039c-.969 0-1.879.47-2.44 1.263l-3.934 5.564-2.023-6.507a2.987 2.987 0 0 0-1.966-1.967L52.159 90.6l5.563-3.934zM40.01 68.62a3 3 0 0 0 2.113-.876 3.007 3.007 0 0 0 .875-2.112c0-.786-.32-1.554-.875-2.113a3.012 3.012 0 0 0-2.113-.876 3.01 3.01 0 0 0-2.113.876 3.012 3.012 0 0 0-.875 2.113c0 .788.32 1.556.875 2.112a3.01 3.01 0 0 0 2.113.876z"/></svg>