<svg xmlns="http://www.w3.org/2000/svg" width="87" height="130" fill="none"><path fill="#EF4C4C" fill-rule="evenodd" d="M86.234 25.43a2.517 2.517 0 0 0-.045-.409v-.001a2.651 2.651 0 0 0-.087-.317l-.029-.077a2.75 2.75 0 0 0-.126-.288l-.008-.015a2.496 2.496 0 0 0-.177-.28l-.05-.067a2.569 2.569 0 0 0-.222-.256L62.337.744a2.576 2.576 0 0 0-.258-.22c-.023-.017-.046-.035-.07-.05a2.428 2.428 0 0 0-.28-.175l-.02-.01a2.69 2.69 0 0 0-.683-.24h-.002A2.732 2.732 0 0 0 60.7.008l-.084-.004C60.585.003 60.557 0 60.528 0H2.558A2.549 2.549 0 0 0 0 2.54v108.677a2.549 2.549 0 0 0 2.559 2.539h38.52v13.705c0 .923.506 1.774 1.32 2.221.816.448 1.81.421 2.6-.07l9.744-6.067 9.744 6.067a2.576 2.576 0 0 0 2.599.071 2.536 2.536 0 0 0 1.32-2.222v-13.705H83.68a2.549 2.549 0 0 0 2.558-2.539V25.516c0-.03-.003-.058-.004-.087zM63.086 8.67l14.417 14.307H63.086V8.669zM39.817 78.423c-.18-.485-.473-1.277-.48-1.602.2-.246.894-.681 1.319-.947.911-.571 1.944-1.22 2.694-2.233.757-1.025 1.064-2.208 1.336-3.252.12-.456.311-1.193.475-1.472.09-.018.279-.045.634-.045.285 0 .603.016.941.033.388.018.788.038 1.206.038.921 0 1.665-.103 2.34-.326 1.178-.389 2.12-1.142 2.952-1.806.46-.367 1.229-.982 1.497-1.02.293.038 1.061.653 1.521 1.02.831.664 1.775 1.417 2.953 1.806.675.223 1.418.326 2.34.326.417 0 .818-.02 1.204-.038.338-.017.657-.033.943-.033.355 0 .543.026.634.045.163.28.355 1.016.473 1.472.272 1.044.58 2.227 1.337 3.252.75 1.013 1.782 1.66 2.695 2.233.424.267 1.117.701 1.317.947-.007.325-.3 1.117-.478 1.602-.381 1.029-.812 2.195-.812 3.487 0 1.293.43 2.46.81 3.489.18.485.473 1.277.48 1.601-.2.246-.893.68-1.317.948-.913.57-1.946 1.22-2.695 2.233-.756 1.025-1.065 2.208-1.337 3.251-.118.456-.31 1.193-.474 1.472-.09.019-.278.046-.633.046-.286 0-.605-.016-.943-.033-.386-.019-.787-.039-1.204-.039-.922 0-1.665.104-2.34.327-1.178.388-2.121 1.142-2.953 1.806-.453.363-1.208.965-1.51 1.018-.3-.053-1.055-.655-1.507-1.018-.833-.664-1.775-1.418-2.954-1.806-.674-.223-1.418-.327-2.34-.327-.416 0-.817.02-1.205.04-.337.016-.655.032-.941.032-.355 0-.543-.027-.634-.046-.164-.279-.356-1.015-.475-1.472-.27-1.043-.58-2.226-1.336-3.25-.748-1.015-1.782-1.663-2.694-2.234-.424-.266-1.118-.702-1.318-.948.007-.323.3-1.116.479-1.601.38-1.029.812-2.195.812-3.488 0-1.293-.432-2.46-.812-3.488zm23.472 44.447l-7.186-4.475a2.584 2.584 0 0 0-2.72 0l-7.187 4.475v-22.85c.272-.008.54-.018.798-.03.339-.019.659-.034.947-.034.454 0 .648.041.723.066.305.101.89.569 1.361.945 1.195.954 2.68 2.142 4.718 2.142 2.037 0 3.523-1.188 4.717-2.142.47-.376 1.057-.844 1.36-.944.076-.025.27-.067.724-.067.289 0 .609.016.948.033.258.013.525.024.796.031v22.85h.001zm5.117-14.193V97.975c.76-1.026 1.079-2.24 1.347-3.271.141-.542.334-1.283.51-1.52.175-.238.826-.645 1.3-.943 1.26-.79 2.827-1.772 3.45-3.63.615-1.835-.025-3.568-.54-4.96-.234-.632-.499-1.349-.499-1.74 0-.39.265-1.106.499-1.738.515-1.393 1.155-3.127.54-4.96-.623-1.858-2.19-2.84-3.45-3.63-.474-.298-1.125-.707-1.3-.943-.176-.238-.369-.979-.51-1.52-.367-1.413-.825-3.173-2.392-4.314-1.248-.906-2.692-1.011-3.67-1.011-.414 0-.814.02-1.2.04-.338.016-.658.032-.946.032-.455 0-.649-.041-.724-.066-.303-.1-.89-.569-1.36-.945-1.195-.954-2.681-2.14-4.718-2.14-2.036 0-3.523 1.186-4.718 2.14-.47.375-1.056.845-1.36.945-.075.025-.27.066-.724.066-.287 0-.608-.016-.947-.033-.386-.02-.785-.04-1.2-.04-.977 0-2.42.106-3.667 1.013-1.568 1.14-2.027 2.9-2.395 4.313-.14.541-.334 1.282-.509 1.52-.175.236-.826.645-1.3.943-1.26.79-2.826 1.772-3.45 3.63-.616 1.835.025 3.567.54 4.96.234.632.498 1.348.498 1.738 0 .391-.264 1.108-.498 1.74-.515 1.392-1.156 3.125-.54 4.96.624 1.858 2.19 2.84 3.45 3.63.475.298 1.124.706 1.3.943.175.237.368.978.51 1.52.268 1.031.587 2.246 1.347 3.27v10.704H5.117V5.078H57.97v20.438a2.549 2.549 0 0 0 2.559 2.539H81.12v80.623H68.406z" clip-rule="evenodd"/><path fill="#EF4C4C" fill-rule="evenodd" d="M15.06 28.055h32.965a2.55 2.55 0 0 0 2.558-2.54 2.55 2.55 0 0 0-2.558-2.538H15.06a2.549 2.549 0 0 0-2.559 2.539 2.55 2.55 0 0 0 2.559 2.539zM71.464 35.793H15.06a2.549 2.549 0 0 0-2.559 2.539 2.549 2.549 0 0 0 2.559 2.539h56.403a2.549 2.549 0 0 0 2.558-2.54 2.549 2.549 0 0 0-2.558-2.538zM61.23 48.61H15.06a2.55 2.55 0 0 0-2.558 2.538 2.549 2.549 0 0 0 2.559 2.54h46.168a2.549 2.549 0 0 0 2.559-2.54 2.55 2.55 0 0 0-2.559-2.539zM71.464 48.61c-1.41 0-2.559 1.14-2.559 2.538 0 1.399 1.15 2.54 2.559 2.54 1.41 0 2.558-1.141 2.558-2.54 0-1.398-1.148-2.539-2.558-2.539z" clip-rule="evenodd"/></svg>