<svg xmlns="http://www.w3.org/2000/svg" width="22" height="22">
    <path d="M.493 17.4l3.398-3.405c.676-.675 1.797-.655 2.497.047L8.1 15.758l.338-.189c1.08-.6 2.56-1.423 4.117-2.984 1.562-1.565 2.383-3.05 2.984-4.134.063-.115.124-.226.184-.33l-1.149-1.15-.565-.567c-.701-.703-.72-1.826-.045-2.504L17.36.494c.676-.676 1.797-.656 2.498.047l.958.965-.026.027c.32.41.589.884.788 1.394.185.487.3.95.352 1.415.448 3.728-1.251 7.135-5.864 11.758-6.376 6.39-11.514 5.907-11.735 5.883a5.729 5.729 0 0 1-1.416-.356 5.516 5.516 0 0 1-1.387-.788l-.02.019-.97-.952c-.7-.703-.72-1.826-.046-2.505z"/>
</svg>