<svg xmlns="http://www.w3.org/2000/svg" width="131" height="129" fill="none"><path fill="#fff" d="M108.102 67.93a1.907 1.907 0 0 0-1.907 1.906 2.423 2.423 0 0 1-2.42 2.421 2.424 2.424 0 0 1-2.421-2.42 1.907 1.907 0 0 0-3.813 0 6.241 6.241 0 0 0 6.234 6.233 6.241 6.241 0 0 0 6.233-6.233 1.906 1.906 0 0 0-1.906-1.907z"/><path fill="#fff" d="M125.996 68.242l-5.365-1.72a2.244 2.244 0 0 1-1.449-1.467 34.598 34.598 0 0 0-5.073-10.033 36.785 36.785 0 0 0-3.388-3.997c.791-3.473 1.222-7.404 1.166-10.799-.08-4.858-1.051-7.706-2.967-8.71-1.033-.542-4.175-2.187-21.181 5.598a6.189 6.189 0 0 0-1.127.671 73.948 73.948 0 0 0-3.497-.849c-.142-.03-.289-.058-.432-.088a25.971 25.971 0 0 0 2.334-9.655 1.906 1.906 0 1 0-3.809-.171 22.15 22.15 0 0 1-6.482 14.703 22.073 22.073 0 0 1-8.031 5.13 55.282 55.282 0 0 0-15.346 0 22.071 22.071 0 0 1-8.03-5.13 22.063 22.063 0 0 1-6.505-15.703c0-5.933 2.31-11.51 6.505-15.704a22.063 22.063 0 0 1 15.703-6.505c5.932 0 11.51 2.31 15.704 6.505a22.197 22.197 0 0 1 4.14 5.717 1.906 1.906 0 1 0 3.406-1.715 25.998 25.998 0 0 0-4.85-6.698C72.507 2.707 65.972 0 59.022 0c-6.95 0-13.485 2.707-18.4 7.622-4.914 4.915-7.621 11.449-7.621 18.4 0 6.95 2.707 13.485 7.622 18.4a26.013 26.013 0 0 0 4.59 3.658h.002a53.826 53.826 0 0 0-3.525 1.042 1.906 1.906 0 0 0 1.21 3.617c10.396-3.476 21.849-3.476 32.246 0a1.905 1.905 0 0 0 2.412-1.204 1.906 1.906 0 0 0-1.203-2.413 53.642 53.642 0 0 0-3.526-1.043h.002a25.999 25.999 0 0 0 7.914-7.737 71.833 71.833 0 0 1 3.603.796c-.021.083-.043.166-.06.25-.93 4.412-.87 8.315.179 11.598.942 2.952 2.643 5.343 5.055 7.107 2.843 2.08 6.275 2.978 9.384 2.978 2.34 0 4.497-.509 6.082-1.406 1.792-1.015 3.293-3.154 4.481-6.365.55.641 1.07 1.298 1.561 1.97a30.777 30.777 0 0 1 4.515 8.93 6.063 6.063 0 0 0 3.923 3.954l5.366 1.72a3.376 3.376 0 0 1 2.354 3.225v8.897a3.376 3.376 0 0 1-2.354 3.225l-8.645 2.77a5.887 5.887 0 0 0-3.296 2.676c-3.397 5.87-8.737 10.728-15.873 14.438a2.986 2.986 0 0 0-1.568 2.106l-2.769 14.661a.857.857 0 0 1-.841.697h-9.003a.857.857 0 0 1-.841-.697l-1.534-8.103a2.995 2.995 0 0 0-3.407-2.409 79.752 79.752 0 0 1-11.876.884 76.18 76.18 0 0 1-8.738-.494 3.019 3.019 0 0 0-3.303 2.423l-1.458 7.699a.857.857 0 0 1-.841.697h-9.003a.858.858 0 0 1-.843-.703l-2.666-13.847a2.993 2.993 0 0 0-1.538-2.082c-12.164-6.494-18.594-17.343-18.594-31.375 0-7.089 1.55-13.358 4.61-18.633 2.854-4.922 7.023-8.992 12.39-12.097a1.907 1.907 0 0 0-1.909-3.3C22.88 48.551 16.603 57.84 14.874 69.637c-.183-.016-.367-.032-.55-.051a9.493 9.493 0 0 0-.698-3.804c-1.106-2.75-3.378-4.734-5.789-5.056-1.9-.254-3.707.553-4.961 2.21-1.82 2.404-1.523 4.306-.954 5.478.96 1.979 3.429 3.378 7.525 4.258a7.494 7.494 0 0 1-.372.508c-2.42 3.035-5.272 3.707-7.123 3.77C.868 76.987 0 77.858 0 78.942v.01c0 1.069.844 1.942 1.913 1.99.137.007.28.01.429.01 2.342 0 6.102-.864 9.714-5.393a10.87 10.87 0 0 0 1.393-2.249 51.433 51.433 0 0 0 1.036.104 50.086 50.086 0 0 0-.1 3.148c0 7.94 1.892 15.017 5.624 21.04 3.441 5.552 8.368 10.098 14.65 13.517l2.591 13.462a4.673 4.673 0 0 0 4.588 3.801h9.003a4.673 4.673 0 0 0 4.588-3.801l1.317-6.961c2.737.289 5.57.436 8.435.436 3.93 0 7.855-.273 11.68-.814l1.39 7.34a4.673 4.673 0 0 0 4.588 3.8h9.002a4.673 4.673 0 0 0 4.589-3.802l2.695-14.274c7.617-4.028 13.358-9.318 17.067-15.73a2.086 2.086 0 0 1 1.159-.954l8.645-2.77A7.178 7.178 0 0 0 131 83.997v-8.898a7.177 7.177 0 0 0-5.004-6.856zm-18.208-22.659c-.734 6.276-2.702 11.644-4.68 12.764-2.248 1.273-7.438 1.519-11.335-1.332-3.901-2.853-5.2-7.985-3.755-14.84v-.001c.145-.689.634-1.284 1.308-1.593 9.545-4.369 15.047-5.798 17.092-5.798.308 0 .538.033.691.092.614.655 1.42 4.375.679 10.708zM5.353 66.75c-.197-.407.268-1.122.563-1.512.468-.618.9-.745 1.225-.745.07 0 .133.006.192.014.877.117 2.105 1.081 2.755 2.699.154.38.353 1.011.4 1.797-2.64-.546-4.69-1.335-5.135-2.253z"/><path fill="#fff" d="M60.872 23.836v-6.822c2.353.168 3.227 1.244 4.033 1.244 1.009 0 1.48-1.277 1.48-1.916 0-1.647-3.228-2.353-5.513-2.42v-.908c0-.403-.504-.773-1.008-.773-.572 0-.975.37-.975.773v.975c-3.193.336-6.386 2.017-6.386 6.251 0 4.302 3.361 5.512 6.386 6.588v7.898c-3.428-.27-4.336-2.622-5.445-2.622-.84 0-1.546 1.11-1.546 1.916 0 1.647 2.824 3.899 6.991 3.966v1.042c0 .403.403.773.975.773.504 0 1.008-.37 1.008-.773v-1.143c3.63-.504 6.117-2.79 6.117-6.923 0-4.571-3.193-6.05-6.117-7.126zm-1.781-.638c-1.782-.672-3.227-1.378-3.227-3.293 0-1.748 1.345-2.588 3.227-2.824v6.117zm1.58 11.46v-7.09c1.646.705 2.957 1.646 2.957 3.763 0 1.916-1.143 2.991-2.958 3.327z"/></svg>