<svg xmlns="http://www.w3.org/2000/svg" width="126" height="126" fill="none"><path fill="#F6F6F6" d="M69.097 67.064h-4.065v4.065h-4.064v4.064h4.064v4.065h4.065v-4.064h4.064v-4.065h-4.064v-4.065z"/><path fill="#F6F6F6" d="M126 38.613V18.29h-10.161v-7.65L121.159 0H98.324l5.321 10.64v7.65H98.45c-1.41-2.418-4.003-4.064-6.998-4.064H58.935c-4.483 0-8.129 3.646-8.129 8.129h-10.16v-8.13H10.16C4.56 14.226 0 18.786 0 24.388v2.032h22.355v4.065H0v2.032c0 5.603 4.559 10.161 10.161 10.161h30.484v-8.129h10.161c0 4.484 3.646 8.13 8.13 8.13h1.3l-6.726 21.53a16.137 16.137 0 0 0-2.704 8.953c0 8.965 7.294 16.258 16.258 16.258.803 0 1.587-.077 2.36-.191l3.29 16.449h-2.841l-4.065 8.129h-4.84V126H126v-12.194h-4.841l-4.064-8.129h-3.289V90.301L83.627 72.195l7.377-29.517h.448c2.995 0 5.588-1.646 6.998-4.064h5.195v5.617l-5.32 10.641h22.834l-5.32-10.64v-5.618H126zM4.412 22.355a6.108 6.108 0 0 1 5.75-4.065H36.58v4.065H4.41zM36.58 38.613H10.16a6.108 6.108 0 0 1-5.75-4.065h32.17v4.065zm4.064-8.13H26.42V26.42h24.387v4.065h-10.16zm14.226 42.678c0-6.725 5.469-12.193 12.193-12.193 6.725 0 12.194 5.468 12.194 12.193S73.79 85.355 67.064 85.355c-6.724 0-12.193-5.469-12.193-12.194zm28.094 3.376l13.423 8.054-21.74 10.033-1.293-6.473c4.844-2.04 8.496-6.362 9.61-11.614zm17.349 10.41l7.06 4.237-30.687 13.638-1.22-6.099 24.965-11.52-.118-.257zm21.621 34.988H65.032v-4.064h56.903v4.064zm-5.32-8.129H70.353l2.032-4.064h42.197l2.033 4.064zm-31.846-8.129l24.973-11.098v11.098H84.769zm-3.572-40.52c-2.798-4.92-8.078-8.254-14.133-8.254-2.75 0-5.338.69-7.61 1.903l5.04-16.129h22.325l-5.622 22.48zm14.32-30.609a4.069 4.069 0 0 1-4.065 4.065H58.935a4.068 4.068 0 0 1-4.064-4.065V22.355a4.068 4.068 0 0 1 4.064-4.065h32.517a4.069 4.069 0 0 1 4.064 4.065v12.193zm19.065-30.483l-2.032 4.064h-5.616l-2.033-4.064h9.681zm-6.872 8.128h4.064v6.097h-4.064v-6.096zm14.225 10.162v4.064H99.581v-4.064h22.354zm-22.354 8.129h22.354v4.064H99.581v-4.064zm5.32 20.322l2.033-4.064h5.616l2.032 4.064h-9.681zm6.873-8.129h-4.064v-4.064h4.064v4.064z"/><path fill="#F6F6F6" d="M67.064 22.355a6.105 6.105 0 0 0-6.096 6.097 6.105 6.105 0 0 0 6.096 6.096 6.105 6.105 0 0 0 6.097-6.096 6.105 6.105 0 0 0-6.097-6.097zm0 8.129a2.035 2.035 0 0 1-2.032-2.032c0-1.12.911-2.033 2.032-2.033 1.122 0 2.033.913 2.033 2.033 0 1.119-.911 2.032-2.032 2.032zM83.322 22.355a6.105 6.105 0 0 0-6.096 6.097 6.105 6.105 0 0 0 6.096 6.096 6.105 6.105 0 0 0 6.097-6.096 6.105 6.105 0 0 0-6.097-6.097zm0 8.129a2.035 2.035 0 0 1-2.032-2.032c0-1.12.911-2.033 2.032-2.033 1.122 0 2.033.913 2.033 2.033 0 1.119-.911 2.032-2.033 2.032zM42.532 92.495l3.287-3.939-8.375-8.377-3.939 3.29a20.177 20.177 0 0 0-2.738-1.134l-.458-5.11H18.465l-.46 5.112c-.94.31-1.855.689-2.738 1.134l-3.939-3.29-8.375 8.377 3.288 3.938a20.038 20.038 0 0 0-1.134 2.737L0 95.691v11.844l5.111.459c.309.939.69 1.856 1.135 2.737l-3.289 3.939 8.375 8.377 3.939-3.29c.884.445 1.798.823 2.738 1.134l.456 5.109h11.844l.46-5.111c.94-.311 1.855-.689 2.739-1.135l3.938 3.291 8.375-8.377-3.288-3.939c.445-.882.823-1.796 1.134-2.737l5.107-.457V95.691l-5.111-.46a19.973 19.973 0 0 0-1.131-2.736zm2.178 11.325l-4.226.38-.353 1.398a15.993 15.993 0 0 1-1.795 4.33l-.74 1.239 2.722 3.258-3.12 3.12-3.259-2.722-1.236.739a16.087 16.087 0 0 1-4.333 1.795l-1.398.353-.378 4.225H22.18l-.38-4.225-1.398-.353a16.087 16.087 0 0 1-4.332-1.795l-1.235-.739-3.26 2.72-3.118-3.12 2.72-3.256-.739-1.239a16.156 16.156 0 0 1-1.795-4.33L8.29 104.2l-4.225-.38v-4.414l4.225-.38.353-1.398a16.005 16.005 0 0 1 1.795-4.33l.74-1.24-2.722-3.257 3.12-3.12 3.26 2.722 1.236-.74a16.101 16.101 0 0 1 4.332-1.794l1.398-.353.378-4.226h4.414l.38 4.226 1.398.353a16.1 16.1 0 0 1 4.333 1.795l1.234.74 3.26-2.722 3.119 3.121-2.721 3.256.739 1.238a16.162 16.162 0 0 1 1.795 4.33l.353 1.399 4.226.38v4.414z"/><path fill="#F6F6F6" d="M24.387 89.42c-6.725 0-12.194 5.468-12.194 12.193s5.469 12.193 12.194 12.193c6.725 0 12.194-5.468 12.194-12.193s-5.47-12.194-12.194-12.194zm0 20.322c-4.483 0-8.13-3.646-8.13-8.129s3.647-8.13 8.13-8.13c4.483 0 8.129 3.647 8.129 8.13 0 4.483-3.646 8.129-8.13 8.129zM22.355 46.742h4.064v4.065h-4.064v-4.065zM22.355 54.871h4.064v4.064h-4.064v-4.064zM22.355 63h4.064v4.064h-4.064V63z"/></svg>