<svg xmlns="http://www.w3.org/2000/svg" width="153" height="153" fill="none"><path fill="#EF4C4C" d="M145.617 73.666h-.225V70.87c0-6.434-5.043-11.669-11.242-11.669H93.706c-5.602 0-10.324 4.272-11.122 9.992H70.417c-.798-5.72-5.52-9.992-11.122-9.992H32.257l-2.93-13.45a2.237 2.237 0 0 0-2.186-1.76H23.86v-2.603a4.41 4.41 0 0 0-4.406-4.406H4.406A4.411 4.411 0 0 0 0 41.388v11.171a4.41 4.41 0 0 0 4.406 4.406h15.048a4.41 4.41 0 0 0 4.405-4.406v-4.094h1.479l2.34 10.737h-8.829c-6.198 0-11.241 5.235-11.241 11.669v2.796h-.225C3.312 73.667 0 76.979 0 81.049v53.405c0 3.02 1.16 5.875 3.267 8.039l7.712 7.92a7.047 7.047 0 0 0 5.248 2.327c1.67 0 3.346-.587 4.69-1.781l.666-.592c1.637-1.455 1.785-3.971.35-5.587L11.93 133.228V99.07c1.91 1.553 4.311 2.483 6.92 2.483h42.552c3.114 0 6.115-1.357 8.233-3.724 2.24-2.503 3.31-5.885 2.934-9.28l-.79-7.128h9.442l-.79 7.129c-.376 3.394.693 6.776 2.934 9.28 2.119 2.366 5.12 3.723 8.234 3.723h32.015l-3.184 16.701h-5.605v-4.094a4.412 4.412 0 0 0-4.406-4.406H95.371a4.411 4.411 0 0 0-4.406 4.406v11.171a4.41 4.41 0 0 0 4.406 4.406h15.048a4.41 4.41 0 0 0 4.406-4.406v-2.603h7.456a2.236 2.236 0 0 0 2.197-1.818l3.691-19.357h5.982c2.608 0 5.01-.93 6.919-2.483v34.158l-9.983 11.531a3.977 3.977 0 0 0 .33 5.608l.667.593a7.034 7.034 0 0 0 4.689 1.781 7.05 7.05 0 0 0 5.248-2.327l7.712-7.921a11.464 11.464 0 0 0 3.268-8.039V81.049c-.001-4.07-3.313-7.383-7.384-7.383zM19.386 52.492H4.474V41.456h14.912v11.035zM4.474 81.05a2.913 2.913 0 0 1 2.909-2.909h.225v4.474H4.474v-1.565zm13.767 66.303l-.297.264a2.596 2.596 0 0 1-3.658-.216 2.093 2.093 0 0 0-.07-.074l-7.743-7.954a7.013 7.013 0 0 1-2-4.918V87.087h2.983v46.974c0 .538.194 1.058.546 1.464l10.24 11.827zm48.06-52.507c-1.289 1.44-3.029 2.234-4.9 2.234H18.85c-3.732 0-6.768-3.228-6.768-7.196V70.87c0-3.967 3.036-7.195 6.768-7.195h9.803l.39 1.79H18.85c-2.745 0-4.978 2.424-4.978 5.405v19.013c0 2.981 2.233 5.406 4.978 5.406h24.785c1.48 0 2.542-1.43 2.114-2.846l-.017-.056a2.204 2.204 0 0 0-2.114-1.572H18.849c-.173 0-.505-.363-.505-.932V70.87c0-.569.332-.932.505-.932h11.168l.754 3.459a2.238 2.238 0 0 0 2.744 1.69c1.179-.303 1.868-1.537 1.609-2.726l-.528-2.423h24.699c.139 0 .44.276.496.781l2.107 19.013c.04.358-.059.708-.262.935-.133.149-.204.149-.234.149h-4.259c-.99 0-1.857.657-2.125 1.61l-.016.056c-.402 1.407.662 2.807 2.125 2.807h4.275c1.354 0 2.62-.581 3.567-1.638 1.054-1.177 1.556-2.785 1.376-4.411l-2.107-19.013c-.3-2.715-2.426-4.762-4.943-4.762H33.62l-.39-1.79h26.064c3.43 0 6.32 2.732 6.722 6.354l2.107 19.013c.235 2.132-.429 4.247-1.822 5.803zm15.12-17.898H71.58v-3.28h9.842v3.28zm28.93 48.316H95.439v-11.035h14.912v11.035zm15.311-34.447H91.599c-.03 0-.102 0-.234-.148-.204-.228-.302-.578-.263-.936L93.21 70.72c.056-.505.357-.78.497-.78h18.435v8.878a5.592 5.592 0 0 0 5.585 5.586h9.158l-1.222 6.413zm-7.936-10.886a1.114 1.114 0 0 1-1.112-1.113v-8.879h17.537c.019 0 .041.006.064.015.178.14.294.353.294.596v9.38h-16.783zm16.929 4.473v5.48c0 .57-.331.933-.504.933h-3.935l1.222-6.413h3.217zm-.504 12.675h-5.129l.341-1.789h4.788c2.745 0 4.978-2.425 4.978-5.406V70.87c0-2.98-2.233-5.405-4.978-5.405H93.706c-2.517 0-4.642 2.047-4.943 4.761L86.656 89.24c-.18 1.625.322 3.233 1.376 4.412.946 1.056 2.213 1.637 3.567 1.637h33.21l-.341 1.79h-32.87c-1.87 0-3.61-.794-4.9-2.234-1.393-1.557-2.057-3.672-1.821-5.803l2.107-19.013c.401-3.623 3.29-6.354 6.721-6.354h40.446c3.732 0 6.768 3.228 6.768 7.195v19.013c0 3.968-3.036 7.196-6.768 7.196zm14.375 37.376c0 1.847-.71 3.594-1.999 4.918l-7.744 7.954a5.004 5.004 0 0 0-.069.074 2.593 2.593 0 0 1-3.658.216l-.297-.264 10.239-11.826a2.24 2.24 0 0 0 .546-1.464V87.087h2.982v47.367zm0-51.84h-3.134V78.14h.225a2.912 2.912 0 0 1 2.909 2.91v1.564z"/><path fill="#EF4C4C" d="M120.64 75.905a1.491 1.491 0 1 0 0-2.983 1.491 1.491 0 0 0 0 2.983zM125.859 76.054a1.49 1.49 0 1 0 0-2.982 1.49 1.49 0 0 0 0 2.982zM131.079 76.203a1.49 1.49 0 1 0 0-2.982 1.49 1.49 0 0 0 0 2.982zM39.368 84.702a3.882 3.882 0 0 1-3.877-3.878 2.236 2.236 0 1 0-4.473 0c0 4.605 3.746 8.351 8.35 8.351a2.237 2.237 0 1 0 0-4.473zM39.369 72.474a2.237 2.237 0 1 0 0 4.473 3.882 3.882 0 0 1 3.877 3.877 2.236 2.236 0 1 0 4.473 0c0-4.604-3.746-8.35-8.35-8.35z"/><path fill="#EF4C4C" d="M39.518 83.212a2.237 2.237 0 1 0 0-4.474 2.237 2.237 0 0 0 0 4.474zM107.219 75.456h-8.35a2.236 2.236 0 1 0 0 4.473h8.35a2.236 2.236 0 1 0 0-4.473zM111.693 83.807H98.869a2.237 2.237 0 1 0 0 4.473h12.824a2.237 2.237 0 1 0 0-4.473zM113.311 0H39.689A5.689 5.689 0 0 0 34 5.69v29.48c0 2.845 2.101 5.202 4.831 5.618l4.15 14.553a2.237 2.237 0 0 0 2.932 1.483c1.109-.408 1.674-1.648 1.35-2.785l-3.759-13.18h12.792l-2.993 12.91a2.237 2.237 0 0 0 4.358 1.01l3.227-13.92h23.06a2.237 2.237 0 0 0 0-4.473H39.69a1.215 1.215 0 0 1-1.215-1.216V5.69c0-.672.544-1.216 1.215-1.216h73.622c.672 0 1.215.545 1.215 1.216V35.17c0 .672-.544 1.216-1.215 1.216H98.503a2.237 2.237 0 1 0 0 4.473h14.808A5.689 5.689 0 0 0 119 35.17V5.689A5.689 5.689 0 0 0 113.311 0z"/><path fill="#EF4C4C" d="M71.35 15.69l-3.12-.928a10.85 10.85 0 0 0-6.52-5.363 10.85 10.85 0 0 0-8.391.926l-3.122-.929a6.37 6.37 0 0 0-4.881.507 6.372 6.372 0 0 0-3.094 3.81 6.37 6.37 0 0 0 .508 4.882 6.37 6.37 0 0 0 3.81 3.094l1.423.423c.812 3.762 3.596 6.982 7.538 8.155 1.032.307 2.073.453 3.099.453 2.891 0 5.649-1.163 7.67-3.16l1.424.423c.608.18 1.221.267 1.825.267a6.424 6.424 0 0 0 6.15-4.585 6.42 6.42 0 0 0-4.319-7.974zM48.17 16.73c-.071.24-.13.481-.185.722l-.17-.05a1.925 1.925 0 0 1-1.152-.936c-.246-.455-.3-.98-.153-1.476.148-.496.48-.905.935-1.151.456-.247.98-.301 1.476-.153l.585.174a10.852 10.852 0 0 0-1.335 2.87zm8.606 9.25a6.373 6.373 0 0 1-3.223-2.204l7.127 2.12a6.373 6.373 0 0 1-3.904.084zm7.975-4.317a6.44 6.44 0 0 1-.255.702l-12.207-3.632a6.424 6.424 0 0 1 6.319-5.312 6.42 6.42 0 0 1 6.143 8.242zm6.629.727a1.94 1.94 0 0 1-2.411 1.305l-.17-.05a10.739 10.739 0 0 0 .69-3.84l.585.174a1.941 1.941 0 0 1 1.306 2.411zM85.447 18.193a7.016 7.016 0 0 0-7.008 7.009 7.016 7.016 0 0 0 7.008 7.008 7.017 7.017 0 0 0 7.009-7.008 7.017 7.017 0 0 0-7.009-7.01zm0 9.544a2.538 2.538 0 0 1-2.535-2.535 2.538 2.538 0 0 1 2.535-2.535 2.538 2.538 0 0 1 2.535 2.535 2.538 2.538 0 0 1-2.535 2.535zM103.044 19.684a5.524 5.524 0 0 0-5.518 5.518 5.524 5.524 0 0 0 5.518 5.517 5.524 5.524 0 0 0 5.517-5.517 5.524 5.524 0 0 0-5.517-5.518zm0 6.561a1.045 1.045 0 0 1 0-2.087c.575 0 1.044.468 1.044 1.044 0 .575-.469 1.043-1.044 1.043z"/></svg>