<svg xmlns="http://www.w3.org/2000/svg" width="131" height="131" fill="none"><path fill="#EF4C4C" d="M68.528 62.074a2.551 2.551 0 1 0-3.609 3.606 2.551 2.551 0 0 0 3.61-3.607zM100.994 29.607c-4.984-4.984-13.053-4.984-18.037 0-4.971 4.971-4.971 13.062 0 18.038 4.974 4.97 13.065 4.971 18.037-.001 4.984-4.984 4.985-13.053 0-18.037zm-3.607 14.43c-2.983 2.982-7.838 2.982-10.822 0-2.983-2.985-2.983-7.84 0-10.823a7.649 7.649 0 0 1 10.822 0 7.649 7.649 0 0 1 0 10.822z"/><path fill="#EF4C4C" d="M129.852.747a2.543 2.543 0 0 0-1.896-.745c-.576.02-14.308.572-30.632 6.342-13.08 4.619-23.983 11.23-32.406 19.654a97.04 97.04 0 0 0-5.48 5.967c-8.329-4.902-15.002-3.365-19.22-1.107-9.714 5.199-15.727 19.314-15.727 29.41a2.553 2.553 0 0 0 4.355 1.803c5.123-5.122 11.442-4.802 13.506-4.53l.893.893c-1.758 4.183-3.174 8.343-4.213 12.388-.375 1.465-.248 3.014.31 4.431-2.457 1.132-4.826 2.794-6.89 4.857-6.565 6.566-7.898 22.568-7.952 23.246a2.55 2.55 0 0 0 2.743 2.744c.678-.054 16.68-1.387 23.247-7.953 2.062-2.062 3.724-4.431 4.855-6.887 1.5.59 3.045.663 4.434.307 4.044-1.038 8.203-2.454 12.387-4.212l.893.893c.271 2.064.592 8.383-4.53 13.505a2.552 2.552 0 0 0 1.803 4.354c10.096 0 24.21-6.012 29.409-15.726 2.258-4.218 3.795-10.891-1.107-19.22a97.363 97.363 0 0 0 5.968-5.48c8.422-8.423 15.034-19.326 19.653-32.405 5.77-16.325 6.321-30.057 6.342-30.634a2.552 2.552 0 0 0-.745-1.895zM30.194 54.781c1.585-7.668 6.187-16.083 12.432-19.425 4.172-2.233 8.733-2.014 13.583.64a103.13 103.13 0 0 0-10.717 17.47c-.038-.024-.497-.6-1.35-.793-.351-.08-7.1-1.531-13.948 2.108zM46.883 94.54c-3.508 3.507-11.735 5.357-16.936 6.112.756-5.2 2.606-13.428 6.113-16.935 1.964-1.964 4.241-3.453 6.53-4.292l8.584 8.584c-.838 2.29-2.327 4.567-4.291 6.53zm11.628-7.915c-.738.19-1.593-.088-2.228-.723l-4.996-4.996-6.588-6.588c-.636-.637-.914-1.492-.725-2.229a82.822 82.822 0 0 1 3.185-9.742l21.093 21.094a82.778 82.778 0 0 1-9.74 3.184zm36.733 1.35c-3.342 6.243-11.757 10.846-19.425 12.43 2.445-4.6 2.984-10.458 2.09-14.009-.207-.825-.745-1.24-.775-1.288a103.178 103.178 0 0 0 17.47-10.718c2.654 4.85 2.872 9.412.64 13.584zm5.751-25.902a92.638 92.638 0 0 1-7.357 6.6 97.999 97.999 0 0 1-20.334 12.605L49.32 57.296a97.98 97.98 0 0 1 12.605-20.334 92.547 92.547 0 0 1 6.6-7.357c7.557-7.557 17.31-13.571 28.996-17.9l21.373 21.373c-4.329 11.685-10.343 21.438-17.9 28.995zm19.735-34.375L102.901 9.87c9.714-3.017 18.165-4.147 22.382-4.553-.406 4.22-1.536 12.67-4.553 22.382z"/><path fill="#EF4C4C" d="M61.313 105.36a2.551 2.551 0 0 0-3.608 0l-7.213 7.216a2.552 2.552 0 0 0 3.608 3.607l7.213-7.216a2.55 2.55 0 0 0 0-3.607zM25.24 69.287a2.55 2.55 0 0 0-3.607 0L14.417 76.5a2.55 2.55 0 1 0 3.606 3.608l7.217-7.214a2.55 2.55 0 0 0 0-3.607zM43.276 108.969a2.551 2.551 0 0 0-3.608 0L22.39 126.245a2.551 2.551 0 0 0 3.607 3.608l17.28-17.276a2.552 2.552 0 0 0 0-3.608zM22.87 108.969a2.551 2.551 0 0 0-3.608 0L1.983 126.245a2.551 2.551 0 0 0 3.607 3.608l17.28-17.276a2.551 2.551 0 0 0 0-3.608zM21.63 87.323a2.551 2.551 0 0 0-3.607 0L.747 104.602a2.551 2.551 0 0 0 3.608 3.607L21.63 90.93a2.551 2.551 0 0 0 0-3.607zM79.35 51.25a2.551 2.551 0 0 0-3.607 0l-3.607 3.607a2.551 2.551 0 0 0 3.607 3.607l3.607-3.606a2.551 2.551 0 0 0 0-3.608z"/></svg>