<svg xmlns="http://www.w3.org/2000/svg" width="131" height="130" fill="none"><path fill="#EF4C4C" d="M130.985 4.347h-4.366V8.68h4.366V4.347zM126.619.014h-4.366v4.333h4.366V.014zM122.252 4.347h-4.366V8.68h4.366V4.347zM126.619 8.68h-4.366v4.332h4.366V8.68zM113.52 4.347h-4.366V8.68h4.366V4.347zM109.154 47.676h-4.366v4.332h4.366v-4.332zM117.887 47.676h-4.366v4.332h4.366v-4.332zM113.52 43.343h-4.366v4.333h4.366v-4.333zM113.52 52.008h-4.366v4.333h4.366v-4.333zM28.382 41.176h-4.366v4.333h4.366v-4.333zM24.015 36.843H19.65v4.333h4.366v-4.333zM19.646 41.176H15.28v4.333h4.367v-4.333zM24.015 45.51H19.65v4.332h4.366v-4.333zM10.915 41.176H6.548v4.333h4.367v-4.333zM4.366 13.012H0v4.333h4.366v-4.332zM13.097 13.012H8.731v4.333h4.366v-4.332zM8.731 8.68H4.365v4.332H8.73V8.68zM8.731 17.345H4.365v4.333H8.73v-4.333zM34.931.014h-4.366v4.333h4.366V.014zM117.51 101.816a6.53 6.53 0 0 0-6.172-4.312h-5.281L98.24 83.929V60.674c0-4.786-3.91-8.666-8.733-8.666V23.845C89.95 11.123 79.917.453 67.097.014a23.293 23.293 0 0 0-1.604 0c-15.011 0-23.578 12.236-24.014 23.748 0 .029.015.055.015.083h-.015v28.163c-4.823 0-8.733 3.88-8.733 8.666V83.93l-7.818 13.575h-5.28c-3.609-.008-6.54 2.889-6.548 6.47a6.487 6.487 0 0 0 4.345 6.123 8.506 8.506 0 0 0 .744 12.071 8.645 8.645 0 0 0 4.594 2.074l42.415 5.739c.197.026.396.026.592 0l42.416-5.739c4.718-.612 8.044-4.904 7.428-9.586a8.523 8.523 0 0 0-2.091-4.559c3.4-1.199 5.177-4.907 3.967-8.281zM65.493 4.347c10.37-.478 19.167 7.477 19.648 17.768.027.576.027 1.154 0 1.73h-4.366c-6.026-.007-10.909-4.853-10.916-10.832a2.175 2.175 0 0 0-2.183-2.166 2.19 2.19 0 0 0-1.543.634 35.325 35.325 0 0 1-20.043 9.944c1.2-9.735 9.52-17.058 19.403-17.078zm-4.366 49.828V44.91c1.423.388 2.89.59 4.366.6a16.87 16.87 0 0 0 4.366-.613v9.28c0 1.196.978 2.166 2.184 2.166h4.366v2.77l-10.916 3.612-10.915-3.611v-2.771h4.366c1.205 0 2.183-.97 2.183-2.167zm-12.68-28.772a39.655 39.655 0 0 0 17.684-8.088c1.928 6.434 7.88 10.85 14.644 10.863h.952c-2.73 7.268-9.65 12.998-16.234 12.998-7.582 0-15.24-7.292-17.046-15.773zm25.779 26.606v-8.85A25.781 25.781 0 0 0 85.14 31.31v20.698H74.226zm-28.38-20.692A25.574 25.574 0 0 0 56.76 43.172v8.837H45.845V31.317zm4.365 25.025v4.333c.001.932.602 1.759 1.494 2.053v.002l13.098 4.333c.449.15.934.15 1.382 0l13.099-4.333a2.168 2.168 0 0 0 1.49-2.055v-4.333h5.937l-9.824 38.996H54.099l-9.823-38.996h5.935zM53.4 99.67h24.189l8.771 10.154-20.866 2.825-20.866-2.817 8.772-10.162zm-13.911 9.458l-4.028-.544 13.677-15.082.873 3.442-10.522 12.184zm41.505-12.184l.874-3.442 13.677 15.082-4.037.544-10.514-12.184zm-63.528 7.058c0-1.196.977-2.166 2.183-2.166h6.55a2.186 2.186 0 0 0 1.894-1.083l8.733-15.165c.19-.33.29-.704.288-1.084v-23.83a4.333 4.333 0 0 1 2.74-4.021l4.003 15.89 4.002 15.891-16.083 17.735H19.648a2.175 2.175 0 0 1-2.183-2.167zm48.028 21.645l-42.12-5.702c-2.358-.309-4.016-2.455-3.705-4.795.284-2.132 2.12-3.722 4.287-3.712.194 0 .388.014.58.041l15.525 2.101 24.669 3.339 11.686 7.249-10.922 1.479zm42.121-5.702l-24.438 3.309-11.415-7.08 19.15-2.6 15.522-2.102c2.356-.328 4.533 1.302 4.864 3.64.028.199.042.399.041.6-.007 2.134-1.594 3.938-3.724 4.233zm3.724-13.776H99.211L83.126 88.433l4.002-15.89 4.004-15.892a4.333 4.333 0 0 1 2.742 4.024v23.83c-.002.38.098.754.288 1.084l8.732 15.165a2.187 2.187 0 0 0 1.895 1.083h6.549c1.206 0 2.184.97 2.184 2.166a2.176 2.176 0 0 1-2.184 2.167z"/></svg>