<svg xmlns="http://www.w3.org/2000/svg" width="130" height="131" fill="none"><path fill="#EF4C4C" d="M123.888 104.8a12.977 12.977 0 0 0 1.779-6.55c-.009-7.231-5.824-13.091-13-13.1h-.832a13.24 13.24 0 0 0-3.281.424 58.098 58.098 0 0 1-14.19 1.76h-6.729A58.38 58.38 0 0 1 73.32 85.54a12.958 12.958 0 0 0-3.155-.391h-.832a12.59 12.59 0 0 0-4.333.786V65.5h-.11c-.816-12.187-8.29-22.907-19.39-27.813V21.833H39V13.1h6.5V8.733h13c1.197 0 2.167.978 2.167 2.184v4.366H65v-4.366c0-3.618-2.91-6.55-6.5-6.55h-13V0h-26v13.1H26v8.733h-6.5v15.854C8.4 42.593.926 53.313.11 65.5H0v58.95c0 3.618 2.91 6.55 6.5 6.55h52a6.477 6.477 0 0 0 4.957-2.343A14.986 14.986 0 0 0 71.5 131h39c7.533-.009 13.917-5.587 14.993-13.1H130v-13.1h-6.112zM62.634 92.734a8.536 8.536 0 0 1 1.506-1.427 8.533 8.533 0 0 1 5.193-1.79h.832c.753.002 1.502.1 2.23.292a62.49 62.49 0 0 0 15.24 1.891h6.73a62.758 62.758 0 0 0 15.366-1.921 8.575 8.575 0 0 1 2.102-.262h.834c4.786 0 8.666 3.91 8.666 8.733a8.646 8.646 0 0 1-2.985 6.55H63.73c-3.609-3.027-4.1-8.429-1.096-12.066zm-38.8-84V4.366h17.333v4.366H23.833zM34.666 13.1v8.733h-4.334V13.1h4.334zM23.833 26.2h17.334v8.733H23.833V26.2zM32.5 39.3c14.709.018 26.934 11.424 28.084 26.2H4.416C5.566 50.724 17.79 39.318 32.5 39.3zM4.333 69.867h56.334v18.67c-.055.05-.102.104-.154.154-.156.144-.3.295-.447.437-.195.199-.385.4-.565.607a18.263 18.263 0 0 0-.88 1.142 12.676 12.676 0 0 0-.745 1.231c-.097.181-.19.36-.28.546-.119.251-.216.507-.327.764-.073.186-.15.367-.216.557a13.55 13.55 0 0 0-.247.832c-.05.181-.106.362-.148.548-.069.312-.119.63-.166.95-.024.159-.057.314-.076.473-.12 1.03-.112 2.07.024 3.099.021.176.062.349.09.524.061.36.126.718.217 1.069.05.201.115.393.176.592.097.319.201.633.322.943.079.199.165.393.252.588.134.298.279.589.433.873.056.103.098.218.158.317H52v4.366H4.333V69.867zM58.5 126.633h-52a2.175 2.175 0 0 1-2.167-2.183v-10.917H52v4.367h4.492c.015.107.052.218.069.317.086.515.2 1.025.338 1.528.041.148.073.297.117.437.19.622.421 1.232.689 1.825.06.133.132.26.197.393.23.473.485.935.763 1.382a15.268 15.268 0 0 0 1.495 2.05 2.16 2.16 0 0 1-1.66.801zm52 0h-39a10.754 10.754 0 0 1-7.304-2.873 11.163 11.163 0 0 1-1.365-1.544c-.121-.163-.217-.334-.338-.504-.272-.41-.516-.838-.73-1.282-.089-.185-.182-.368-.26-.558a10.728 10.728 0 0 1-.55-1.723c-.016-.07-.044-.133-.059-.203v-.046h60.223c-1.037 5.079-5.471 8.727-10.617 8.733zm15.167-13.1H56.333v-4.366h69.334v4.366z"/><path fill="#EF4C4C" d="M82.334 48.033c-7.18 0-13 5.865-13 13.1.008 7.232 5.823 13.092 13 13.1 7.18 0 13-5.865 13-13.1 0-7.235-5.82-13.1-13-13.1zm0 21.834c-4.787 0-8.667-3.91-8.667-8.734 0-4.823 3.88-8.733 8.666-8.733C87.12 52.4 91 56.31 91 61.133c0 4.824-3.88 8.734-8.666 8.734zM106.167 63.317c-4.787 0-8.667 3.91-8.667 8.733s3.88 8.733 8.667 8.733c4.786 0 8.666-3.91 8.666-8.733s-3.88-8.733-8.666-8.733zm0 13.1c-2.394 0-4.334-1.955-4.334-4.367s1.94-4.367 4.334-4.367c2.393 0 4.333 1.955 4.333 4.367s-1.94 4.367-4.333 4.367zM106.167 43.667c-3.59 0-6.5 2.932-6.5 6.55 0 3.617 2.91 6.55 6.5 6.55s6.5-2.933 6.5-6.55c0-3.618-2.91-6.55-6.5-6.55zm0 8.733A2.175 2.175 0 0 1 104 50.217c0-1.206.97-2.184 2.167-2.184 1.196 0 2.166.978 2.166 2.184 0 1.205-.97 2.183-2.166 2.183zM47.667 74.233H17.333V78.6h30.334v-4.367zM39 82.967H26v4.366h13v-4.366zM43.333 91.7H21.667v4.367h21.666V91.7zM30.333 100.433h-13v4.367h13v-4.367zM47.667 100.433h-13v4.367h13v-4.367z"/></svg>