<svg xmlns="http://www.w3.org/2000/svg" width="126" height="126" fill="none"><path fill="#FDFDFD" d="M28.625 116.71a2.944 2.944 0 1 0 0-5.887 2.944 2.944 0 0 0 0 5.887z"/><path fill="#FDFDFD" d="M113.843 93.9a6.16 6.16 0 0 0 .941-3.277v-1.037a6.201 6.201 0 0 0-6.194-6.194H89.331c-.418 0-.827.042-1.222.122l3.459-17.428c.507-2.556.564-5.069.17-7.468-.654-3.989-2.76-8.743-9.082-8.743-.902 0-1.672.65-1.823 1.538l-1.213 7.14c-.48 2.82-1.137 5.507-1.954 7.985-2.264 6.863-5.12 10.38-10.186 12.547a266.137 266.137 0 0 0-5.202 2.29h-7.626v-1.477a1.848 1.848 0 0 0-1.848-1.849H40.289v-1.994a1.848 1.848 0 0 0-1.849-1.849H7.364a1.848 1.848 0 0 0-1.848 1.849v10.97a1.848 1.848 0 1 0 3.697 0v-9.122h27.38V121.42H9.212V93.187a1.848 1.848 0 1 0-3.697 0v30.082c0 1.021.827 1.849 1.849 1.849H38.44a1.849 1.849 0 0 0 1.849-1.849v-1.995h12.514a1.848 1.848 0 0 0 1.849-1.848v-.867h7.373l3.973 3.216a18.853 18.853 0 0 0 11.826 4.187h11.263l.038-.002c.238.026.479.04.723.04h13.206a6.72 6.72 0 0 0 6.713-6.713 6.672 6.672 0 0 0-.753-3.083c3.256-.46 5.768-3.263 5.768-6.644a6.67 6.67 0 0 0-1.116-3.702 6.2 6.2 0 0 0 3.365-5.508v-1.036a6.199 6.199 0 0 0-3.189-5.414zm-24.512-6.81h19.259a2.5 2.5 0 0 1 2.497 2.497v1.037a2.5 2.5 0 0 1-2.497 2.496H89.331a2.5 2.5 0 0 1-2.497-2.496v-.994c.121-.45.226-.87.317-1.256a2.497 2.497 0 0 1 2.18-1.284zm-6.194 32.198c0 1.069.252 2.08.699 2.978h-6.011a15.15 15.15 0 0 1-9.5-3.364l-4.482-3.628a1.845 1.845 0 0 0-1.163-.412h-8.027v-5.302a1.848 1.848 0 1 0-3.698 0v8.017H40.29v-35.83h10.666v21.651a1.849 1.849 0 1 0 3.698 0V85.074h8.027c.267 0 .53-.058.773-.17.023-.01 2.37-1.088 5.48-2.419 6.092-2.604 9.639-6.89 12.244-14.789.875-2.654 1.578-5.521 2.088-8.523l.925-5.44c2.169.507 3.365 2.227 3.9 5.484.321 1.96.271 4.03-.15 6.15L84 85.227a25.475 25.475 0 0 1-.368 1.935 6.143 6.143 0 0 0-.467 1.852c-1.464 5.228-5.233 14.187-13.862 14.187a1.849 1.849 0 0 0 0 3.698c5.722 0 10.492-2.953 13.914-8.57-.051.321-.079.65-.079.985v1.036c0 1.769.746 3.366 1.94 4.496a6.69 6.69 0 0 0-1.94 4.714c0 1.913.805 3.64 2.094 4.863a6.691 6.691 0 0 0-2.094 4.864zm19.919 3.014H89.85a3.018 3.018 0 0 1-3.015-3.014 3.019 3.019 0 0 1 3.015-3.016h13.206a3.02 3.02 0 0 1 3.015 3.016 3.018 3.018 0 0 1-3.015 3.014zm5.016-9.727H89.85a3.018 3.018 0 0 1-3.015-3.015 3.019 3.019 0 0 1 3.015-3.015h18.222a3.019 3.019 0 0 1 3.015 3.015 3.019 3.019 0 0 1-3.015 3.015zm5.262-12.224a2.499 2.499 0 0 1-2.496 2.497H89.331a2.5 2.5 0 0 1-2.497-2.497v-1.037a2.5 2.5 0 0 1 2.497-2.497h21.507a2.5 2.5 0 0 1 2.496 2.497v1.037zM42.605 26.676a3.437 3.437 0 0 0-2.792-2.353l-8.406-1.221-3.76-7.617a3.437 3.437 0 0 0-3.1-1.928 3.437 3.437 0 0 0-3.101 1.928l-3.759 7.617-8.406 1.221a3.436 3.436 0 0 0-2.792 2.353 3.437 3.437 0 0 0 .875 3.546l6.083 5.929-1.435 8.372a3.437 3.437 0 0 0 1.375 3.382 3.445 3.445 0 0 0 3.642.263l7.518-3.952 7.519 3.952a3.436 3.436 0 0 0 3.641-.263 3.436 3.436 0 0 0 1.376-3.382l-1.436-8.372 6.083-5.93a3.437 3.437 0 0 0 .875-3.545zm-9.63 6.915a3.457 3.457 0 0 0-.994 3.06l1.375 8.018-7.2-3.785a3.457 3.457 0 0 0-3.219 0l-7.2 3.785 1.375-8.017a3.458 3.458 0 0 0-.994-3.061l-5.826-5.678 8.051-1.17a3.457 3.457 0 0 0 2.604-1.892l3.6-7.295 3.6 7.294a3.456 3.456 0 0 0 2.603 1.893l8.05 1.17-5.824 5.678zM81.494 13.119a3.437 3.437 0 0 0-2.792-2.353l-8.406-1.222-3.76-7.617A3.436 3.436 0 0 0 63.437 0a3.437 3.437 0 0 0-3.1 1.927l-3.76 7.618-8.406 1.221a3.436 3.436 0 0 0-2.792 2.353 3.437 3.437 0 0 0 .875 3.546l6.083 5.93-1.436 8.371a3.437 3.437 0 0 0 1.375 3.382c1.073.78 2.468.88 3.642.264l7.519-3.953 7.518 3.953a3.448 3.448 0 0 0 3.642-.263 3.436 3.436 0 0 0 1.375-3.383l-1.436-8.372 6.084-5.93a3.438 3.438 0 0 0 .875-3.545zm-9.63 6.915a3.458 3.458 0 0 0-.994 3.06l1.375 8.018-7.2-3.785a3.458 3.458 0 0 0-3.218 0l-7.201 3.785 1.375-8.018a3.457 3.457 0 0 0-.994-3.06l-5.826-5.678 8.05-1.17a3.457 3.457 0 0 0 2.605-1.892l3.6-7.295 3.6 7.295a3.457 3.457 0 0 0 2.604 1.892l8.05 1.17-5.825 5.678zM120.312 26.677a3.438 3.438 0 0 0-2.792-2.353l-8.406-1.222-3.759-7.617a3.437 3.437 0 0 0-3.101-1.928 3.436 3.436 0 0 0-3.1 1.928l-3.76 7.617-8.406 1.222a3.436 3.436 0 0 0-2.792 2.353 3.437 3.437 0 0 0 .875 3.545l6.083 5.93-1.436 8.371a3.437 3.437 0 0 0 1.376 3.383c1.072.779 2.467.88 3.641.263l7.519-3.953 7.519 3.953a3.445 3.445 0 0 0 3.641-.263 3.436 3.436 0 0 0 1.376-3.382l-1.436-8.372 6.083-5.93a3.44 3.44 0 0 0 .875-3.545zm-9.629 6.914a3.458 3.458 0 0 0-.995 3.06l1.376 8.018-7.201-3.785a3.456 3.456 0 0 0-3.218 0l-7.2 3.785 1.374-8.017a3.457 3.457 0 0 0-.994-3.061L88 27.913l8.05-1.17a3.457 3.457 0 0 0 2.603-1.892l3.601-7.295 3.6 7.296a3.458 3.458 0 0 0 2.604 1.891l8.05 1.17-5.825 5.678z"/></svg>