<svg xmlns="http://www.w3.org/2000/svg" width="86" height="84" fill="none"><path fill="#EF4C4C" d="M85.834 45.594a34.363 34.363 0 0 0-9.77-20.775 33.657 33.657 0 0 0-16.593-9.18v-4.3a5.756 5.756 0 0 0 4.333-5.584C63.804 2.58 61.242 0 58.093 0H45.999c-3.15 0-5.711 2.581-5.711 5.755a5.756 5.756 0 0 0 4.332 5.584v4.312A33.656 33.656 0 0 0 28.08 24.82a34.276 34.276 0 0 0-2.852 3.26 1.621 1.621 0 0 0-.127-.006H13.13c-.928 0-1.68.758-1.68 1.693s.752 1.692 1.68 1.692h9.811a34.051 34.051 0 0 0-2.98 6.506H1.68c-.928 0-1.68.758-1.68 1.692 0 .935.752 1.693 1.68 1.693h17.332a34.66 34.66 0 0 0-.834 6.506H10.75c-.927 0-1.68.757-1.68 1.692 0 .935.753 1.693 1.68 1.693h7.482c.141 2.19.49 4.37 1.048 6.505H8.4c-.928 0-1.68.758-1.68 1.693s.752 1.692 1.68 1.692h11.953a34.021 34.021 0 0 0 7.727 12.04c5.534 5.576 12.864 9.073 20.638 9.847a33.825 33.825 0 0 0 21.846-5.35 1.7 1.7 0 0 0 .491-2.341 1.672 1.672 0 0 0-2.324-.495c-12.02 7.887-28.117 6.181-38.276-4.055-11.92-12.01-11.92-31.553 0-43.564 11.92-12.01 31.314-12.01 43.234 0 10.145 10.223 11.847 26.43 4.046 38.535a1.7 1.7 0 0 0 .494 2.341c.778.51 1.818.286 2.323-.498 4.168-6.468 6.044-14.28 5.283-21.997zM43.647 5.754A2.363 2.363 0 0 1 46 3.386h12.094a2.363 2.363 0 0 1 2.351 2.37 2.363 2.363 0 0 1-2.351 2.37H45.999a2.363 2.363 0 0 1-2.352-2.37zm4.333 9.315v-3.56h8.132v3.554a33.967 33.967 0 0 0-8.132.006z"/><path fill="#EF4C4C" d="M74.877 70.28c-.444 0-.875.182-1.187.496a1.705 1.705 0 0 0 0 2.393c.312.317.744.496 1.187.496.442 0 .873-.179 1.188-.495.312-.315.492-.752.492-1.197a1.69 1.69 0 0 0-1.68-1.692zM52.071 22.739c-14.368 0-26.057 11.778-26.057 26.256 0 14.477 11.69 26.256 26.057 26.256 14.368 0 26.057-11.779 26.057-26.256 0-14.478-11.689-26.256-26.057-26.256zm0 49.127c-12.516 0-22.698-10.26-22.698-22.871 0-12.611 10.182-22.871 22.698-22.871s22.698 10.26 22.698 22.87c0 12.612-10.182 22.872-22.698 22.872z"/><path fill="#EF4C4C" d="M62.697 35.895l-8.32 8.383a5.156 5.156 0 0 0-2.305-.542c-.828 0-1.61.195-2.306.542l-3.723-3.752a1.671 1.671 0 0 0-2.376 0 1.702 1.702 0 0 0 0 2.394l3.723 3.752a5.258 5.258 0 0 0-.538 2.323c0 2.9 2.341 5.26 5.22 5.26 2.878 0 5.22-2.36 5.22-5.26a5.26 5.26 0 0 0-.54-2.323l8.076-8.137.244-.246a1.702 1.702 0 0 0 0-2.394 1.67 1.67 0 0 0-2.375 0zM52.072 50.869a1.87 1.87 0 0 1-1.86-1.874 1.87 1.87 0 0 1 1.86-1.874c1.025 0 1.86.84 1.86 1.874a1.87 1.87 0 0 1-1.86 1.874zM70.03 47.323h-1.556c-.927 0-1.68.758-1.68 1.692 0 .935.753 1.693 1.68 1.693h1.556c.928 0 1.68-.758 1.68-1.693 0-.934-.752-1.692-1.68-1.692zM35.668 47.282h-1.556c-.928 0-1.68.757-1.68 1.692 0 .935.752 1.693 1.68 1.693h1.556c.927 0 1.68-.758 1.68-1.693s-.753-1.692-1.68-1.692zM52.092 34.159c.927 0 1.68-.758 1.68-1.693v-1.568c0-.934-.753-1.692-1.68-1.692-.928 0-1.68.758-1.68 1.692v1.568c0 .935.752 1.693 1.68 1.693zM52.051 63.83c-.928 0-1.68.758-1.68 1.693v1.568c0 .935.752 1.693 1.68 1.693.928 0 1.68-.758 1.68-1.693v-1.568c0-.934-.752-1.692-1.68-1.692zM1.68 57.746A1.686 1.686 0 0 0 0 59.438a1.686 1.686 0 0 0 1.68 1.693 1.685 1.685 0 0 0 1.68-1.693 1.685 1.685 0 0 0-1.68-1.692z"/></svg>