<svg xmlns="http://www.w3.org/2000/svg" width="120" height="125" fill="none"><path fill="#EF4C4C" d="M50.464 100.258a4.178 4.178 0 0 0 3.054-2.38l4.933-10.851a6.293 6.293 0 0 0-.75-6.404l3.912-3.913a22.382 22.382 0 0 0 6.3-11.827c.684-3.756.255-6.35-1.313-7.915-1.567-1.566-4.155-1.994-7.916-1.313a22.382 22.382 0 0 0-11.827 6.3l-3.913 3.912a6.29 6.29 0 0 0-6.406-.753l-10.853 4.933a4.172 4.172 0 0 0-1.225 6.75l5.25 5.25a2.087 2.087 0 0 0 2.134.505l2.296-.768-1.422 2.863a6.259 6.259 0 0 0-4.482 1.827c-1.718 1.719-5.996 8.764-2.951 11.805a3.936 3.936 0 0 0 2.89 1.067 16.016 16.016 0 0 0 8.916-4.017 6.25 6.25 0 0 0 1.826-4.484l2.865-1.43-.768 2.294c-.25.75-.054 1.577.506 2.135l5.243 5.257a4.17 4.17 0 0 0 3.7 1.157zm-.652-35.353a18.229 18.229 0 0 1 9.622-5.145c2.713-.494 3.93-.134 4.22.157.29.29.649 1.507.156 4.218a18.218 18.218 0 0 1-5.15 9.616l-12.72 12.73-2.954-2.95 8.855-8.855-2.95-2.95-8.855 8.853-2.951-2.953 12.727-12.721zM31.75 78.188l-4.335-4.336 10.853-4.934a2.063 2.063 0 0 1 1.64-.015L32.66 76.15a2.052 2.052 0 0 0-.528 1.912l-.382.127zm2.39 14.192a12.962 12.962 0 0 1-5.78 2.826 12.94 12.94 0 0 1 2.827-5.777 2.087 2.087 0 1 1 2.953 2.95zm2.95-5.904l-.405-.405.984-1.969 1.808 1.808-1.97.983-.416-.417zm8.292 5.34l.127-.386c.143.043.288.071.436.084.555 0 1.084-.22 1.476-.612l7.246-7.246a2.09 2.09 0 0 1-.012 1.638l-4.936 10.852-4.337-4.33z"/><path fill="#EF4C4C" d="M57.246 70.9l3.966-1.32-1.476-4.427a2.09 2.09 0 0 0-1.32-1.32l-4.432-1.475-1.32 3.965L56.1 67.47l1.146 3.43zM35.613 105.658l5.904-5.902 2.95 2.951-5.903 5.903-2.95-2.952zM14.955 84.997l5.903-5.903 2.951 2.952-5.902 5.902-2.952-2.951zM66.605 86.474l5.903-5.904 2.95 2.953-5.902 5.902-2.951-2.951zM60.703 92.378l2.951-2.952 2.952 2.95-2.95 2.953-2.953-2.951zM34.139 54.008l5.903-5.902 2.951 2.951-5.902 5.904-2.952-2.953zM28.237 59.91l2.951-2.95 2.953 2.95-2.953 2.953-2.95-2.952zM71.39 45.913c12.679 0 22.957-10.278 22.957-22.956C94.347 10.277 84.069 0 71.39 0 58.712 0 48.434 10.278 48.434 22.957c.014 12.672 10.284 22.941 22.956 22.956zm4.174-4.658V38.43l1.476-1.475c.391-.391.611-.922.611-1.476v-2.087h1.354l4.673 3.738a18.706 18.706 0 0 1-8.114 4.126zm14.609-18.298h-5.924l-4.51-1.506v-3.465l3.018-1.5a2.086 2.086 0 0 0 1.155-1.877v-3.682l.663-1.327a18.723 18.723 0 0 1 5.598 13.357zM81.218 6.98l-1.253 2.521a2.075 2.075 0 0 0-.227.933v2.884l-3.02 1.509a2.086 2.086 0 0 0-1.154 1.868v6.26a2.087 2.087 0 0 0 1.427 1.982l6.26 2.087c.214.07.437.106.661.106h5.777a18.67 18.67 0 0 1-3.18 6.92l-5.467-4.383a2.09 2.09 0 0 0-1.304-.45h-4.174a2.087 2.087 0 0 0-2.087 2.087v3.31l-1.475 1.475a2.088 2.088 0 0 0-.612 1.475v4.174a18.692 18.692 0 0 1-12.649-4.938l1.392.595c.26.112.54.17.822.17h6.261a2.087 2.087 0 0 0 2.087-2.088v-4.174a2.09 2.09 0 0 0-1.154-1.867l-3.02-1.51V26.16l5.332-3.548a2.085 2.085 0 0 0 .93-1.742v-4.174c0-.554-.22-1.085-.612-1.476l-1.476-1.475V8.348c0-.452-.147-.89-.418-1.253l-1.802-2.403a18.478 18.478 0 0 1 14.135 2.295v-.006zm-18.235-.798l2.146 2.86v5.566c0 .553.22 1.084.612 1.475l1.475 1.476v2.193L61.884 23.3a2.084 2.084 0 0 0-.929 1.743v4.174a2.086 2.086 0 0 0 1.154 1.867l3.02 1.51v.797h-3.757L54.09 30.26c-3.858-9.117.037-19.662 8.894-24.084v.006zM104.782 52.174c-6.917 0-12.522 5.607-12.522 12.522s5.605 12.522 12.522 12.522c6.915 0 12.521-5.607 12.521-12.522-.007-6.913-5.609-12.515-12.521-12.522zm0 20.87a8.347 8.347 0 0 1-8.348-8.348 8.347 8.347 0 1 1 16.695 0 8.348 8.348 0 0 1-8.347 8.348z"/><path fill="#EF4C4C" d="M102.694 60.522h4.174v4.174h-4.174v-4.174zM104.781 66.783h4.174v4.174h-4.174v-4.174zM104.078 111.486l.85-1.67a4.175 4.175 0 0 0-5.612-5.611l-1.67.849-1.325-1.323a4.175 4.175 0 0 0-4.848-.77 4.177 4.177 0 0 0-2.227 4.374l.294 1.849-1.669.852a4.173 4.173 0 0 0 1.241 7.842l1.852.292.292 1.851a4.11 4.11 0 0 0 3.47 3.469 4.105 4.105 0 0 0 4.37-2.237l.852-1.67 1.851.294a4.172 4.172 0 0 0 3.602-7.075l-1.323-1.316zm-4.975 3.757a2.102 2.102 0 0 0-2.187 1.114l-1.539 3.018-.53-3.339a2.086 2.086 0 0 0-1.736-1.737l-3.34-.53 3.021-1.538a2.088 2.088 0 0 0 1.115-2.187l-.531-3.34 2.398 2.396a2.085 2.085 0 0 0 2.42.384l3.034-1.565-.011.025-1.538 3.022a2.089 2.089 0 0 0 .384 2.421l2.398 2.398-3.358-.542zM5.503 30.146l1.85-.294.85 1.67a4.104 4.104 0 0 0 4.373 2.23 4.112 4.112 0 0 0 3.471-3.468l.293-1.851 1.85-.293a4.174 4.174 0 0 0 1.242-7.842l-1.67-.852.295-1.85a4.174 4.174 0 0 0-7.075-3.613l-1.325 1.323-1.67-.85a4.174 4.174 0 0 0-5.614 5.619l.85 1.669-1.324 1.326a4.173 4.173 0 0 0 3.604 7.074v.002zm1.743-6.522a2.084 2.084 0 0 0 .384-2.42L6.067 18.17h.025l3.022 1.538c.805.41 1.782.255 2.421-.384l2.398-2.398-.53 3.35a2.087 2.087 0 0 0 1.115 2.188l3.02 1.537-3.34.53a2.09 2.09 0 0 0-1.737 1.736l-.53 3.34-1.537-3.02a2.087 2.087 0 0 0-2.188-1.114l-3.338.53 2.378-2.38zM57.393 113.309l12.52-12.522 2.953 2.951-12.522 12.522-2.951-2.951zM49.046 121.655l4.173-4.172 2.95 2.951-4.172 4.174-2.951-2.953zM7.305 61.135L17.739 50.7l2.952 2.95-10.435 10.436-2.951-2.951zM0 68.438l3.13-3.13 2.952 2.951-3.13 3.13L0 68.438zM28.175 113.308l4.173-4.174 2.95 2.952-4.172 4.173-2.951-2.951zM7.305 92.438l4.174-4.174 2.95 2.952-4.172 4.173-2.952-2.951zM104.781 16.696h4.174v4.174h-4.174v-4.174zM115.216 29.218h4.174v4.173h-4.174v-4.173zM31.737 4.174h4.174v4.174h-4.174V4.174zM33.824 27.13h4.174v4.174h-4.174v-4.173z"/></svg>